STARTFONT 2.1
COMMENT
COMMENT Converted from OpenType font "ArialI.otf" by "otf2bdf 3.0".
COMMENT
FONT -FreeType-Arial-Medium-I-Normal--36-260-100-100-P-188-ISO10646-1
SIZE 26 100 100
FONTBOUNDINGBOX 58 48 -19 -12
STARTPROPERTIES 19
FOUNDRY "FreeType"
FAMILY_NAME "Arial"
WEIGHT_NAME "Medium"
SLANT "I"
SETWIDTH_NAME "Normal"
ADD_STYLE_NAME ""
PIXEL_SIZE 36
POINT_SIZE 260
RESOLUTION_X 100
RESOLUTION_Y 100
SPACING "P"
AVERAGE_WIDTH 188
CHARSET_REGISTRY "ISO10646"
CHARSET_ENCODING "1"
FONT_ASCENT 32
FONT_DESCENT 7
COPYRIGHT "© 2006 The Monotype Corporation. All Rights Reserved."
_OTF_FONTFILE "ArialI.otf"
_OTF_PSNAME "Arial-ItalicMT"
ENDPROPERTIES
CHARS 959
STARTCHAR 0020
ENCODING 32
SWIDTH 276 0
DWIDTH 10 0
BBX 0 0 0 0
BITMAP
ENDCHAR
STARTCHAR 0021
ENCODING 33
SWIDTH 276 0
DWIDTH 10 0
BBX 9 26 2 0
BITMAP
0780
0780
0700
0F00
0F00
0F00
0F00
0E00
0E00
1E00
1C00
1C00
1C00
1C00
1800
1800
3800
3800
3000
0000
0000
0000
7000
7000
F000
F000
ENDCHAR
STARTCHAR 0022
ENCODING 34
SWIDTH 360 0
DWIDTH 13 0
BBX 10 9 5 17
BITMAP
79C0
71C0
73C0
F3C0
F3C0
E380
E380
E300
C300
ENDCHAR
STARTCHAR 0023
ENCODING 35
SWIDTH 553 0
DWIDTH 20 0
BBX 19 26 2 0
BITMAP
038180
038380
038380
030380
030300
070300
070700
FFFFE0
FFFFE0
FFFFE0
0E0600
0E0E00
0E0E00
0C0E00
0C0C00
1C0C00
FFFFE0
FFFFE0
FFFFE0
181800
381800
383800
383800
303800
303000
703000
ENDCHAR
STARTCHAR 0024
ENCODING 36
SWIDTH 553 0
DWIDTH 20 0
BBX 19 31 2 -3
BITMAP
000C00
000800
01FE00
03FF00
07DF80
0E1BC0
1E11C0
1C31E0
1C3080
1C3000
1C2000
1E6000
0FE000
07E000
03F800
00FE00
00FF00
00CF00
00C780
00C380
E08380
E18380
F18380
F18700
798F00
3D1E00
1FFC00
0FF800
030000
020000
020000
ENDCHAR
STARTCHAR 0025
ENCODING 37
SWIDTH 886 0
DWIDTH 32 0
BBX 27 27 4 -1
BITMAP
1F800380
3FC00700
79E00E00
70E01C00
E0E01C00
E0E03800
E0E07000
C0E0E000
C0C1C000
C1C1C000
E3C38000
FF870000
7F0E0000
000E0600
001C3F80
00387FC0
007070E0
00E0E0E0
00E0E0E0
01C0C0E0
0381C0E0
0701C1C0
0601C1C0
0E01C3C0
1C00E780
3800FF00
70003C00
ENDCHAR
STARTCHAR 0026
ENCODING 38
SWIDTH 664 0
DWIDTH 24 0
BBX 20 27 3 -1
BITMAP
007E00
01FF00
03E780
038380
078380
078380
078380
078700
039F00
03FE00
03F800
07E000
0FE000
3EF000
7C7000
707860
F03C70
E01CF0
E01FE0
E00FE0
E007C0
F007C0
781FC0
7E7FE0
3FFCF0
1FF060
030000
ENDCHAR
STARTCHAR 0027
ENCODING 39
SWIDTH 193 0
DWIDTH 7 0
BBX 4 9 5 17
BITMAP
70
F0
F0
F0
E0
E0
E0
C0
C0
ENDCHAR
STARTCHAR 0028
ENCODING 40
SWIDTH 332 0
DWIDTH 12 0
BBX 11 34 3 -8
BITMAP
0060
00C0
01C0
0380
0300
0700
0E00
0E00
1C00
1C00
3800
3800
7800
7000
7000
7000
F000
E000
E000
E000
E000
E000
E000
E000
E000
E000
7000
7000
7000
7000
3000
3800
3800
1800
ENDCHAR
STARTCHAR 0029
ENCODING 41
SWIDTH 332 0
DWIDTH 12 0
BBX 12 34 -2 -8
BITMAP
01C0
01C0
00C0
00E0
00E0
00E0
00E0
0070
0070
0070
0070
0070
0070
0070
0070
0070
00F0
00E0
00E0
00E0
00E0
01C0
01C0
03C0
0380
0380
0700
0E00
0E00
1C00
1800
3000
7000
E000
ENDCHAR
STARTCHAR 002A
ENCODING 42
SWIDTH 387 0
DWIDTH 14 0
BBX 12 11 4 15
BITMAP
0600
0600
0600
76E0
FFF0
1FC0
0F00
1F80
39C0
30C0
1080
ENDCHAR
STARTCHAR 002B
ENCODING 43
SWIDTH 581 0
DWIDTH 21 0
BBX 17 17 3 4
BITMAP
01C000
01C000
01C000
01C000
01C000
01C000
01C000
FFFF80
FFFF80
FFFF80
01C000
01C000
01C000
01C000
01C000
01C000
01C000
ENDCHAR
STARTCHAR 002C
ENCODING 44
SWIDTH 276 0
DWIDTH 10 0
BBX 5 9 1 -5
BITMAP
38
78
78
78
10
10
30
60
C0
ENDCHAR
STARTCHAR 002D
ENCODING 45
SWIDTH 332 0
DWIDTH 12 0
BBX 10 3 2 8
BITMAP
FFC0
FFC0
FFC0
ENDCHAR
STARTCHAR 002E
ENCODING 46
SWIDTH 276 0
DWIDTH 10 0
BBX 4 4 2 0
BITMAP
70
70
F0
F0
ENDCHAR
STARTCHAR 002F
ENCODING 47
SWIDTH 276 0
DWIDTH 10 0
BBX 15 26 -1 0
BITMAP
0006
000E
000C
001C
0018
0038
0030
0070
00E0
00E0
01C0
01C0
0380
0380
0700
0700
0E00
0E00
1C00
1C00
3800
3000
7000
6000
E000
C000
ENDCHAR
STARTCHAR 0030
ENCODING 48
SWIDTH 553 0
DWIDTH 20 0
BBX 17 26 3 0
BITMAP
00F800
03FE00
07FF00
0F0700
1E0380
1C0380
380380
380380
780380
700380
700380
F00380
E00380
E00380
E00380
E00780
E00700
E00700
E00F00
E00E00
E01E00
E01C00
F03800
78F800
3FF000
1FC000
ENDCHAR
STARTCHAR 0031
ENCODING 49
SWIDTH 553 0
DWIDTH 20 0
BBX 12 26 5 0
BITMAP
0030
0070
00F0
01F0
03E0
0FE0
3FE0
7CE0
71E0
81C0
01C0
01C0
01C0
03C0
0380
0380
0380
0780
0700
0700
0700
0700
0F00
0E00
0E00
0E00
ENDCHAR
STARTCHAR 0032
ENCODING 50
SWIDTH 553 0
DWIDTH 20 0
BBX 18 26 2 0
BITMAP
00FC00
03FF00
07FF80
0F0780
1E03C0
1C01C0
1C01C0
1C01C0
0001C0
0003C0
000380
000780
000F00
001E00
007C00
00F800
01E000
03C000
078000
0F0000
1E0000
3C0000
780000
7FFF00
7FFF00
FFFF00
ENDCHAR
STARTCHAR 0033
ENCODING 51
SWIDTH 553 0
DWIDTH 20 0
BBX 18 26 2 0
BITMAP
00FC00
03FF00
07FF80
0F0780
0E03C0
1E01C0
1C01C0
0001C0
0001C0
0003C0
000780
00FF00
00FC00
00FE00
001F00
000700
000780
000380
000380
E00380
E00700
F00700
700E00
7C3E00
3FFC00
0FF000
ENDCHAR
STARTCHAR 0034
ENCODING 52
SWIDTH 553 0
DWIDTH 20 0
BBX 17 26 2 0
BITMAP
000380
000380
000780
000F80
001F00
003F00
007700
00E700
01EF00
03CE00
078E00
070E00
0E0E00
1C1E00
381C00
701C00
E01C00
FFFF80
FFFF80
003800
003800
003800
003800
007800
007000
007000
ENDCHAR
STARTCHAR 0035
ENCODING 53
SWIDTH 553 0
DWIDTH 20 0
BBX 18 26 3 0
BITMAP
07FFC0
07FF80
0FFF80
0E0000
0E0000
0E0000
1C0000
1C0000
1C4000
3BFC00
3FFE00
3E3F00
380F00
700700
000780
000780
000380
000780
600700
E00700
E00F00
E00E00
F01E00
787C00
3FF800
1FE000
ENDCHAR
STARTCHAR 0036
ENCODING 54
SWIDTH 553 0
DWIDTH 20 0
BBX 17 26 3 0
BITMAP
007C00
01FE00
07FF00
0F8780
0E0380
1E0380
1C0180
3C0000
380000
79F800
77FC00
7F3E00
7C0F00
F80700
F00700
F00700
E00700
E00700
E00700
E00700
E00F00
700E00
781E00
3C7C00
1FF800
0FE000
ENDCHAR
STARTCHAR 0037
ENCODING 55
SWIDTH 553 0
DWIDTH 20 0
BBX 17 26 5 0
BITMAP
FFFF80
FFFF00
FFFF00
000F00
001E00
003C00
003800
007000
00E000
01E000
01C000
038000
078000
070000
0F0000
0E0000
1E0000
1C0000
1C0000
3C0000
380000
780000
780000
700000
700000
F00000
ENDCHAR
STARTCHAR 0038
ENCODING 56
SWIDTH 553 0
DWIDTH 20 0
BBX 17 26 3 0
BITMAP
01F800
07FE00
0FFF00
1E0780
1C0380
3C0380
380380
380380
3C0380
1C0700
0E0F00
07FC00
0FFC00
3E3E00
780E00
700F00
F00700
E00700
E00700
E00700
E00F00
E00E00
F01E00
787C00
3FF800
1FE000
ENDCHAR
STARTCHAR 0039
ENCODING 57
SWIDTH 553 0
DWIDTH 20 0
BBX 18 26 2 0
BITMAP
00F800
03FE00
07FF00
0F0780
1E0380
1C0380
3801C0
3801C0
3801C0
3801C0
3803C0
3803C0
3807C0
3C07C0
1E1F80
1FFF80
07F780
01C700
000700
000F00
F00E00
701E00
703C00
7CF800
3FF000
1FE000
ENDCHAR
STARTCHAR 003A
ENCODING 58
SWIDTH 276 0
DWIDTH 10 0
BBX 8 19 2 0
BITMAP
0F
0E
0E
1E
00
00
00
00
00
00
00
00
00
00
00
70
70
F0
F0
ENDCHAR
STARTCHAR 003B
ENCODING 59
SWIDTH 276 0
DWIDTH 10 0
BBX 8 24 1 -5
BITMAP
07
07
0F
0F
00
00
00
00
00
00
00
00
00
00
00
38
78
78
78
10
10
30
60
C0
ENDCHAR
STARTCHAR 003C
ENCODING 60
SWIDTH 581 0
DWIDTH 21 0
BBX 17 17 3 5
BITMAP
000180
000780
003F80
00FE00
03F800
1FC000
7F0000
FC0000
F00000
FE0000
3F8000
0FF000
01FC00
007F00
001F80
000380
000080
ENDCHAR
STARTCHAR 003D
ENCODING 61
SWIDTH 581 0
DWIDTH 21 0
BBX 17 11 3 7
BITMAP
FFFF80
FFFF80
FFFF80
000000
000000
000000
000000
000000
FFFF80
FFFF80
FFFF80
ENDCHAR
STARTCHAR 003E
ENCODING 62
SWIDTH 581 0
DWIDTH 21 0
BBX 17 17 3 5
BITMAP
E00000
F80000
FE0000
3FC000
07F000
01FC00
003F80
000F80
000780
001F80
00FE00
03F800
0FE000
7F0000
FC0000
F00000
800000
ENDCHAR
STARTCHAR 003F
ENCODING 63
SWIDTH 553 0
DWIDTH 20 0
BBX 15 26 5 0
BITMAP
0FF0
1FF8
3C7C
781E
F00E
E00E
E00E
600E
001E
003C
0078
00F0
01E0
03C0
0780
0F00
1E00
1C00
1C00
1C00
0000
0000
3800
3800
7800
7800
ENDCHAR
STARTCHAR 0040
ENCODING 64
SWIDTH 1024 0
DWIDTH 37 0
BBX 33 34 2 -8
BITMAP
000FFE0000
007FFF8000
01FE1FE000
03E001F000
0780007800
0F00003C00
1E00001E00
1C07C38E00
381FF38700
383FFF0700
70781F0700
70701F0300
60F00F0300
E0E00F0380
E1E00E0300
E1C00E0300
E1C00E0700
E1C00E0700
E1C01E0700
E1C01C0E00
E1C03C1C00
E1E03C3C00
60F0FC7800
70FFDFF000
707F9FE000
381E0F8000
3C00000380
1E00000700
0F00001E00
07C0007C00
03F801F800
00FFFFE000
003FFF8000
0000E00000
ENDCHAR
STARTCHAR 0041
ENCODING 65
SWIDTH 664 0
DWIDTH 24 0
BBX 22 26 0 0
BITMAP
0003C0
0007C0
0007C0
000EE0
001EE0
001CE0
003CE0
0038E0
0078E0
0070F0
00F0F0
01E070
01E070
03C070
038070
078078
07FFF8
0FFFF8
0FFFF8
1E0038
3C0038
3C003C
78003C
70003C
F0001C
E0001C
ENDCHAR
STARTCHAR 0042
ENCODING 66
SWIDTH 664 0
DWIDTH 24 0
BBX 22 26 2 0
BITMAP
07FF80
07FFE0
0FFFF0
0F0078
0F0038
0E003C
0E003C
1E003C
1E0038
1C0078
1C00F0
1FFFE0
3FFF80
3FFFE0
3801F0
380078
380078
780038
780038
700078
700078
7000F0
F003E0
FFFFE0
FFFF80
FFFE00
ENDCHAR
STARTCHAR 0043
ENCODING 67
SWIDTH 720 0
DWIDTH 26 0
BBX 23 26 3 0
BITMAP
007FC0
01FFF0
03FFF8
07C07C
0F001C
1E001E
1C000E
3C000E
380000
780000
700000
700000
F00000
F00000
F00000
F00000
F00000
F0001C
70003C
700038
780078
3C00F0
3E01E0
1FDFC0
0FFF80
03FE00
ENDCHAR
STARTCHAR 0044
ENCODING 68
SWIDTH 720 0
DWIDTH 26 0
BBX 24 26 2 0
BITMAP
07FF80
07FFE0
07FFF8
0F00FC
0F003C
0E001E
0E000E
1E000E
1E000F
1E000F
1C000F
1C000F
3C000F
3C000F
38000E
38001E
38001E
78001C
78003C
700078
7000F8
7001F0
F007E0
FFFFC0
FFFF00
FFFC00
ENDCHAR
STARTCHAR 0045
ENCODING 69
SWIDTH 664 0
DWIDTH 24 0
BBX 24 26 2 0
BITMAP
07FFFF
07FFFE
07FFFE
0F0000
0F0000
0E0000
0E0000
1E0000
1E0000
1E0000
1C0000
1FFFF8
3FFFF8
3FFFF8
380000
380000
380000
780000
780000
700000
700000
700000
F00000
FFFFF0
FFFFF0
FFFFE0
ENDCHAR
STARTCHAR 0046
ENCODING 70
SWIDTH 609 0
DWIDTH 22 0
BBX 22 26 2 0
BITMAP
07FFFC
07FFFC
07FFF8
0F0000
0F0000
0E0000
0E0000
1E0000
1E0000
1E0000
1C0000
1FFFF0
3FFFF0
3FFFE0
3C0000
380000
380000
780000
780000
700000
700000
700000
F00000
F00000
E00000
E00000
ENDCHAR
STARTCHAR 0047
ENCODING 71
SWIDTH 775 0
DWIDTH 28 0
BBX 24 26 4 0
BITMAP
007FC0
01FFF0
07FFF8
0F807C
1F001E
1E001E
3C000E
78000F
780000
700000
F00000
F00000
E00000
E01FFE
E01FFC
E01FFC
E0001C
E0003C
E0003C
F00038
F00038
780078
7C01F8
3F8FF0
1FFFE0
07FF00
ENDCHAR
STARTCHAR 0048
ENCODING 72
SWIDTH 720 0
DWIDTH 26 0
BBX 25 26 2 0
BITMAP
07000380
07000780
0F000780
0F000780
0E000700
0E000700
0E000F00
1E000F00
1E000E00
1C000E00
1C000E00
1FFFFE00
3FFFFE00
3FFFFC00
38001C00
38001C00
78003C00
78003C00
78003800
70003800
70003800
F0007800
F0007800
E0007000
E0007000
E000F000
ENDCHAR
STARTCHAR 0049
ENCODING 73
SWIDTH 276 0
DWIDTH 10 0
BBX 9 26 2 0
BITMAP
0780
0780
0700
0700
0700
0F00
0F00
0E00
0E00
0E00
1E00
1E00
1C00
1C00
3C00
3C00
3C00
3800
3800
7800
7800
7000
7000
7000
F000
F000
ENDCHAR
STARTCHAR 004A
ENCODING 74
SWIDTH 498 0
DWIDTH 18 0
BBX 18 26 1 0
BITMAP
0001C0
0001C0
0003C0
0003C0
000380
000380
000380
000780
000780
000700
000700
000700
000F00
000F00
000E00
000E00
001E00
001E00
F01E00
E01C00
E01C00
F03C00
F07800
7CF800
7FF000
1FE000
ENDCHAR
STARTCHAR 004B
ENCODING 75
SWIDTH 664 0
DWIDTH 24 0
BBX 24 26 2 0
BITMAP
07000F
07003E
07007C
0F00F8
0F01F0
0E03E0
0E07C0
1E0F00
1E3E00
1C7C00
1CF800
1DF800
3FFC00
3FDC00
3F1E00
3E0F00
3C0F00
780780
780780
7003C0
7001C0
7001E0
F000F0
F000F0
E00078
E00078
ENDCHAR
STARTCHAR 004C
ENCODING 76
SWIDTH 553 0
DWIDTH 20 0
BBX 17 26 2 0
BITMAP
070000
070000
0F0000
0F0000
0E0000
0E0000
0E0000
1E0000
1E0000
1C0000
1C0000
3C0000
3C0000
3C0000
380000
380000
780000
780000
700000
700000
700000
F00000
F00000
FFFF80
FFFF80
FFFF00
ENDCHAR
STARTCHAR 004D
ENCODING 77
SWIDTH 830 0
DWIDTH 30 0
BBX 29 26 2 0
BITMAP
07800078
078000F8
0FC000F8
0FC001F8
0FC001F8
0FC003B0
0FC003F0
1EC00770
1EE00F70
1CE00EF0
1CE01EE0
1CE01CE0
3CE038E0
3CE039E0
386071E0
3870F1C0
3870E1C0
7871E1C0
7871C3C0
70738380
70738380
70370380
F03F0780
E03E0780
E03E0700
E03C0700
ENDCHAR
STARTCHAR 004E
ENCODING 78
SWIDTH 720 0
DWIDTH 26 0
BBX 25 26 2 0
BITMAP
07800380
07800380
07C00780
0FC00780
0EC00700
0EE00700
0EE00700
0E700F00
1E700F00
1E780E00
1C380E00
1C3C0E00
1C1C1E00
3C1E1E00
3C0E1C00
380E1C00
380F1C00
38073C00
7807BC00
7003B800
7003B800
7001B800
F001F800
F001F000
E000F000
E000F000
ENDCHAR
STARTCHAR 004F
ENCODING 79
SWIDTH 775 0
DWIDTH 28 0
BBX 25 26 3 0
BITMAP
003FC000
01FFF000
03FFFC00
07C03C00
0F001E00
1E000F00
3C000F00
3C000700
78000780
78000780
70000780
70000780
F0000780
F0000780
F0000780
F0000700
F0000F00
70000F00
70001E00
78001E00
78003C00
3C007800
1E01F000
0FEFE000
07FFC000
01FF0000
ENDCHAR
STARTCHAR 0050
ENCODING 80
SWIDTH 664 0
DWIDTH 24 0
BBX 23 26 2 0
BITMAP
07FFE0
07FFF8
0FFFFC
0F003E
0E001E
0E000E
0E000E
1E000E
1E001E
1C001E
1C003C
1C007C
3C07F8
3FFFF0
3FFFC0
3FF000
380000
780000
780000
700000
700000
F00000
F00000
F00000
E00000
E00000
ENDCHAR
STARTCHAR 0051
ENCODING 81
SWIDTH 775 0
DWIDTH 28 0
BBX 25 29 3 -3
BITMAP
007FC000
01FFF000
03FFFC00
07C03E00
0F001E00
1E000F00
1C000F00
3C000780
38000780
78000780
70000780
70000780
70000780
F0000780
F0000780
F0000700
F0000F00
70000F00
70001E00
780C1E00
781F3C00
3C07F800
1F03F000
0FEFE000
07FFE000
01FF7000
00003C00
00001C00
00000800
ENDCHAR
STARTCHAR 0052
ENCODING 82
SWIDTH 720 0
DWIDTH 26 0
BBX 24 26 2 0
BITMAP
07FFF0
07FFFC
07FFFE
0F000F
0F0007
0E0007
0E0007
0E0007
1E0007
1E000F
1C001E
1C00FC
1FFFF8
3FFFE0
3FFF00
380780
3803C0
7801E0
7801E0
7800F0
7000F0
700078
F00078
F00038
E0003C
E0003C
ENDCHAR
STARTCHAR 0053
ENCODING 83
SWIDTH 664 0
DWIDTH 24 0
BBX 21 26 3 0
BITMAP
01FF80
07FFC0
0FFFF0
0F00F0
1E0078
1C0078
1C0038
1C0038
1E0000
1F0000
0FC000
07F000
01FE00
007F00
001FC0
0007E0
0001E0
6000E0
E000E0
E000E0
E000E0
F001E0
7803C0
7FBFC0
3FFF00
0FFE00
ENDCHAR
STARTCHAR 0054
ENCODING 84
SWIDTH 609 0
DWIDTH 22 0
BBX 20 26 5 0
BITMAP
FFFFF0
FFFFF0
FFFFF0
00E000
00E000
01E000
01E000
01E000
01C000
01C000
03C000
03C000
038000
038000
038000
078000
078000
070000
070000
070000
0F0000
0F0000
0E0000
0E0000
0E0000
1E0000
ENDCHAR
STARTCHAR 0055
ENCODING 85
SWIDTH 720 0
DWIDTH 26 0
BBX 23 26 4 0
BITMAP
1E000E
1C001E
1C001E
3C001E
3C001C
38001C
38003C
38003C
78003C
780038
700038
700078
700078
F00070
F00070
E00070
E000F0
E000F0
E000E0
E001E0
E001C0
F003C0
F80780
7F7F00
3FFE00
0FF800
ENDCHAR
STARTCHAR 0056
ENCODING 86
SWIDTH 664 0
DWIDTH 24 0
BBX 22 26 5 0
BITMAP
E0001C
E0003C
E00078
E00078
F000F0
F000E0
7001E0
7001C0
7003C0
780380
780780
380700
380F00
381E00
3C1C00
3C3C00
1C3800
1C7800
1C7000
1EF000
1EE000
0FE000
0FC000
0FC000
0F8000
0F0000
ENDCHAR
STARTCHAR 0057
ENCODING 87
SWIDTH 941 0
DWIDTH 34 0
BBX 33 26 5 0
BITMAP
E001C00380
E003C00780
E003C00700
E007E00F00
E00FE00E00
E00FE01E00
E01FE01C00
E01CE03C00
E03CE03800
E038E07800
F078E07000
F070E0F000
F0F0E0E000
F0E0E1E000
F1E0E1C000
F1C0E3C000
F3C0E38000
7380E78000
7780E70000
7700EE0000
7F00EE0000
7E00FC0000
7E00FC0000
7C00F80000
7800F80000
7800F00000
ENDCHAR
STARTCHAR 0058
ENCODING 88
SWIDTH 664 0
DWIDTH 24 0
BBX 28 26 -1 0
BITMAP
078000F0
038001F0
03C003E0
01E007C0
01E00F80
00F01F00
00F03E00
00787C00
0038F800
003CF000
001DE000
001FC000
000F8000
000F0000
001F8000
003F8000
007BC000
00F1E000
01E1E000
03E0F000
07C07000
0F807800
1F003800
3E003C00
7C001E00
F8001E00
ENDCHAR
STARTCHAR 0059
ENCODING 89
SWIDTH 664 0
DWIDTH 24 0
BBX 24 26 4 0
BITMAP
F0001F
78001E
78003C
3C0078
3C00F8
1E00F0
1E01E0
0F03C0
0F07C0
078F80
078F00
03DE00
03FC00
01FC00
01F800
00F000
00F000
00E000
00E000
01E000
01E000
01C000
01C000
01C000
03C000
03C000
ENDCHAR
STARTCHAR 005A
ENCODING 90
SWIDTH 609 0
DWIDTH 22 0
BBX 22 26 1 0
BITMAP
0FFFFC
0FFFFC
0FFFFC
000078
0000F0
0001E0
0003E0
0003C0
000780
000F00
001E00
003C00
007C00
007800
00F000
01E000
03C000
078000
0F8000
1F0000
1E0000
3C0000
780000
FFFFF0
FFFFE0
FFFFE0
ENDCHAR
STARTCHAR 005B
ENCODING 91
SWIDTH 276 0
DWIDTH 10 0
BBX 14 33 0 -7
BITMAP
01FC
01FC
01FC
03C0
0380
0380
0380
0780
0780
0700
0700
0700
0F00
0E00
0E00
0E00
0E00
1E00
1C00
1C00
1C00
1C00
3C00
3800
3800
3800
3800
7800
7000
7000
7000
7F00
FE00
ENDCHAR
STARTCHAR 005C
ENCODING 92
SWIDTH 276 0
DWIDTH 10 0
BBX 7 26 3 0
BITMAP
E0
E0
E0
60
60
60
70
70
70
30
30
30
38
38
38
18
18
18
1C
1C
1C
0C
0C
0C
0E
0E
ENDCHAR
STARTCHAR 005D
ENCODING 93
SWIDTH 276 0
DWIDTH 10 0
BBX 14 33 -2 -7
BITMAP
01FC
03FC
03F8
0038
0038
0038
0078
0070
0070
0070
00F0
00E0
00E0
00E0
00E0
01E0
01C0
01C0
01C0
01C0
03C0
0380
0380
0380
0380
0780
0700
0700
0700
0700
0E00
FE00
FE00
ENDCHAR
STARTCHAR 005E
ENCODING 94
SWIDTH 470 0
DWIDTH 17 0
BBX 14 14 3 12
BITMAP
0780
0780
07C0
0FC0
0EC0
1CE0
1CE0
3870
3870
7838
7038
703C
E01C
E01C
ENDCHAR
STARTCHAR 005F
ENCODING 95
SWIDTH 553 0
DWIDTH 20 0
BBX 21 2 -2 -7
BITMAP
FFFFF8
FFFFF8
ENDCHAR
STARTCHAR 0060
ENCODING 96
SWIDTH 332 0
DWIDTH 12 0
BBX 6 5 5 21
BITMAP
F0
78
38
1C
1C
ENDCHAR
STARTCHAR 0061
ENCODING 97
SWIDTH 553 0
DWIDTH 20 0
BBX 17 19 2 0
BITMAP
03FC00
0FFE00
1FFF00
3C0780
380380
780380
000380
000780
0FFF00
3FFF00
7E0700
F00700
E00F00
E00E00
E01E00
E03E00
F07E00
7FEE00
3F8E00
ENDCHAR
STARTCHAR 0062
ENCODING 98
SWIDTH 553 0
DWIDTH 20 0
BBX 18 26 1 0
BITMAP
038000
078000
070000
070000
070000
0F0000
0E0000
0E7E00
0EFF00
0FEF80
1F03C0
1E01C0
1E01C0
1C01C0
1C01C0
3801C0
3801C0
3801C0
3803C0
380380
780380
780780
7C0F00
7E1E00
E7FC00
E3F800
ENDCHAR
STARTCHAR 0063
ENCODING 99
SWIDTH 498 0
DWIDTH 18 0
BBX 16 19 2 0
BITMAP
01F8
07FE
1FFF
1E0F
3C07
7807
7000
7000
F000
F000
E000
E000
E00E
E00E
F01C
703C
7878
3FF0
1FE0
ENDCHAR
STARTCHAR 0064
ENCODING 100
SWIDTH 553 0
DWIDTH 20 0
BBX 20 26 2 0
BITMAP
0000F0
0000E0
0000E0
0000E0
0000E0
0001C0
0001C0
03F1C0
07F9C0
1FFFC0
1C0F80
380780
780780
700780
700780
F00700
E00700
E00700
E00700
E00F00
E00E00
F01E00
F03E00
787E00
3FEE00
1F9C00
ENDCHAR
STARTCHAR 0065
ENCODING 101
SWIDTH 553 0
DWIDTH 20 0
BBX 17 19 2 0
BITMAP
01F800
07FE00
1F9F00
1E0700
380380
780380
700380
700380
FFFF80
FFFF80
E00000
E00000
E00000
E00700
F00E00
701E00
7C7C00
3FF800
1FE000
ENDCHAR
STARTCHAR 0066
ENCODING 102
SWIDTH 276 0
DWIDTH 10 0
BBX 13 26 2 0
BITMAP
03F8
07F0
07F0
0F00
0E00
0E00
0E00
7FC0
FFC0
FFC0
1C00
1C00
3C00
3800
3800
3800
3800
7800
7000
7000
7000
7000
F000
E000
E000
E000
ENDCHAR
STARTCHAR 0067
ENCODING 103
SWIDTH 553 0
DWIDTH 20 0
BBX 19 26 1 -7
BITMAP
01F8E0
07FCE0
0FDEE0
1E07E0
1C03E0
3C03C0
3801C0
7801C0
7001C0
700380
700380
700380
700780
700780
780F00
3C1F00
3FFF00
1FF700
07CF00
000E00
000E00
E01E00
E01C00
F87C00
7FF800
3FE000
ENDCHAR
STARTCHAR 0068
ENCODING 104
SWIDTH 553 0
DWIDTH 20 0
BBX 18 26 1 0
BITMAP
038000
078000
070000
070000
070000
0F0000
0E0000
0E3F00
0E7F80
0FF7C0
1F81C0
1F01C0
1E01C0
1C01C0
1C03C0
3C0380
380380
380380
380380
380780
780700
700700
700700
700700
F00F00
F00E00
ENDCHAR
STARTCHAR 0069
ENCODING 105
SWIDTH 221 0
DWIDTH 8 0
BBX 9 26 1 0
BITMAP
0780
0700
0700
0700
0000
0000
0000
0E00
0E00
0E00
1E00
1C00
1C00
1C00
3C00
3800
3800
3800
3800
7800
7000
7000
7000
7000
F000
E000
ENDCHAR
STARTCHAR 006A
ENCODING 106
SWIDTH 221 0
DWIDTH 8 0
BBX 14 33 -4 -7
BITMAP
003C
0038
0038
0038
0000
0000
0000
0070
0070
00F0
00E0
00E0
00E0
00E0
01E0
01C0
01C0
01C0
01C0
03C0
0380
0380
0380
0380
0780
0700
0700
0700
0F00
0E00
9E00
FE00
FC00
ENDCHAR
STARTCHAR 006B
ENCODING 107
SWIDTH 498 0
DWIDTH 18 0
BBX 19 26 1 0
BITMAP
038000
078000
070000
070000
070000
070000
0E0000
0E01E0
0E03C0
0E0F00
1E1E00
1C3C00
1C7800
1CF000
1DE000
3FF000
3F7000
3E7000
3C7800
383800
783C00
701C00
701C00
701E00
700E00
F00F00
ENDCHAR
STARTCHAR 006C
ENCODING 108
SWIDTH 221 0
DWIDTH 8 0
BBX 8 26 1 0
BITMAP
07
07
07
07
0F
0E
0E
0E
0E
1E
1C
1C
1C
1C
3C
38
38
38
38
78
70
70
70
F0
E0
E0
ENDCHAR
STARTCHAR 006D
ENCODING 109
SWIDTH 830 0
DWIDTH 30 0
BBX 28 19 1 0
BITMAP
0E3E07E0
0E7F9FF0
0FFFBFF0
1F83F070
1F03E070
1E03C070
1C038070
1C038070
3C0780F0
380700E0
380700E0
380700E0
380700E0
780F01E0
700E01C0
700E01C0
700E01C0
F01E01C0
E01C03C0
ENDCHAR
STARTCHAR 006E
ENCODING 110
SWIDTH 553 0
DWIDTH 20 0
BBX 18 19 1 0
BITMAP
0E3F00
0E7F80
0FFFC0
1F81C0
1F01C0
1E01C0
1C01C0
1C03C0
3C0380
380380
380380
380380
380780
780700
700700
700700
700700
700F00
F00E00
ENDCHAR
STARTCHAR 006F
ENCODING 111
SWIDTH 553 0
DWIDTH 20 0
BBX 18 19 2 0
BITMAP
03F800
07FE00
1F1F00
3C0780
380380
780380
700380
F003C0
E00380
E00380
E00380
E00380
E00780
E00700
F00F00
701E00
783C00
3FF800
1FE000
ENDCHAR
STARTCHAR 0070
ENCODING 112
SWIDTH 553 0
DWIDTH 20 0
BBX 19 26 0 -7
BITMAP
073F00
077F80
07F7C0
0F81E0
0F00E0
0F00E0
0E00E0
0E00E0
1C00E0
1C00E0
1C00E0
1C01E0
3C01C0
3C01C0
3C0380
3E0780
3F0F00
7BFE00
71FC00
700000
700000
700000
F00000
E00000
E00000
E00000
ENDCHAR
STARTCHAR 0071
ENCODING 113
SWIDTH 553 0
DWIDTH 20 0
BBX 18 26 2 -7
BITMAP
03F1C0
0FF9C0
1FFD80
3C0D80
380780
780780
700780
F00700
E00700
E00700
E00700
E00700
E00E00
E00E00
F01E00
F03E00
7C7E00
3FFC00
1F9C00
001C00
001C00
003C00
003800
003800
003800
003800
ENDCHAR
STARTCHAR 0072
ENCODING 114
SWIDTH 332 0
DWIDTH 12 0
BBX 14 19 1 0
BITMAP
0E3C
0EFC
0DF8
1D80
1F00
1E00
1C00
1C00
3C00
3800
3800
3800
3800
7000
7000
7000
7000
7000
E000
ENDCHAR
STARTCHAR 0073
ENCODING 115
SWIDTH 498 0
DWIDTH 18 0
BBX 17 19 1 0
BITMAP
03FC00
07FE00
0F1F00
1E0780
1C0380
1C0380
1E0000
0F8000
07E000
03F800
00FE00
003E00
300F00
F00F00
700700
780E00
7C1E00
3FFC00
0FF800
ENDCHAR
STARTCHAR 0074
ENCODING 116
SWIDTH 276 0
DWIDTH 10 0
BBX 10 25 2 1
BITMAP
0300
0600
0E00
0E00
0E00
1E00
7FC0
FF80
FF80
1C00
3C00
3800
3800
3800
3800
7800
7000
7000
7000
7000
F000
E000
F200
FC00
7C00
ENDCHAR
STARTCHAR 0075
ENCODING 117
SWIDTH 553 0
DWIDTH 20 0
BBX 18 19 2 0
BITMAP
1C01C0
1C01C0
1C03C0
3C0380
380380
380380
380380
380780
780700
700700
700700
700F00
700F00
F00E00
E01E00
F03E00
F8EE00
7FCE00
3F9C00
ENDCHAR
STARTCHAR 0076
ENCODING 118
SWIDTH 498 0
DWIDTH 18 0
BBX 17 19 3 0
BITMAP
E00380
E00700
E00700
E00E00
701E00
701C00
703C00
703800
707000
707000
38E000
38E000
39C000
39C000
3B8000
3B0000
3F0000
1E0000
1E0000
ENDCHAR
STARTCHAR 0077
ENCODING 119
SWIDTH 720 0
DWIDTH 26 0
BBX 25 19 3 0
BITMAP
E01C0380
E03C0700
E03C0700
E07C0E00
E07C0E00
E0EE1E00
F0EE1C00
71CE3C00
71CE3800
738E3800
738E7000
738E7000
770EE000
770EE000
760FC000
7E0FC000
7C0F8000
3C0F8000
38070000
ENDCHAR
STARTCHAR 0078
ENCODING 120
SWIDTH 498 0
DWIDTH 18 0
BBX 19 19 0 0
BITMAP
0E01E0
0F01C0
0703C0
070780
038F00
039E00
01DC00
01F800
00F800
00F000
01F000
03F000
03B800
073800
0F1C00
1E1E00
3C1E00
780F00
F00F00
ENDCHAR
STARTCHAR 0079
ENCODING 121
SWIDTH 498 0
DWIDTH 18 0
BBX 20 27 0 -8
BITMAP
1C0070
1E00F0
0E00E0
0E01C0
0E01C0
0E0380
0E0780
0F0700
070F00
070E00
071E00
071C00
073800
073800
037000
03F000
03E000
03E000
03C000
038000
038000
070000
0F0000
FE0000
FC0000
F80000
200000
ENDCHAR
STARTCHAR 007A
ENCODING 122
SWIDTH 498 0
DWIDTH 18 0
BBX 17 19 1 0
BITMAP
1FFF80
1FFF80
1FFF80
000F00
001E00
003C00
007800
00F000
01F000
03E000
03C000
078000
0F0000
1E0000
3C0000
780000
FFFE00
FFFE00
FFFE00
ENDCHAR
STARTCHAR 007B
ENCODING 123
SWIDTH 332 0
DWIDTH 12 0
BBX 14 34 2 -8
BITMAP
007C
00FC
01F8
01C0
01C0
0380
0380
0380
0380
0700
0700
0700
0E00
0E00
1C00
F800
E000
F000
3800
3C00
1C00
1C00
1800
3800
3800
3800
3800
3000
7000
7000
7800
7E00
3E00
0600
ENDCHAR
STARTCHAR 007C
ENCODING 124
SWIDTH 249 0
DWIDTH 9 0
BBX 3 34 3 -8
BITMAP
E0
E0
E0
E0
E0
E0
E0
E0
E0
E0
E0
E0
E0
E0
E0
E0
E0
E0
E0
E0
E0
E0
E0
E0
E0
E0
E0
E0
E0
E0
E0
E0
E0
E0
ENDCHAR
STARTCHAR 007D
ENCODING 125
SWIDTH 332 0
DWIDTH 12 0
BBX 14 34 -3 -8
BITMAP
01F0
01F0
01F8
0038
0038
0038
0070
0070
0070
0070
0070
0060
00E0
00F0
0070
007C
001C
007C
00F0
01C0
01C0
0380
0380
0380
0380
0700
0700
0700
0700
0E00
1E00
FC00
F800
E000
ENDCHAR
STARTCHAR 007E
ENCODING 126
SWIDTH 581 0
DWIDTH 21 0
BBX 18 6 3 10
BITMAP
080000
7F8040
FFF1C0
FFFFC0
C1FFC0
803F00
ENDCHAR
STARTCHAR 00A0
ENCODING 160
SWIDTH 276 0
DWIDTH 10 0
BBX 0 0 0 0
BITMAP
ENDCHAR
STARTCHAR 00A1
ENCODING 161
SWIDTH 332 0
DWIDTH 12 0
BBX 9 26 2 -7
BITMAP
0780
0780
0780
0700
0000
0000
0000
0600
0600
0E00
0C00
0C00
1C00
1C00
1C00
1C00
3C00
3C00
3800
3800
7800
7800
7800
7000
F000
F000
ENDCHAR
STARTCHAR 00A2
ENCODING 162
SWIDTH 553 0
DWIDTH 20 0
BBX 16 33 3 -7
BITMAP
0006
0006
000E
000C
000C
0018
0018
03F8
0FFC
1FBE
3C6F
3867
78E7
70C0
F0C0
E180
E180
E300
E300
E70E
E61E
E61C
FC3C
7CF8
3FF0
1FC0
1800
3000
3000
7000
6000
E000
C000
ENDCHAR
STARTCHAR 00A3
ENCODING 163
SWIDTH 553 0
DWIDTH 20 0
BBX 21 26 1 0
BITMAP
003F80
00FFE0
01F1F0
03C070
038078
078038
070038
070000
070000
070000
070000
078000
3FF800
3FF800
3FF800
038000
078000
070000
070000
0F0000
1E0000
1C0000
7FC000
FFFFC0
FFFFC0
C03F80
ENDCHAR
STARTCHAR 00A4
ENCODING 164
SWIDTH 553 0
DWIDTH 20 0
BBX 17 17 3 4
BITMAP
600300
F7F780
7FFF00
3FFE00
3C1E00
380F00
700700
700700
700700
700700
780700
380E00
3E3E00
7FFF00
F7FF80
61C300
000100
ENDCHAR
STARTCHAR 00A5
ENCODING 165
SWIDTH 553 0
DWIDTH 20 0
BBX 23 26 1 0
BITMAP
1C001E
0E003C
0E0078
0F0078
0700F0
0701E0
0381C0
0383C0
038780
01CF00
01CE00
01DE00
00FC00
3FFFE0
3FFFE0
007000
00F000
00E000
7FFFC0
FFFFC0
01E000
01C000
01C000
01C000
01C000
03C000
ENDCHAR
STARTCHAR 00A6
ENCODING 166
SWIDTH 249 0
DWIDTH 9 0
BBX 3 34 3 -8
BITMAP
E0
E0
E0
E0
E0
E0
E0
E0
E0
E0
E0
E0
E0
E0
00
00
00
00
00
00
E0
E0
E0
E0
E0
E0
E0
E0
E0
E0
E0
E0
E0
E0
ENDCHAR
STARTCHAR 00A7
ENCODING 167
SWIDTH 553 0
DWIDTH 20 0
BBX 19 34 1 -8
BITMAP
00FF00
01FF80
03E7C0
0381E0
0780E0
0700E0
078000
038000
03C000
03E000
0FF000
1E7800
3C3E00
381F00
380F80
380780
3803C0
3C01C0
1E01C0
0F01C0
07C380
03E780
01FE00
00FC00
003C00
001C00
001E00
E00E00
F00E00
701E00
783C00
3FF800
1FF000
018000
ENDCHAR
STARTCHAR 00A8
ENCODING 168
SWIDTH 332 0
DWIDTH 12 0
BBX 11 3 4 22
BITMAP
71E0
71C0
F1C0
ENDCHAR
STARTCHAR 00A9
ENCODING 169
SWIDTH 747 0
DWIDTH 27 0
BBX 27 26 1 0
BITMAP
007FC000
01FFF000
03C07C00
0F001E00
0E000700
1C000380
383FC180
307FE1C0
70E070C0
61C070E0
61C00060
61800060
E1800060
E1800060
61800060
61C02060
61C030E0
70E070C0
307BE1C0
383FC180
1C060380
1E000700
0F000E00
03C07C00
01FFF000
007FC000
ENDCHAR
STARTCHAR 00AA
ENCODING 170
SWIDTH 360 0
DWIDTH 13 0
BBX 12 13 3 13
BITMAP
0FC0
1FE0
3870
7070
0070
0FE0
7FE0
F0E0
E0E0
E1E0
E3C0
7FC0
3CE0
ENDCHAR
STARTCHAR 00AB
ENCODING 171
SWIDTH 553 0
DWIDTH 20 0
BBX 16 16 3 1
BITMAP
0387
070E
0E1C
1C38
3C78
38F0
70E0
E1C0
E1C0
70E0
70E0
3860
3870
1870
1C30
1C38
ENDCHAR
STARTCHAR 00AC
ENCODING 172
SWIDTH 581 0
DWIDTH 21 0
BBX 17 11 3 7
BITMAP
FFFF80
FFFF80
FFFF80
000380
000380
000380
000380
000380
000380
000380
000380
ENDCHAR
STARTCHAR 00AD
ENCODING 173
SWIDTH 332 0
DWIDTH 12 0
BBX 10 3 2 8
BITMAP
FFC0
FFC0
FFC0
ENDCHAR
STARTCHAR 00AE
ENCODING 174
SWIDTH 747 0
DWIDTH 27 0
BBX 27 26 1 0
BITMAP
007FC000
01FFF000
03C07C00
0F001E00
0E000700
1C000380
38FF8180
30FFC1C0
70C0E0C0
60C0E0E0
60C06060
60C0E060
E0FFC060
E0FF8060
60C70060
60C38060
60C1C0E0
70C0C0C0
30C0E1C0
38C06180
1C000380
1E000700
0F000E00
03C07C00
01FFF000
007FC000
ENDCHAR
STARTCHAR 00AF
ENCODING 175
SWIDTH 553 0
DWIDTH 20 0
BBX 21 2 3 28
BITMAP
FFFFF8
FFFFF8
ENDCHAR
STARTCHAR 00B0
ENCODING 176
SWIDTH 387 0
DWIDTH 14 0
BBX 10 9 5 17
BITMAP
3E00
7F80
E180
C1C0
C0C0
C0C0
C180
7780
3F00
ENDCHAR
STARTCHAR 00B1
ENCODING 177
SWIDTH 553 0
DWIDTH 20 0
BBX 17 22 2 0
BITMAP
01C000
01C000
01C000
01C000
01C000
01C000
01C000
FFFF80
FFFF80
FFFF80
01C000
01C000
01C000
01C000
01C000
01C000
01C000
000000
000000
FFFF80
FFFF80
FFFF80
ENDCHAR
STARTCHAR 00B2
ENCODING 178
SWIDTH 332 0
DWIDTH 12 0
BBX 11 13 3 13
BITMAP
1FC0
3FE0
78E0
7060
0060
00E0
03C0
0F80
1E00
3C00
7000
FFC0
FFC0
ENDCHAR
STARTCHAR 00B3
ENCODING 179
SWIDTH 332 0
DWIDTH 12 0
BBX 11 13 3 13
BITMAP
0FC0
3FE0
38E0
0060
00E0
07C0
0780
03C0
00E0
60E0
E0E0
7FC0
3F80
ENDCHAR
STARTCHAR 00B4
ENCODING 180
SWIDTH 332 0
DWIDTH 12 0
BBX 7 5 6 21
BITMAP
1E
3C
38
70
E0
ENDCHAR
STARTCHAR 00B5
ENCODING 181
SWIDTH 581 0
DWIDTH 21 0
BBX 21 26 0 -7
BITMAP
038078
078070
070070
070070
070070
0700F0
0F00E0
0E00E0
0E00E0
0E00E0
0E01C0
1E01C0
1C01C0
1C01C0
1C03C0
3E0780
3F1F80
3FFF80
39FB80
380000
780000
700000
700000
700000
700000
F00000
ENDCHAR
STARTCHAR 00B6
ENCODING 182
SWIDTH 526 0
DWIDTH 19 0
BBX 19 33 3 -7
BITMAP
07FFE0
1FFFE0
7FFFE0
7FC700
FFC700
FFC700
FFC700
FFC700
FFC700
FFC700
FFC700
7FC700
7FC700
3FC700
07C700
01C700
01C700
01C700
01C700
01C700
01C700
01C700
01C700
01C700
01C700
01C700
01C700
01C700
01C700
01C700
01C700
01C700
01C700
ENDCHAR
STARTCHAR 00B7
ENCODING 183
SWIDTH 276 0
DWIDTH 10 0
BBX 4 4 3 11
BITMAP
F0
F0
F0
F0
ENDCHAR
STARTCHAR 00B8
ENCODING 184
SWIDTH 332 0
DWIDTH 12 0
BBX 9 7 1 -7
BITMAP
0C00
0E00
1F80
0380
0380
7F80
FF00
ENDCHAR
STARTCHAR 00B9
ENCODING 185
SWIDTH 332 0
DWIDTH 12 0
BBX 8 13 5 13
BITMAP
07
0E
3E
FE
EE
0E
0C
0C
1C
1C
1C
18
18
ENDCHAR
STARTCHAR 00BA
ENCODING 186
SWIDTH 360 0
DWIDTH 13 0
BBX 12 13 3 13
BITMAP
1F80
3FE0
78E0
E070
E070
C070
C070
C070
C0E0
E0E0
F3C0
7F80
1F00
ENDCHAR
STARTCHAR 00BB
ENCODING 187
SWIDTH 553 0
DWIDTH 20 0
BBX 16 16 2 1
BITMAP
0C38
0E18
0E1C
061C
070E
070E
078E
0387
078F
070E
0E1C
1C38
3870
70E0
E0C0
E180
ENDCHAR
STARTCHAR 00BC
ENCODING 188
SWIDTH 830 0
DWIDTH 30 0
BBX 26 27 4 -1
BITMAP
038001C0
07000380
1F000700
7F000E00
77001C00
07003800
06003800
06007000
0E00E000
0E01C000
0E038000
0C070000
0C0E0000
001C0180
00380380
00700780
00600F80
00E01F00
01C03B00
03807300
0700E700
0E03C700
1C03FF80
3803FF80
70000E00
E0000E00
C0000E00
ENDCHAR
STARTCHAR 00BD
ENCODING 189
SWIDTH 830 0
DWIDTH 30 0
BBX 27 27 3 -1
BITMAP
01C001C0
03800380
0F800700
3F800E00
3B801E00
03801C00
03003800
03007000
0700E000
0701C000
07038000
06070000
060E0000
001C0600
00383FC0
00387FC0
007060E0
00E000E0
01C000E0
038003C0
07000F80
0E001E00
1C003C00
38007000
7000FFC0
6001FFC0
E001FF80
ENDCHAR
STARTCHAR 00BE
ENCODING 190
SWIDTH 830 0
DWIDTH 30 0
BBX 28 27 3 -1
BITMAP
0FC000F0
3FE000E0
38E001C0
00600380
00E00700
07C00E00
07801C00
03C03800
00E07000
60E0E000
E0E1C000
7FC1C000
3F838000
000700C0
000E01C0
001C03C0
003807C0
00700F80
00E01D80
01C03980
03807380
0301E380
0701FFC0
0E01FFC0
1C000700
38000700
70000700
ENDCHAR
STARTCHAR 00BF
ENCODING 191
SWIDTH 609 0
DWIDTH 22 0
BBX 16 27 3 -8
BITMAP
001C
003C
003C
003C
0000
0000
0000
0038
0070
0070
00F0
01E0
03C0
0F80
1F00
3C00
7800
7000
F000
E00F
E00E
E00E
F01E
783C
3FF8
1FF0
0100
ENDCHAR
STARTCHAR 00C0
ENCODING 192
SWIDTH 664 0
DWIDTH 24 0
BBX 22 32 0 0
BITMAP
0001C0
0001E0
0000E0
000070
000070
000000
0003C0
0007C0
0007C0
000EE0
001EE0
001CE0
003CE0
0038E0
0078E0
0070F0
00F0F0
01E070
01E070
03C070
038070
078078
07FFF8
0FFFF8
0FFFF8
1E0038
3C0038
3C003C
78003C
70003C
F0001C
E0001C
ENDCHAR
STARTCHAR 00C1
ENCODING 193
SWIDTH 664 0
DWIDTH 24 0
BBX 22 32 0 0
BITMAP
000078
0000E0
0001C0
0001C0
000380
000000
0003C0
0007C0
0007C0
000EE0
001EE0
001CE0
003CE0
0038E0
0078E0
0070F0
00F0F0
01E070
01E070
03C070
038070
078078
07FFF8
0FFFF8
0FFFF8
1E0038
3C0038
3C003C
78003C
70003C
F0001C
E0001C
ENDCHAR
STARTCHAR 00C2
ENCODING 194
SWIDTH 664 0
DWIDTH 24 0
BBX 22 32 0 0
BITMAP
0003E0
0007F0
000F70
000E30
001C38
000000
0003C0
0007C0
0007C0
000EE0
001EE0
001CE0
003CE0
0038E0
0078E0
0070F0
00F0F0
01E070
01E070
03C070
038070
078078
07FFF8
0FFFF8
0FFFF8
1E0038
3C0038
3C003C
78003C
70003C
F0001C
E0001C
ENDCHAR
STARTCHAR 00C3
ENCODING 195
SWIDTH 664 0
DWIDTH 24 0
BBX 22 31 0 0
BITMAP
000F8C
001FFC
0019F8
003020
000000
0003C0
0007C0
0007C0
000EE0
001EE0
001CE0
003CE0
0038E0
0078E0
0070F0
00F0F0
01E070
01E070
03C070
038070
078078
07FFF8
0FFFF8
0FFFF8
1E0038
3C0038
3C003C
78003C
70003C
F0001C
E0001C
ENDCHAR
STARTCHAR 00C4
ENCODING 196
SWIDTH 664 0
DWIDTH 24 0
BBX 22 31 0 0
BITMAP
000E38
001E38
001C38
001C78
000000
0003C0
0007C0
0007C0
000EE0
001EE0
001CE0
003CE0
0038E0
0078E0
0070F0
00F0F0
01E070
01E070
03C070
038070
078078
07FFF8
0FFFF8
0FFFF8
1E0038
3C0038
3C003C
78003C
70003C
F0001C
E0001C
ENDCHAR
STARTCHAR 00C5
ENCODING 197
SWIDTH 664 0
DWIDTH 24 0
BBX 22 31 0 0
BITMAP
0001C0
000260
000630
000630
000220
0003C0
0007C0
0007C0
000EE0
001EE0
001CE0
003CE0
0038E0
0078E0
0070F0
00F0F0
01E070
01E070
03C070
038070
078078
07FFF8
0FFFF8
0FFFF8
1E0038
3C0038
3C003C
78003C
70003C
F0001C
E0001C
ENDCHAR
STARTCHAR 00C6
ENCODING 198
SWIDTH 996 0
DWIDTH 36 0
BBX 39 26 -1 0
BITMAP
0001FFFFFE
0001FFFFFC
0003FFFFFC
0007878000
0007870000
000F070000
000E0F0000
001E0F0000
003C0F0000
00380E0000
00780E0000
00F01FFFF0
00F01FFFF0
01E01FFFF0
01C01C0000
03C01C0000
07FFFC0000
07FFFC0000
0FFFFC0000
0E00380000
1E00780000
3C00780000
3C00780000
78007FFFE0
F0007FFFE0
F000FFFFE0
ENDCHAR
STARTCHAR 00C7
ENCODING 199
SWIDTH 720 0
DWIDTH 26 0
BBX 23 34 3 -8
BITMAP
007FC0
01FFF0
03FFF8
07C07C
0F001C
1E001E
1C000E
3C000E
380000
780000
700000
700000
F00000
F00000
F00000
F00000
F00000
F0001C
70003C
700038
780078
3C00F0
3E01E0
1FDFC0
0FFF80
03FE00
01C000
01C000
01F000
007800
003800
0FF000
0FF000
070000
ENDCHAR
STARTCHAR 00C8
ENCODING 200
SWIDTH 664 0
DWIDTH 24 0
BBX 24 32 2 0
BITMAP
000780
000380
0001C0
0001C0
0000E0
000000
07FFFF
07FFFE
07FFFE
0F0000
0F0000
0E0000
0E0000
1E0000
1E0000
1E0000
1C0000
1FFFF8
3FFFF8
3FFFF8
380000
380000
380000
780000
780000
700000
700000
700000
F00000
FFFFF0
FFFFF0
FFFFE0
ENDCHAR
STARTCHAR 00C9
ENCODING 201
SWIDTH 664 0
DWIDTH 24 0
BBX 24 32 2 0
BITMAP
0003C0
000780
000700
000E00
001C00
000000
07FFFF
07FFFE
07FFFE
0F0000
0F0000
0E0000
0E0000
1E0000
1E0000
1E0000
1C0000
1FFFF8
3FFFF8
3FFFF8
380000
380000
380000
780000
780000
700000
700000
700000
F00000
FFFFF0
FFFFF0
FFFFE0
ENDCHAR
STARTCHAR 00CA
ENCODING 202
SWIDTH 664 0
DWIDTH 24 0
BBX 24 32 2 0
BITMAP
000780
000FC0
001DC0
0038E0
0070E0
000000
07FFFF
07FFFE
07FFFE
0F0000
0F0000
0E0000
0E0000
1E0000
1E0000
1E0000
1C0000
1FFFF8
3FFFF8
3FFFF8
380000
380000
380000
780000
780000
700000
700000
700000
F00000
FFFFF0
FFFFF0
FFFFE0
ENDCHAR
STARTCHAR 00CB
ENCODING 203
SWIDTH 664 0
DWIDTH 24 0
BBX 24 31 2 0
BITMAP
003C70
003870
0038F0
0038E0
000000
07FFFF
07FFFE
07FFFE
0F0000
0F0000
0E0000
0E0000
1E0000
1E0000
1E0000
1C0000
1FFFF8
3FFFF8
3FFFF8
380000
380000
380000
780000
780000
700000
700000
700000
F00000
FFFFF0
FFFFF0
FFFFE0
ENDCHAR
STARTCHAR 00CC
ENCODING 204
SWIDTH 276 0
DWIDTH 10 0
BBX 10 32 2 0
BITMAP
0780
0380
0380
01C0
00C0
0000
0780
0780
0700
0700
0700
0F00
0F00
0E00
0E00
0E00
1E00
1E00
1C00
1C00
3C00
3C00
3C00
3800
3800
7800
7800
7000
7000
7000
F000
F000
ENDCHAR
STARTCHAR 00CD
ENCODING 205
SWIDTH 276 0
DWIDTH 10 0
BBX 12 32 2 0
BITMAP
01F0
01C0
0380
0700
0600
0000
0780
0780
0700
0700
0700
0F00
0F00
0E00
0E00
0E00
1E00
1E00
1C00
1C00
3C00
3C00
3C00
3800
3800
7800
7800
7000
7000
7000
F000
F000
ENDCHAR
STARTCHAR 00CE
ENCODING 206
SWIDTH 276 0
DWIDTH 10 0
BBX 13 32 2 0
BITMAP
03E0
0760
0F70
1E70
3C38
0000
0780
0780
0700
0700
0700
0F00
0F00
0E00
0E00
0E00
1E00
1E00
1C00
1C00
3C00
3C00
3C00
3800
3800
7800
7800
7000
7000
7000
F000
F000
ENDCHAR
STARTCHAR 00CF
ENCODING 207
SWIDTH 276 0
DWIDTH 10 0
BBX 13 31 2 0
BITMAP
1C78
1C78
1C70
3C70
0000
0780
0780
0700
0700
0700
0F00
0F00
0E00
0E00
0E00
1E00
1E00
1C00
1C00
3C00
3C00
3C00
3800
3800
7800
7800
7000
7000
7000
F000
F000
ENDCHAR
STARTCHAR 00D0
ENCODING 208
SWIDTH 720 0
DWIDTH 26 0
BBX 24 26 2 0
BITMAP
07FF80
07FFF0
07FFF8
07007C
0F003E
0F001E
0E000E
0E000F
0E000F
1E000F
1E000F
1C000F
FFF80F
FFF80F
3C000F
3C000E
38001E
38001E
78003C
78003C
780078
7001F0
7007E0
FFFFC0
FFFF80
FFFC00
ENDCHAR
STARTCHAR 00D1
ENCODING 209
SWIDTH 720 0
DWIDTH 26 0
BBX 25 31 2 0
BITMAP
001F1800
003FF800
0031F800
00302000
00000000
07800380
07800380
07C00780
0FC00780
0EC00700
0EE00700
0EE00700
0E700F00
1E700F00
1E780E00
1C380E00
1C3C0E00
1C1C1E00
3C1E1E00
3C0E1C00
380E1C00
380F1C00
38073C00
7807BC00
7003B800
7003B800
7001B800
F001F800
F001F000
E000F000
E000F000
ENDCHAR
STARTCHAR 00D2
ENCODING 210
SWIDTH 775 0
DWIDTH 28 0
BBX 25 32 3 0
BITMAP
000F0000
00078000
00038000
00018000
0001C000
00000000
003FC000
01FFF000
03FFFC00
07C03C00
0F001E00
1E000F00
3C000F00
3C000700
78000780
78000780
70000780
70000780
F0000780
F0000780
F0000780
F0000700
F0000F00
70000F00
70001E00
78001E00
78003C00
3C007800
1E01F000
0FEFE000
07FFC000
01FF0000
ENDCHAR
STARTCHAR 00D3
ENCODING 211
SWIDTH 775 0
DWIDTH 28 0
BBX 25 32 3 0
BITMAP
0003C000
00038000
00070000
000E0000
000C0000
00000000
003FC000
01FFF000
03FFFC00
07C03C00
0F001E00
1E000F00
3C000F00
3C000700
78000780
78000780
70000780
70000780
F0000780
F0000780
F0000780
F0000700
F0000F00
70000F00
70001E00
78001E00
78003C00
3C007800
1E01F000
0FEFE000
07FFC000
01FF0000
ENDCHAR
STARTCHAR 00D4
ENCODING 212
SWIDTH 775 0
DWIDTH 28 0
BBX 25 32 3 0
BITMAP
00078000
000FC000
001DC000
0038E000
0070E000
00000000
003FC000
01FFF000
03FFFC00
07C03C00
0F001E00
1E000F00
3C000F00
3C000700
78000780
78000780
70000780
70000780
F0000780
F0000780
F0000780
F0000700
F0000F00
70000F00
70001E00
78001E00
78003C00
3C007800
1E01F000
0FEFE000
07FFC000
01FF0000
ENDCHAR
STARTCHAR 00D5
ENCODING 213
SWIDTH 775 0
DWIDTH 28 0
BBX 25 31 3 0
BITMAP
003E3000
007FF000
0067E000
00E08000
00000000
003FC000
01FFF000
03FFFC00
07C03C00
0F001E00
1E000F00
3C000F00
3C000700
78000780
78000780
70000780
70000780
F0000780
F0000780
F0000780
F0000700
F0000F00
70000F00
70001E00
78001E00
78003C00
3C007800
1E01F000
0FEFE000
07FFC000
01FF0000
ENDCHAR
STARTCHAR 00D6
ENCODING 214
SWIDTH 775 0
DWIDTH 28 0
BBX 25 31 3 0
BITMAP
0038F000
0078E000
0078E000
0070E000
00000000
003FC000
01FFF000
03FFFC00
07C03C00
0F001E00
1E000F00
3C000F00
3C000700
78000780
78000780
70000780
70000780
F0000780
F0000780
F0000780
F0000700
F0000F00
70000F00
70001E00
78001E00
78003C00
3C007800
1E01F000
0FEFE000
07FFC000
01FF0000
ENDCHAR
STARTCHAR 00D7
ENCODING 215
SWIDTH 581 0
DWIDTH 21 0
BBX 15 15 5 5
BITMAP
600C
F01E
F83C
7C78
3EF0
1FE0
0FC0
07C0
0FE0
1FF0
3CF8
787C
F03E
E01C
4008
ENDCHAR
STARTCHAR 00D8
ENCODING 216
SWIDTH 775 0
DWIDTH 28 0
BBX 25 30 3 -2
BITMAP
00000100
00000180
007FC300
01FFF700
03FFFE00
07C07C00
0F003E00
1E003F00
3C006F00
3C00E700
3801C780
78038780
70070780
70060780
F00C0780
F01C0780
F0380780
F0700700
F0E00F00
70C00F00
71801E00
7B801E00
7F003C00
3E007800
1F01F000
1FEFE000
37FFC000
73FF0000
E0000000
40000000
ENDCHAR
STARTCHAR 00D9
ENCODING 217
SWIDTH 720 0
DWIDTH 26 0
BBX 23 32 4 0
BITMAP
001E00
000E00
000E00
000700
000300
000000
1E000E
1C001E
1C001E
3C001E
3C001C
38001C
38003C
38003C
78003C
780038
700038
700078
700078
F00070
F00070
E00070
E000F0
E000F0
E000E0
E001E0
E001C0
F003C0
F80780
7F7F00
3FFE00
0FF800
ENDCHAR
STARTCHAR 00DA
ENCODING 218
SWIDTH 720 0
DWIDTH 26 0
BBX 23 32 4 0
BITMAP
000780
000F00
000E00
001C00
003800
000000
1E000E
1C001E
1C001E
3C001E
3C001C
38001C
38003C
38003C
78003C
780038
700038
700078
700078
F00070
F00070
E00070
E000F0
E000F0
E000E0
E001E0
E001C0
F003C0
F80780
7F7F00
3FFE00
0FF800
ENDCHAR
STARTCHAR 00DB
ENCODING 219
SWIDTH 720 0
DWIDTH 26 0
BBX 23 32 4 0
BITMAP
000F00
001F80
003980
0071C0
00E1C0
000000
1E000E
1C001E
1C001E
3C001E
3C001C
38001C
38003C
38003C
78003C
780038
700038
700078
700078
F00070
F00070
E00070
E000F0
E000F0
E000E0
E001E0
E001C0
F003C0
F80780
7F7F00
3FFE00
0FF800
ENDCHAR
STARTCHAR 00DC
ENCODING 220
SWIDTH 720 0
DWIDTH 26 0
BBX 23 31 4 0
BITMAP
0070E0
0071E0
0071C0
00F1C0
000000
1E000E
1C001E
1C001E
3C001E
3C001C
38001C
38003C
38003C
78003C
780038
700038
700078
700078
F00070
F00070
E00070
E000F0
E000F0
E000E0
E001E0
E001C0
F003C0
F80780
7F7F00
3FFE00
0FF800
ENDCHAR
STARTCHAR 00DD
ENCODING 221
SWIDTH 664 0
DWIDTH 24 0
BBX 24 32 4 0
BITMAP
000F00
001E00
001C00
003800
007000
000000
F0001F
78001E
78003C
3C0078
3C00F8
1E00F0
1E01E0
0F03C0
0F07C0
078F80
078F00
03DE00
03FC00
01FC00
01F800
00F000
00F000
00E000
00E000
01E000
01E000
01C000
01C000
01C000
03C000
03C000
ENDCHAR
STARTCHAR 00DE
ENCODING 222
SWIDTH 664 0
DWIDTH 24 0
BBX 22 26 2 0
BITMAP
070000
070000
070000
0F0000
0F0000
0FFF00
0FFFF0
1FFFF8
1E00F8
1E003C
1C001C
1C001C
3C001C
3C003C
38003C
380078
3800F8
7803F0
7FFFE0
7FFF80
7FFC00
F00000
F00000
F00000
E00000
E00000
ENDCHAR
STARTCHAR 00DF
ENCODING 223
SWIDTH 609 0
DWIDTH 22 0
BBX 19 26 1 0
BITMAP
007F80
00FFC0
03E3E0
0381E0
0700E0
0701E0
0F01C0
0E0380
0E0780
0E0F00
0E0E00
1E1E00
1C1E00
1C1E00
1C0F00
3C0780
3803C0
3801E0
3801E0
3800E0
7800E0
7080E0
73C1E0
71E3C0
70FFC0
F07F00
ENDCHAR
STARTCHAR 00E0
ENCODING 224
SWIDTH 553 0
DWIDTH 20 0
BBX 17 26 2 0
BITMAP
00F000
007800
003800
003800
001C00
000000
000000
03FC00
0FFE00
1FFF00
3C0780
380380
780380
000380
000780
0FFF00
3FFF00
7E0700
F00700
E00F00
E00E00
E01E00
E03E00
F07E00
7FEE00
3F8E00
ENDCHAR
STARTCHAR 00E1
ENCODING 225
SWIDTH 553 0
DWIDTH 20 0
BBX 17 26 2 0
BITMAP
001E00
003C00
007800
007000
00E000
000000
000000
03FC00
0FFE00
1FFF00
3C0780
380380
780380
000380
000780
0FFF00
3FFF00
7E0700
F00700
E00F00
E00E00
E01E00
E03E00
F07E00
7FEE00
3F8E00
ENDCHAR
STARTCHAR 00E2
ENCODING 226
SWIDTH 553 0
DWIDTH 20 0
BBX 17 26 2 0
BITMAP
003C00
007C00
00EE00
01C600
038700
000000
000000
03FC00
0FFE00
1FFF00
3C0780
380380
780380
000380
000780
0FFF00
3FFF00
7E0700
F00700
E00F00
E00E00
E01E00
E03E00
F07E00
7FEE00
3F8E00
ENDCHAR
STARTCHAR 00E3
ENCODING 227
SWIDTH 553 0
DWIDTH 20 0
BBX 17 25 2 1
BITMAP
01F980
03FF80
031F00
000000
000000
000000
03FC00
0FFE00
1FFF00
3C0780
380380
780380
000380
000780
0FFF00
3FFF00
7E0700
F00700
E00F00
E00E00
E01E00
E03E00
F07E00
7FEE00
3F8E00
ENDCHAR
STARTCHAR 00E4
ENCODING 228
SWIDTH 553 0
DWIDTH 20 0
BBX 17 25 2 0
BITMAP
03C700
03C700
038700
000000
000000
000000
03FC00
0FFE00
1FFF00
3C0780
380380
780380
000380
000780
0FFF00
3FFF00
7E0700
F00700
E00F00
E00E00
E01E00
E03E00
F07E00
7FEE00
3F8E00
ENDCHAR
STARTCHAR 00E5
ENCODING 229
SWIDTH 553 0
DWIDTH 20 0
BBX 17 26 2 0
BITMAP
007800
008C00
008400
008400
00CC00
007000
000000
03FC00
0FFE00
1FFF00
3C0780
380380
780380
000380
000780
0FFF00
3FFF00
7E0700
F00700
E00F00
E00E00
E01E00
E03E00
F07E00
7FEE00
3F8E00
ENDCHAR
STARTCHAR 00E6
ENCODING 230
SWIDTH 886 0
DWIDTH 32 0
BBX 29 19 2 0
BITMAP
03F83F80
0FFE7FE0
1F1FF9F0
3C07E070
3807C038
78078038
00078038
000F0038
0FFFFFF8
3FFFFFF8
7E0E0000
F00E0000
E00E0000
E01F0070
E01F00E0
E03701E0
F0F7C7C0
7FE3FF80
3F80FE00
ENDCHAR
STARTCHAR 00E7
ENCODING 231
SWIDTH 498 0
DWIDTH 18 0
BBX 16 26 2 -7
BITMAP
01F8
07FE
1FFF
1E0F
3C07
7807
7000
7000
F000
F000
E000
E000
E00E
E00E
F01C
703C
7878
3FF0
1FE0
0600
0F80
03C0
01C0
01C0
7FC0
7F00
ENDCHAR
STARTCHAR 00E8
ENCODING 232
SWIDTH 553 0
DWIDTH 20 0
BBX 17 26 2 0
BITMAP
00F000
007800
003800
003800
001C00
000000
000000
01F800
07FE00
1F9F00
1E0700
380380
780380
700380
700380
FFFF80
FFFF80
E00000
E00000
E00000
E00700
F00E00
701E00
7C7C00
3FF800
1FE000
ENDCHAR
STARTCHAR 00E9
ENCODING 233
SWIDTH 553 0
DWIDTH 20 0
BBX 17 26 2 0
BITMAP
001E00
003C00
003800
007000
00E000
000000
000000
01F800
07FE00
1F9F00
1E0700
380380
780380
700380
700380
FFFF80
FFFF80
E00000
E00000
E00000
E00700
F00E00
701E00
7C7C00
3FF800
1FE000
ENDCHAR
STARTCHAR 00EA
ENCODING 234
SWIDTH 553 0
DWIDTH 20 0
BBX 17 26 2 0
BITMAP
003C00
007E00
00EE00
01E700
03C700
000000
000000
01F800
07FE00
1F9F00
1E0700
380380
780380
700380
700380
FFFF80
FFFF80
E00000
E00000
E00000
E00700
F00E00
701E00
7C7C00
3FF800
1FE000
ENDCHAR
STARTCHAR 00EB
ENCODING 235
SWIDTH 553 0
DWIDTH 20 0
BBX 17 25 2 0
BITMAP
03C700
03C700
038700
000000
000000
000000
01F800
07FE00
1F9F00
1E0700
380380
780380
700380
700380
FFFF80
FFFF80
E00000
E00000
E00000
E00700
F00E00
701E00
7C7C00
3FF800
1FE000
ENDCHAR
STARTCHAR 00EC
ENCODING 236
SWIDTH 276 0
DWIDTH 10 0
BBX 9 26 2 0
BITMAP
0E00
0F00
0700
0380
0380
0000
0000
0E00
0E00
0E00
1E00
1C00
1C00
1C00
1C00
3C00
3800
3800
3800
3800
7800
7000
7000
7000
7000
F000
ENDCHAR
STARTCHAR 00ED
ENCODING 237
SWIDTH 276 0
DWIDTH 10 0
BBX 10 26 2 0
BITMAP
03C0
0380
0700
0E00
0C00
0000
0000
0E00
0E00
0E00
1E00
1C00
1C00
1C00
1C00
3C00
3800
3800
3800
3800
7800
7000
7000
7000
7000
F000
ENDCHAR
STARTCHAR 00EE
ENCODING 238
SWIDTH 276 0
DWIDTH 10 0
BBX 11 26 2 0
BITMAP
0780
0FC0
1DC0
38C0
70E0
0000
0000
0E00
0E00
0E00
1E00
1C00
1C00
1C00
1C00
3C00
3800
3800
3800
3800
7800
7000
7000
7000
7000
F000
ENDCHAR
STARTCHAR 00EF
ENCODING 239
SWIDTH 276 0
DWIDTH 10 0
BBX 11 25 2 0
BITMAP
38E0
78E0
78E0
0000
0000
0000
0E00
0E00
0E00
1E00
1C00
1C00
1C00
1C00
3C00
3800
3800
3800
3800
7800
7000
7000
7000
7000
F000
ENDCHAR
STARTCHAR 00F0
ENCODING 240
SWIDTH 553 0
DWIDTH 20 0
BBX 18 26 2 0
BITMAP
007880
003F80
001F00
007E00
00FF00
00C700
000780
00E380
07FB80
0FFF80
1E0FC0
3C07C0
7803C0
7003C0
F003C0
F003C0
E00380
E00380
E00380
E00780
E00700
F00F00
701E00
7C7C00
3FF800
1FF000
ENDCHAR
STARTCHAR 00F1
ENCODING 241
SWIDTH 553 0
DWIDTH 20 0
BBX 18 25 1 1
BITMAP
00F8C0
01FFC0
018F80
000000
000000
000000
0E3F00
0E7F80
0FFFC0
1F81C0
1F01C0
1E01C0
1C01C0
1C03C0
3C0380
380380
380380
380380
380780
780700
700700
700700
700700
700F00
F00E00
ENDCHAR
STARTCHAR 00F2
ENCODING 242
SWIDTH 553 0
DWIDTH 20 0
BBX 18 26 2 0
BITMAP
00F000
007800
003800
001800
001C00
000000
000000
03F800
07FE00
1F1F00
3C0780
380380
780380
700380
F003C0
E00380
E00380
E00380
E00380
E00780
E00700
F00F00
701E00
783C00
3FF800
1FE000
ENDCHAR
STARTCHAR 00F3
ENCODING 243
SWIDTH 553 0
DWIDTH 20 0
BBX 18 26 2 0
BITMAP
001C00
003800
007800
00F000
00E000
000000
000000
03F800
07FE00
1F1F00
3C0780
380380
780380
700380
F003C0
E00380
E00380
E00380
E00380
E00780
E00700
F00F00
701E00
783C00
3FF800
1FE000
ENDCHAR
STARTCHAR 00F4
ENCODING 244
SWIDTH 553 0
DWIDTH 20 0
BBX 18 26 2 0
BITMAP
003C00
007C00
00EE00
01CE00
038600
000000
000000
03F800
07FE00
1F1F00
3C0780
380380
780380
700380
F003C0
E00380
E00380
E00380
E00380
E00780
E00700
F00F00
701E00
783C00
3FF800
1FE000
ENDCHAR
STARTCHAR 00F5
ENCODING 245
SWIDTH 553 0
DWIDTH 20 0
BBX 18 25 2 1
BITMAP
03F380
03FF00
063F00
000000
000000
000000
03F800
07FE00
1F1F00
3C0780
380380
780380
700380
F003C0
E00380
E00380
E00380
E00380
E00780
E00700
F00F00
701E00
783C00
3FF800
1FE000
ENDCHAR
STARTCHAR 00F6
ENCODING 246
SWIDTH 553 0
DWIDTH 20 0
BBX 18 25 2 0
BITMAP
038700
038F00
038F00
000000
000000
000000
03F800
07FE00
1F1F00
3C0780
380380
780380
700380
F003C0
E00380
E00380
E00380
E00380
E00780
E00700
F00F00
701E00
783C00
3FF800
1FE000
ENDCHAR
STARTCHAR 00F7
ENCODING 247
SWIDTH 553 0
DWIDTH 20 0
BBX 17 14 2 6
BITMAP
01E000
01E000
01E000
01E000
000000
000000
FFFF80
FFFF80
FFFF80
000000
000000
01E000
01E000
01E000
ENDCHAR
STARTCHAR 00F8
ENCODING 248
SWIDTH 609 0
DWIDTH 22 0
BBX 18 22 3 -2
BITMAP
0000C0
01FDC0
07FF80
0F9F00
1E0780
3C0F80
781F80
703BC0
7071C0
F061C0
E0C3C0
E1C380
E38380
E70780
E60700
FC0F00
7C1E00
7C3C00
7FF800
6FF000
C00000
400000
ENDCHAR
STARTCHAR 00F9
ENCODING 249
SWIDTH 553 0
DWIDTH 20 0
BBX 18 26 2 0
BITMAP
00F000
007800
003800
001800
001C00
000000
000000
1C01C0
1C01C0
1C03C0
3C0380
380380
380380
380380
380780
780700
700700
700700
700F00
700F00
F00E00
E01E00
F03E00
F8EE00
7FCE00
3F9C00
ENDCHAR
STARTCHAR 00FA
ENCODING 250
SWIDTH 553 0
DWIDTH 20 0
BBX 18 26 2 0
BITMAP
001E00
001C00
003800
007000
006000
000000
000000
1C01C0
1C01C0
1C03C0
3C0380
380380
380380
380380
380780
780700
700700
700700
700F00
700F00
F00E00
E01E00
F03E00
F8EE00
7FCE00
3F9C00
ENDCHAR
STARTCHAR 00FB
ENCODING 251
SWIDTH 553 0
DWIDTH 20 0
BBX 18 26 2 0
BITMAP
003C00
007C00
00EE00
01CE00
038700
000000
000000
1C01C0
1C01C0
1C03C0
3C0380
380380
380380
380380
380780
780700
700700
700700
700F00
700F00
F00E00
E01E00
F03E00
F8EE00
7FCE00
3F9C00
ENDCHAR
STARTCHAR 00FC
ENCODING 252
SWIDTH 553 0
DWIDTH 20 0
BBX 18 25 2 0
BITMAP
01C700
03C700
038700
000000
000000
000000
1C01C0
1C01C0
1C03C0
3C0380
380380
380380
380380
380780
780700
700700
700700
700F00
700F00
F00E00
E01E00
F03E00
F8EE00
7FCE00
3F9C00
ENDCHAR
STARTCHAR 00FD
ENCODING 253
SWIDTH 498 0
DWIDTH 18 0
BBX 20 34 0 -8
BITMAP
000F00
000E00
001C00
003800
003000
000000
000000
1C0070
1E00F0
0E00E0
0E01C0
0E01C0
0E0380
0E0780
0F0700
070F00
070E00
071E00
071C00
073800
073800
037000
03F000
03E000
03E000
03C000
038000
038000
070000
0F0000
FE0000
FC0000
F80000
200000
ENDCHAR
STARTCHAR 00FE
ENCODING 254
SWIDTH 553 0
DWIDTH 20 0
BBX 19 33 0 -7
BITMAP
03C000
038000
038000
038000
038000
078000
070000
073F00
077F80
07F7C0
0F81E0
0F00E0
0F00E0
0E00E0
0E00E0
1C00E0
1C00E0
1C00E0
1C01E0
3C01C0
3C01C0
3C0380
3E0780
3F0F00
7BFE00
71FC00
700000
700000
700000
F00000
E00000
E00000
E00000
ENDCHAR
STARTCHAR 00FF
ENCODING 255
SWIDTH 498 0
DWIDTH 18 0
BBX 20 33 0 -8
BITMAP
00E3C0
00E380
01E380
000000
000000
000000
1C0070
1E00F0
0E00E0
0E01C0
0E01C0
0E0380
0E0780
0F0700
070F00
070E00
071E00
071C00
073800
073800
037000
03F000
03E000
03E000
03C000
038000
038000
070000
0F0000
FE0000
FC0000
F80000
200000
ENDCHAR
STARTCHAR 0100
ENCODING 256
SWIDTH 664 0
DWIDTH 24 0
BBX 22 31 0 0
BITMAP
001FFC
001FFC
001FFC
000000
000000
0003C0
0007C0
0007C0
000EE0
001EE0
001CE0
003CE0
0038E0
0078E0
0070F0
00F0F0
01E070
01E070
03C070
038070
078078
07FFF8
0FFFF8
0FFFF8
1E0038
3C0038
3C003C
78003C
70003C
F0001C
E0001C
ENDCHAR
STARTCHAR 0101
ENCODING 257
SWIDTH 553 0
DWIDTH 20 0
BBX 17 24 2 0
BITMAP
03FF80
03FF80
000000
000000
000000
03FC00
0FFE00
1FFF00
3C0780
380380
780380
000380
000780
0FFF00
3FFF00
7E0700
F00700
E00F00
E00E00
E01E00
E03E00
F07E00
7FEE00
3F8E00
ENDCHAR
STARTCHAR 0102
ENCODING 258
SWIDTH 664 0
DWIDTH 24 0
BBX 22 32 0 0
BITMAP
001C0C
000C18
000FF8
0007F0
000080
000000
0003C0
0007C0
0007C0
000EE0
001EE0
001CE0
003CE0
0038E0
0078E0
0070F0
00F0F0
01E070
01E070
03C070
038070
078078
07FFF8
0FFFF8
0FFFF8
1E0038
3C0038
3C003C
78003C
70003C
F0001C
E0001C
ENDCHAR
STARTCHAR 0103
ENCODING 259
SWIDTH 553 0
DWIDTH 20 0
BBX 17 25 2 0
BITMAP
030380
038700
01FE00
00FC00
000000
000000
03FC00
0FFE00
1FFF00
3C0780
380380
780380
000380
000780
0FFF00
3FFF00
7E0700
F00700
E00F00
E00E00
E01E00
E03E00
F07E00
7FEE00
3F8E00
ENDCHAR
STARTCHAR 0104
ENCODING 260
SWIDTH 664 0
DWIDTH 24 0
BBX 25 33 0 -7
BITMAP
0003C000
0007C000
0007C000
000EE000
001EE000
001CE000
003CE000
0038E000
0078E000
0070F000
00F0F000
01E07000
01E07000
03C07000
03807000
07807800
07FFF800
0FFFF800
0FFFF800
1E003800
3C003800
3C003C00
78003C00
70003C00
F0001C00
E0001C00
00001800
00003000
00003000
00003000
00003800
00003F80
00001F80
ENDCHAR
STARTCHAR 0105
ENCODING 261
SWIDTH 553 0
DWIDTH 20 0
BBX 19 26 2 -7
BITMAP
03FC00
0FFE00
1FFF00
3C0780
380380
780380
000380
000780
0FFF00
3FFF00
7E0700
F00700
E00F00
E00E00
E01E00
E03E00
F07E00
7FEE00
3F8E00
000C00
000C00
001C00
001C00
001C20
001FC0
000FC0
ENDCHAR
STARTCHAR 0106
ENCODING 262
SWIDTH 720 0
DWIDTH 26 0
BBX 23 32 3 0
BITMAP
0001E0
000380
000700
000E00
000C00
000000
007FC0
01FFF0
03FFF8
07C07C
0F001C
1E001E
1C000E
3C000E
380000
780000
700000
700000
F00000
F00000
F00000
F00000
F00000
F0001C
70003C
700038
780078
3C00F0
3E01E0
1FDFC0
0FFF80
03FE00
ENDCHAR
STARTCHAR 0107
ENCODING 263
SWIDTH 498 0
DWIDTH 18 0
BBX 16 26 2 0
BITMAP
001E
001C
0038
0070
0060
0000
0000
01F8
07FE
1FFF
1E0F
3C07
7807
7000
7000
F000
F000
E000
E000
E00E
E00E
F01C
703C
7878
3FF0
1FE0
ENDCHAR
STARTCHAR 0108
ENCODING 264
SWIDTH 720 0
DWIDTH 26 0
BBX 23 32 3 0
BITMAP
0007C0
000EC0
001CE0
003CE0
007870
000000
007FC0
01FFF0
03FFF8
07C07C
0F001C
1E001E
1C000E
3C000E
380000
780000
700000
700000
F00000
F00000
F00000
F00000
F00000
F0001C
70003C
700038
780078
3C00F0
3E01E0
1FDFC0
0FFF80
03FE00
ENDCHAR
STARTCHAR 0109
ENCODING 265
SWIDTH 498 0
DWIDTH 18 0
BBX 16 26 2 0
BITMAP
0078
00FC
01EC
01CE
038E
0000
0000
01F8
07FE
1FFF
1E0F
3C07
7807
7000
7000
F000
F000
E000
E000
E00E
E00E
F01C
703C
7878
3FF0
1FE0
ENDCHAR
STARTCHAR 010A
ENCODING 266
SWIDTH 720 0
DWIDTH 26 0
BBX 23 31 3 0
BITMAP
000780
000780
000780
000780
000000
007FC0
01FFF0
03FFF8
07C07C
0F001C
1E001E
1C000E
3C000E
380000
780000
700000
700000
F00000
F00000
F00000
F00000
F00000
F0001C
70003C
700038
780078
3C00F0
3E01E0
1FDFC0
0FFF80
03FE00
ENDCHAR
STARTCHAR 010B
ENCODING 267
SWIDTH 498 0
DWIDTH 18 0
BBX 16 25 2 0
BITMAP
0078
00F0
00F0
00F0
0000
0000
01F8
07FE
1FFF
1E0F
3C07
7807
7000
7000
F000
F000
E000
E000
E00E
E00E
F01C
703C
7878
3FF0
1FE0
ENDCHAR
STARTCHAR 010C
ENCODING 268
SWIDTH 720 0
DWIDTH 26 0
BBX 23 32 3 0
BITMAP
0038F0
0019E0
001FC0
000F80
000F00
000000
007FC0
01FFF0
03FFF8
07C07C
0F001C
1E001E
1C000E
3C000E
380000
780000
700000
700000
F00000
F00000
F00000
F00000
F00000
F0001C
70003C
700038
780078
3C00F0
3E01E0
1FDFC0
0FFF80
03FE00
ENDCHAR
STARTCHAR 010D
ENCODING 269
SWIDTH 498 0
DWIDTH 18 0
BBX 16 26 2 0
BITMAP
0387
01CE
01DC
00F8
00F0
0000
0000
01F8
07FE
1FFF
1E0F
3C07
7807
7000
7000
F000
F000
E000
E000
E00E
E00E
F01C
703C
7878
3FF0
1FE0
ENDCHAR
STARTCHAR 010E
ENCODING 270
SWIDTH 720 0
DWIDTH 26 0
BBX 24 32 2 0
BITMAP
0071C0
007380
003700
003E00
001C00
000000
07FF80
07FFE0
07FFF8
0F00FC
0F003C
0E001E
0E000E
1E000E
1E000F
1E000F
1C000F
1C000F
3C000F
3C000F
38000E
38001E
38001E
78001C
78003C
700078
7000F8
7001F0
F007E0
FFFFC0
FFFF00
FFFC00
ENDCHAR
STARTCHAR 010F
ENCODING 271
SWIDTH 636 0
DWIDTH 23 0
BBX 25 26 2 0
BITMAP
0000F780
0000E780
0000E700
0000E100
0000E300
0001E200
0001C600
03F1CC00
07F9C000
1FFDC000
1C0FC000
3C078000
78078000
70078000
70078000
F0070000
E0070000
E0070000
E0070000
E00F0000
E00E0000
F01E0000
703E0000
787E0000
3FEE0000
1F9C0000
ENDCHAR
STARTCHAR 0110
ENCODING 272
SWIDTH 720 0
DWIDTH 26 0
BBX 24 26 2 0
BITMAP
07FF80
07FFF0
07FFF8
07007C
0F003E
0F001E
0E000E
0E000F
0E000F
1E000F
1E000F
1C000F
FFF80F
FFF80F
3C000F
3C000E
38001E
38001E
78003C
78003C
780078
7001F0
7007E0
FFFFC0
FFFF80
FFFC00
ENDCHAR
STARTCHAR 0111
ENCODING 273
SWIDTH 553 0
DWIDTH 20 0
BBX 22 26 2 0
BITMAP
0000F0
0000E0
003FFC
003FF8
0000F8
0001C0
0001C0
03F1C0
07F9C0
1FFFC0
1C0F80
380780
780780
700780
700780
F00700
E00700
E00700
E00700
E00F00
E00E00
F01E00
F03E00
787E00
3FEE00
1F9C00
ENDCHAR
STARTCHAR 0112
ENCODING 274
SWIDTH 664 0
DWIDTH 24 0
BBX 24 31 2 0
BITMAP
003FF8
003FF0
007FF0
000000
000000
07FFFF
07FFFE
07FFFE
0F0000
0F0000
0E0000
0E0000
1E0000
1E0000
1E0000
1C0000
1FFFF8
3FFFF8
3FFFF8
380000
380000
380000
780000
780000
700000
700000
700000
F00000
FFFFF0
FFFFF0
FFFFE0
ENDCHAR
STARTCHAR 0113
ENCODING 275
SWIDTH 553 0
DWIDTH 20 0
BBX 17 24 2 0
BITMAP
03FF80
03FF80
000000
000000
000000
01F800
07FE00
1F9F00
1E0700
380380
780380
700380
700380
FFFF80
FFFF80
E00000
E00000
E00000
E00700
F00E00
701E00
7C7C00
3FF800
1FE000
ENDCHAR
STARTCHAR 0114
ENCODING 276
SWIDTH 664 0
DWIDTH 24 0
BBX 24 32 2 0
BITMAP
003030
003060
003FE0
001FC0
000200
000000
07FFFF
07FFFE
07FFFE
0F0000
0F0000
0E0000
0E0000
1E0000
1E0000
1E0000
1C0000
1FFFF8
3FFFF8
3FFFF8
380000
380000
380000
780000
780000
700000
700000
700000
F00000
FFFFF0
FFFFF0
FFFFE0
ENDCHAR
STARTCHAR 0115
ENCODING 277
SWIDTH 553 0
DWIDTH 20 0
BBX 17 25 2 0
BITMAP
030300
038700
01FE00
00FC00
000000
000000
01F800
07FE00
1F9F00
1E0700
380380
780380
700380
700380
FFFF80
FFFF80
E00000
E00000
E00000
E00700
F00E00
701E00
7C7C00
3FF800
1FE000
ENDCHAR
STARTCHAR 0116
ENCODING 278
SWIDTH 664 0
DWIDTH 24 0
BBX 24 31 2 0
BITMAP
000780
000780
000780
000780
000000
07FFFF
07FFFE
07FFFE
0F0000
0F0000
0E0000
0E0000
1E0000
1E0000
1E0000
1C0000
1FFFF8
3FFFF8
3FFFF8
380000
380000
380000
780000
780000
700000
700000
700000
F00000
FFFFF0
FFFFF0
FFFFE0
ENDCHAR
STARTCHAR 0117
ENCODING 279
SWIDTH 553 0
DWIDTH 20 0
BBX 17 25 2 0
BITMAP
003C00
007800
007800
007800
000000
000000
01F800
07FE00
1F9F00
1E0700
380380
780380
700380
700380
FFFF80
FFFF80
E00000
E00000
E00000
E00700
F00E00
701E00
7C7C00
3FF800
1FE000
ENDCHAR
STARTCHAR 0118
ENCODING 280
SWIDTH 664 0
DWIDTH 24 0
BBX 24 33 2 -7
BITMAP
07FFFF
07FFFE
07FFFE
0F0000
0F0000
0E0000
0E0000
1E0000
1E0000
1E0000
1C0000
1FFFF8
3FFFF8
3FFFF8
380000
380000
380000
780000
780000
700000
700000
700000
F00000
FFFFF0
FFFFF0
FFFFE0
000600
000C00
000C00
000C00
000C00
000FE0
000FE0
ENDCHAR
STARTCHAR 0119
ENCODING 281
SWIDTH 553 0
DWIDTH 20 0
BBX 17 26 2 -7
BITMAP
01F800
07FE00
1F9F00
1E0700
380380
780380
700380
700380
FFFF80
FFFF80
E00000
E00000
E00000
E00700
F00E00
701E00
7C7C00
3FF800
1FE000
030000
030000
060000
060000
070800
07F000
03F000
ENDCHAR
STARTCHAR 011A
ENCODING 282
SWIDTH 664 0
DWIDTH 24 0
BBX 24 32 2 0
BITMAP
0038F0
0019C0
001F80
001F00
000F00
000000
07FFFF
07FFFE
07FFFE
0F0000
0F0000
0E0000
0E0000
1E0000
1E0000
1E0000
1C0000
1FFFF8
3FFFF8
3FFFF8
380000
380000
380000
780000
780000
700000
700000
700000
F00000
FFFFF0
FFFFF0
FFFFE0
ENDCHAR
STARTCHAR 011B
ENCODING 283
SWIDTH 553 0
DWIDTH 20 0
BBX 17 26 2 0
BITMAP
038700
01CE00
01DC00
00F800
00F000
000000
000000
01F800
07FE00
1F9F00
1E0700
380380
780380
700380
700380
FFFF80
FFFF80
E00000
E00000
E00000
E00700
F00E00
701E00
7C7C00
3FF800
1FE000
ENDCHAR
STARTCHAR 011C
ENCODING 284
SWIDTH 775 0
DWIDTH 28 0
BBX 24 32 4 0
BITMAP
0007C0
000EC0
001CE0
003CE0
007870
000000
007FC0
01FFF0
07FFF8
0F807C
1F001E
1E001E
3C000E
78000F
780000
700000
F00000
F00000
E00000
E01FFE
E01FFC
E01FFC
E0001C
E0003C
E0003C
F00038
F00038
780078
7C01F8
3F8FF0
1FFFE0
07FF00
ENDCHAR
STARTCHAR 011D
ENCODING 285
SWIDTH 553 0
DWIDTH 20 0
BBX 19 33 1 -7
BITMAP
001E00
003E00
007700
00E300
01C380
000000
000000
01F8E0
07FCE0
0FDEE0
1E07E0
1C03E0
3C03C0
3801C0
7801C0
7001C0
700380
700380
700380
700780
700780
780F00
3C1F00
3FFF00
1FF700
07CF00
000E00
000E00
E01E00
E01C00
F87C00
7FF800
3FE000
ENDCHAR
STARTCHAR 011E
ENCODING 286
SWIDTH 775 0
DWIDTH 28 0
BBX 24 32 4 0
BITMAP
003030
003870
001FE0
000FC0
000200
000000
007FC0
01FFF0
07FFF8
0F807C
1F001E
1E001E
3C000E
78000F
780000
700000
F00000
F00000
E00000
E01FFE
E01FFC
E01FFC
E0001C
E0003C
E0003C
F00038
F00038
780078
7C01F8
3F8FF0
1FFFE0
07FF00
ENDCHAR
STARTCHAR 011F
ENCODING 287
SWIDTH 553 0
DWIDTH 20 0
BBX 19 32 1 -7
BITMAP
00C0C0
00C180
00FF80
007F00
000000
000000
01F8E0
07FCE0
0FDEE0
1E07E0
1C03E0
3C03C0
3801C0
7801C0
7001C0
700380
700380
700380
700780
700780
780F00
3C1F00
3FFF00
1FF700
07CF00
000E00
000E00
E01E00
E01C00
F87C00
7FF800
3FE000
ENDCHAR
STARTCHAR 0120
ENCODING 288
SWIDTH 775 0
DWIDTH 28 0
BBX 24 31 4 0
BITMAP
000780
000780
000780
000F00
000000
007FC0
01FFF0
07FFF8
0F807C
1F001E
1E001E
3C000E
78000F
780000
700000
F00000
F00000
E00000
E01FFE
E01FFC
E01FFC
E0001C
E0003C
E0003C
F00038
F00038
780078
7C01F8
3F8FF0
1FFFE0
07FF00
ENDCHAR
STARTCHAR 0121
ENCODING 289
SWIDTH 553 0
DWIDTH 20 0
BBX 19 32 1 -7
BITMAP
001E00
001C00
003C00
003C00
000000
000000
01F8E0
07FCE0
0FDEE0
1E07E0
1C03E0
3C03C0
3801C0
7801C0
7001C0
700380
700380
700380
700780
700780
780F00
3C1F00
3FFF00
1FF700
07CF00
000E00
000E00
E01E00
E01C00
F87C00
7FF800
3FE000
ENDCHAR
STARTCHAR 0122
ENCODING 290
SWIDTH 775 0
DWIDTH 28 0
BBX 24 33 4 -7
BITMAP
007FC0
01FFF0
07FFF8
0F807C
1F001E
1E001E
3C000E
78000F
780000
700000
F00000
E00000
E00000
E01FFE
E01FFC
E01FFC
E0001C
E0003C
E0003C
F00038
F00038
780078
7C01F8
3FCFF0
1FFFE0
07FF00
018000
01C000
03F000
007000
007000
0FF000
1FE000
ENDCHAR
STARTCHAR 0123
ENCODING 291
SWIDTH 553 0
DWIDTH 20 0
BBX 19 35 1 -7
BITMAP
000400
000C00
001800
003000
003C00
003800
007800
000000
000000
01F8E0
07FCE0
0FDEE0
1E07E0
1C03E0
3C03C0
3801C0
7801C0
7001C0
700380
700380
700380
700780
700780
780F00
3C1F00
3FFF00
1FF700
07CF00
000E00
000E00
E01E00
E01C00
F87C00
7FF800
3FE000
ENDCHAR
STARTCHAR 0124
ENCODING 292
SWIDTH 720 0
DWIDTH 26 0
BBX 25 32 2 0
BITMAP
0003E000
0007E000
000E7000
001C7000
003C3800
00000000
07000380
07000780
0F000780
0F000780
0E000700
0E000700
0E000F00
1E000F00
1E000E00
1C000E00
1C000E00
1FFFFE00
3FFFFE00
3FFFFC00
38001C00
38001C00
78003C00
78003C00
78003800
70003800
70003800
F0007800
F0007800
E0007000
E0007000
E000F000
ENDCHAR
STARTCHAR 0125
ENCODING 293
SWIDTH 553 0
DWIDTH 20 0
BBX 18 32 1 0
BITMAP
001F00
003F00
007B80
00F180
00E1C0
000000
038000
078000
070000
070000
070000
0F0000
0E0000
0E3F00
0E7F80
0FF7C0
1F81C0
1F01C0
1E01C0
1C01C0
1C03C0
3C0380
380380
380380
380380
380780
780700
700700
700700
700700
F00F00
F00E00
ENDCHAR
STARTCHAR 0126
ENCODING 294
SWIDTH 720 0
DWIDTH 26 0
BBX 27 26 2 0
BITMAP
07000380
07000780
0F000780
0F000780
3FFFFFE0
7FFFFFE0
7FFFFFC0
1E000F00
1E000E00
1C000E00
1C000E00
1FFFFE00
3FFFFE00
3FFFFC00
38001C00
38001C00
78003C00
78003C00
78003800
70003800
70003800
F0007800
F0007800
E0007000
E0007000
E000F000
ENDCHAR
STARTCHAR 0127
ENCODING 295
SWIDTH 553 0
DWIDTH 20 0
BBX 18 26 1 0
BITMAP
038000
070000
070000
1FFC00
3FFC00
0F0000
0E0000
0E3F00
0E7F80
0FFFC0
1F81C0
1F01C0
1E01C0
1C01C0
1C03C0
3C0380
380380
380380
380380
380780
780700
700700
700700
700700
700F00
F00E00
ENDCHAR
STARTCHAR 0128
ENCODING 296
SWIDTH 276 0
DWIDTH 10 0
BBX 14 31 2 0
BITMAP
1F9C
1FF8
39F8
3020
0000
0780
0780
0700
0700
0700
0F00
0F00
0E00
0E00
0E00
1E00
1E00
1C00
1C00
3C00
3C00
3C00
3800
3800
7800
7800
7000
7000
7000
F000
F000
ENDCHAR
STARTCHAR 0129
ENCODING 297
SWIDTH 276 0
DWIDTH 10 0
BBX 13 25 1 1
BITMAP
3F38
7FF0
63E0
0000
0000
0000
0E00
0E00
0E00
1E00
1C00
1C00
1C00
3C00
3800
3800
3800
3800
7800
7000
7000
7000
7000
F000
E000
ENDCHAR
STARTCHAR 012A
ENCODING 298
SWIDTH 276 0
DWIDTH 10 0
BBX 14 31 2 0
BITMAP
1FFC
3FF8
3FF8
0000
0000
0780
0780
0700
0700
0700
0F00
0F00
0E00
0E00
0E00
1E00
1E00
1C00
1C00
3C00
3C00
3C00
3800
3800
7800
7800
7000
7000
7000
F000
F000
ENDCHAR
STARTCHAR 012B
ENCODING 299
SWIDTH 276 0
DWIDTH 10 0
BBX 12 24 1 0
BITMAP
7FF0
7FF0
0000
0000
0000
0E00
0E00
0E00
1E00
1C00
1C00
1C00
3C00
3800
3800
3800
3800
7800
7000
7000
7000
7000
F000
E000
ENDCHAR
STARTCHAR 012C
ENCODING 300
SWIDTH 276 0
DWIDTH 10 0
BBX 13 32 2 0
BITMAP
1818
1C38
0FF0
07E0
0100
0000
0780
0780
0700
0700
0700
0F00
0F00
0E00
0E00
0E00
1E00
1E00
1C00
1C00
3C00
3C00
3C00
3800
3800
7800
7800
7000
7000
7000
F000
F000
ENDCHAR
STARTCHAR 012D
ENCODING 301
SWIDTH 276 0
DWIDTH 10 0
BBX 12 25 1 0
BITMAP
3030
3060
3FE0
1FC0
0000
0000
0E00
0E00
0E00
1E00
1C00
1C00
1C00
3C00
3800
3800
3800
3800
7800
7000
7000
7000
7000
F000
E000
ENDCHAR
STARTCHAR 012E
ENCODING 302
SWIDTH 276 0
DWIDTH 10 0
BBX 10 33 1 -7
BITMAP
03C0
03C0
0380
0380
0380
0780
0780
0700
0700
0700
0F00
0F00
0E00
0E00
1E00
1E00
1E00
1C00
1C00
3C00
3C00
3800
3800
3800
7800
7800
6000
6000
C000
C000
E000
FE00
7E00
ENDCHAR
STARTCHAR 012F
ENCODING 303
SWIDTH 221 0
DWIDTH 8 0
BBX 10 33 0 -7
BITMAP
03C0
0380
0380
0380
0000
0000
0000
0700
0700
0700
0F00
0E00
0E00
0E00
1E00
1C00
1C00
1C00
1C00
3C00
3800
3800
3800
3800
7800
7000
6000
6000
C000
C000
E000
FE00
7E00
ENDCHAR
STARTCHAR 0130
ENCODING 304
SWIDTH 276 0
DWIDTH 10 0
BBX 10 31 2 0
BITMAP
03C0
03C0
0380
0780
0000
0780
0780
0700
0700
0700
0F00
0F00
0E00
0E00
0E00
1E00
1E00
1C00
1C00
3C00
3C00
3C00
3800
3800
7800
7800
7000
7000
7000
F000
F000
ENDCHAR
STARTCHAR 0131
ENCODING 305
SWIDTH 276 0
DWIDTH 10 0
BBX 7 19 2 0
BITMAP
0E
0E
0E
1E
1C
1C
1C
1C
3C
38
38
38
38
78
70
70
70
70
F0
ENDCHAR
STARTCHAR 0132
ENCODING 306
SWIDTH 720 0
DWIDTH 26 0
BBX 26 26 2 0
BITMAP
078003C0
07800380
07000380
07000380
07000780
0F000780
0F000700
0E000700
0E000700
0E000F00
1E000F00
1E000E00
1C000E00
1C000E00
3C001E00
3C001E00
3C001C00
38001C00
38E03C00
78E03C00
78E03800
70E03800
70F07800
70FDF000
F07FE000
F03FC000
ENDCHAR
STARTCHAR 0133
ENCODING 307
SWIDTH 443 0
DWIDTH 16 0
BBX 17 33 1 -7
BITMAP
078380
070780
070700
070700
000000
000000
000000
0E0E00
0E0E00
1E0E00
1C1E00
1C1C00
1C1C00
1C1C00
3C1C00
383C00
383800
383800
383800
783800
707800
707000
707000
707000
F07000
E0F000
00E000
00E000
00E000
01E000
1BC000
1FC000
1F8000
ENDCHAR
STARTCHAR 0134
ENCODING 308
SWIDTH 498 0
DWIDTH 18 0
BBX 22 32 1 0
BITMAP
0001F0
0003F0
000738
000E38
001E1C
000000
0001C0
0001C0
0003C0
0003C0
000380
000380
000380
000780
000780
000700
000700
000700
000F00
000F00
000E00
000E00
001E00
001E00
F01E00
E01C00
E01C00
F03C00
F07800
7CF800
7FF000
1FE000
ENDCHAR
STARTCHAR 0135
ENCODING 309
SWIDTH 221 0
DWIDTH 8 0
BBX 16 33 -4 -7
BITMAP
003C
007C
00EE
01CE
0387
0000
0000
0070
0070
00F0
00E0
00E0
00E0
00E0
01E0
01C0
01C0
01C0
01C0
03C0
0380
0380
0380
0380
0780
0700
0700
0700
0F00
0E00
9E00
FC00
FC00
ENDCHAR
STARTCHAR 0136
ENCODING 310
SWIDTH 664 0
DWIDTH 24 0
BBX 24 33 2 -7
BITMAP
07000F
07003E
07007C
0F00F8
0F01F0
0E03E0
0E07C0
1E0F00
1E3E00
1C7C00
1CF800
1DF800
3FFC00
3FDC00
3F1E00
3E0F00
3C0F00
780780
780780
7003C0
7001C0
7001E0
F000F0
F000F0
E00078
E00078
000000
01E000
03F000
007000
007000
0FF000
0FE000
ENDCHAR
STARTCHAR 0137
ENCODING 311
SWIDTH 498 0
DWIDTH 18 0
BBX 19 33 1 -7
BITMAP
038000
078000
070000
070000
070000
070000
0E0000
0E01E0
0E03C0
0E0F00
1E1E00
1C3C00
1C7800
1CF000
1DE000
3FF000
3F7000
3E7000
3C7800
383800
783C00
701C00
701C00
701E00
700E00
F00F00
000000
078000
0FC000
01C000
01C000
3FC000
3F8000
ENDCHAR
STARTCHAR 0138
ENCODING 312
SWIDTH 498 0
DWIDTH 18 0
BBX 19 19 1 0
BITMAP
0E01E0
0E03C0
0E0F00
1E1E00
1C3C00
1C7800
1CF000
1DE000
3FF000
3F7000
3E7000
3C7800
383800
783C00
701C00
701C00
701E00
700E00
F00F00
ENDCHAR
STARTCHAR 0139
ENCODING 313
SWIDTH 553 0
DWIDTH 20 0
BBX 17 32 2 0
BITMAP
003C00
007800
00F000
00E000
01C000
000000
070000
070000
0F0000
0F0000
0E0000
0E0000
0E0000
1E0000
1E0000
1C0000
1C0000
3C0000
3C0000
3C0000
380000
380000
780000
780000
700000
700000
700000
F00000
F00000
FFFF80
FFFF80
FFFF00
ENDCHAR
STARTCHAR 013A
ENCODING 314
SWIDTH 221 0
DWIDTH 8 0
BBX 11 32 1 0
BITMAP
01E0
01C0
0380
0700
0600
0000
0700
0700
0700
0700
0F00
0E00
0E00
0E00
0E00
1E00
1C00
1C00
1C00
1C00
3C00
3800
3800
3800
3800
7800
7000
7000
7000
F000
E000
E000
ENDCHAR
STARTCHAR 013B
ENCODING 315
SWIDTH 553 0
DWIDTH 20 0
BBX 17 33 2 -7
BITMAP
070000
070000
0F0000
0F0000
0E0000
0E0000
0E0000
1E0000
1E0000
1C0000
1C0000
3C0000
3C0000
3C0000
380000
380000
780000
780000
700000
700000
700000
F00000
F00000
FFFF80
FFFF80
FFFF00
000000
078000
0FC000
01C000
01C000
3FC000
3F8000
ENDCHAR
STARTCHAR 013C
ENCODING 316
SWIDTH 221 0
DWIDTH 8 0
BBX 11 33 -2 -7
BITMAP
00E0
00E0
00E0
00E0
01E0
01C0
01C0
01C0
01C0
03C0
0380
0380
0380
0380
0780
0700
0700
0700
0700
0F00
0E00
0E00
0E00
1E00
1C00
1C00
0000
3E00
3F00
0700
0700
FF00
FE00
ENDCHAR
STARTCHAR 013D
ENCODING 317
SWIDTH 553 0
DWIDTH 20 0
BBX 18 26 2 0
BITMAP
0703C0
0703C0
0F03C0
0F03C0
0E0080
0E0180
0E0100
1E0700
1E0400
1C0000
1C0000
3C0000
3C0000
3C0000
380000
380000
780000
780000
700000
700000
700000
F00000
F00000
FFFF80
FFFF80
FFFF00
ENDCHAR
STARTCHAR 013E
ENCODING 318
SWIDTH 276 0
DWIDTH 10 0
BBX 13 26 1 0
BITMAP
0738
0738
0738
0718
0F10
0E30
0E20
0E40
0E00
1E00
1C00
1C00
1C00
1C00
3C00
3800
3800
3800
3800
7800
7000
7000
7000
F000
E000
E000
ENDCHAR
STARTCHAR 013F
ENCODING 319
SWIDTH 553 0
DWIDTH 20 0
BBX 17 26 2 0
BITMAP
070000
070000
0F0000
0F0000
0E0000
0E0000
0E0000
1E0000
1E0000
1C0000
1C0000
3C0F00
3C0E00
3C0E00
381E00
380000
780000
780000
700000
700000
700000
F00000
F00000
FFFF80
FFFF80
FFFF00
ENDCHAR
STARTCHAR 0140
ENCODING 320
SWIDTH 387 0
DWIDTH 14 0
BBX 12 26 1 0
BITMAP
0700
0700
0700
0700
0F00
0E00
0E00
0E00
0E00
1E00
1C00
1C70
1CF0
1CF0
3CF0
3800
3800
3800
3800
7800
7000
7000
7000
F000
E000
E000
ENDCHAR
STARTCHAR 0141
ENCODING 321
SWIDTH 553 0
DWIDTH 20 0
BBX 18 26 1 0
BITMAP
038000
038000
078000
078000
070000
070000
070000
0F0C00
0F3C00
0E7800
0FE000
0FC000
1F0000
7E0000
FC0000
FC0000
BC0000
3C0000
3C0000
380000
380000
780000
780000
7FFFC0
7FFFC0
7FFF80
ENDCHAR
STARTCHAR 0142
ENCODING 322
SWIDTH 221 0
DWIDTH 8 0
BBX 9 26 1 0
BITMAP
0780
0700
0700
0700
0700
0F00
0E00
0E00
0E00
1E80
1F80
1F80
1E00
7C00
FC00
B800
3800
3800
3800
7800
7000
7000
7000
7000
F000
E000
ENDCHAR
STARTCHAR 0143
ENCODING 323
SWIDTH 720 0
DWIDTH 26 0
BBX 25 32 2 0
BITMAP
0001E000
0003C000
00078000
00070000
000E0000
00000000
07800380
07800380
07C00780
0FC00780
0EC00700
0EE00700
0EE00700
0E700F00
1E700F00
1E780E00
1C380E00
1C3C0E00
1C1C1E00
3C1E1E00
3C0E1C00
380E1C00
380F1C00
38073C00
7807BC00
7003B800
7003B800
7001B800
F001F800
F001F000
E000F000
E000F000
ENDCHAR
STARTCHAR 0144
ENCODING 324
SWIDTH 553 0
DWIDTH 20 0
BBX 18 26 1 0
BITMAP
000F00
000E00
001C00
003800
003000
000000
000000
0E3F00
0E7F80
0FFFC0
1F81C0
1F01C0
1E01C0
1C01C0
1C03C0
3C0380
380380
380380
380380
380780
780700
700700
700700
700700
700F00
F00E00
ENDCHAR
STARTCHAR 0145
ENCODING 325
SWIDTH 720 0
DWIDTH 26 0
BBX 25 33 2 -7
BITMAP
07800380
07800380
07C00780
0FC00780
0EC00700
0EE00700
0EE00700
0E700F00
1E700F00
1E780E00
1C380E00
1C3C0E00
1C1C1E00
3C1E1E00
3C0E1C00
380E1C00
380F1C00
38073C00
7807BC00
7003B800
7003B800
7001B800
F001F800
F001F000
E000F000
E000F000
00000000
00F00000
01F80000
00380000
00380000
07F80000
07F00000
ENDCHAR
STARTCHAR 0146
ENCODING 326
SWIDTH 553 0
DWIDTH 20 0
BBX 18 26 1 -7
BITMAP
0E3F00
0E7F80
0FFFC0
1F81C0
1F01C0
1E01C0
1C01C0
1C03C0
3C0380
380380
380380
380380
380780
780700
700700
700700
700700
700F00
F00E00
000000
03C000
07E000
00E000
00F000
1FE000
1FC000
ENDCHAR
STARTCHAR 0147
ENCODING 327
SWIDTH 720 0
DWIDTH 26 0
BBX 25 32 2 0
BITMAP
001C7800
001CE000
000FC000
000F8000
00070000
00000000
07800380
07800380
07C00780
0FC00780
0EC00700
0EE00700
0EE00700
0E700F00
1E700F00
1E780E00
1C380E00
1C3C0E00
1C1C1E00
3C1E1E00
3C0E1C00
380E1C00
380F1C00
38073C00
7807BC00
7003B800
7003B800
7001B800
F001F800
F001F000
E000F000
E000F000
ENDCHAR
STARTCHAR 0148
ENCODING 328
SWIDTH 553 0
DWIDTH 20 0
BBX 18 26 1 0
BITMAP
00E3C0
00E380
007700
007E00
003C00
000000
000000
0E3F00
0E7F80
0FFFC0
1F81C0
1F01C0
1E01C0
1C01C0
1C03C0
3C0380
380380
380380
380380
380780
780700
700700
700700
700700
700F00
F00E00
ENDCHAR
STARTCHAR 0149
ENCODING 329
SWIDTH 609 0
DWIDTH 22 0
BBX 19 26 2 0
BITMAP
380000
780000
780000
780000
100000
300000
300000
670F80
C73FC0
077FE0
07C0E0
0F80E0
0F00E0
0F00E0
0E00E0
0E01E0
1E01C0
1C01C0
1C01C0
1C01C0
1C03C0
3C0380
380380
380380
380380
380780
ENDCHAR
STARTCHAR 014A
ENCODING 330
SWIDTH 720 0
DWIDTH 26 0
BBX 24 26 2 0
BITMAP
070FE0
073FF8
077FFC
0FE03C
0FC01E
0F801E
0F000F
0E000F
1E000F
1E000F
1C000F
1C000F
3C000F
3C000F
3C000E
38001E
38001E
78001E
78001C
78003C
70003C
700078
F000F0
F03FF0
E07FE0
E07F80
ENDCHAR
STARTCHAR 014B
ENCODING 331
SWIDTH 553 0
DWIDTH 20 0
BBX 18 26 1 -7
BITMAP
0E1F00
0E7F80
0EF7C0
0F81C0
1F01C0
1E01C0
1E01C0
1C01C0
3C03C0
3C0380
380380
380380
380780
780700
700700
700700
700700
700F00
F00E00
000E00
000E00
000E00
001C00
01BC00
01FC00
01F800
ENDCHAR
STARTCHAR 014C
ENCODING 332
SWIDTH 775 0
DWIDTH 28 0
BBX 25 31 3 0
BITMAP
003FF800
003FF800
003FF800
00000000
00000000
003FC000
01FFF000
03FFFC00
07C03C00
0F001E00
1E000F00
3C000F00
3C000700
78000780
78000780
70000780
70000780
F0000780
F0000780
F0000780
F0000700
F0000F00
70000F00
70001E00
78001E00
78003C00
3C007800
1E01F000
0FEFE000
07FFC000
01FF0000
ENDCHAR
STARTCHAR 014D
ENCODING 333
SWIDTH 553 0
DWIDTH 20 0
BBX 18 24 2 0
BITMAP
03FF80
03FF80
000000
000000
000000
03F800
07FE00
1F1F00
3C0780
380380
780380
700380
F003C0
E00380
E00380
E00380
E00380
E00780
E00700
F00F00
701E00
783C00
3FF800
1FE000
ENDCHAR
STARTCHAR 014E
ENCODING 334
SWIDTH 775 0
DWIDTH 28 0
BBX 25 32 3 0
BITMAP
00303800
00383000
001FE000
000FC000
00020000
00000000
003FC000
01FFF000
03FFFC00
07C03C00
0F001E00
1E000F00
3C000F00
3C000700
78000780
78000780
70000780
70000780
F0000780
F0000780
F0000780
F0000700
F0000F00
70000F00
70001E00
78001E00
78003C00
3C007800
1E01F000
0FEFE000
07FFC000
01FF0000
ENDCHAR
STARTCHAR 014F
ENCODING 335
SWIDTH 553 0
DWIDTH 20 0
BBX 18 25 2 0
BITMAP
030380
018300
01FE00
00FC00
000000
000000
03F800
07FE00
1F1F00
3C0780
380380
780380
700380
F003C0
E00380
E00380
E00380
E00380
E00780
E00700
F00F00
701E00
783C00
3FF800
1FE000
ENDCHAR
STARTCHAR 0150
ENCODING 336
SWIDTH 775 0
DWIDTH 28 0
BBX 25 32 3 0
BITMAP
000F3C00
000E3800
001C7000
0038E000
0030C000
00000000
003FC000
01FFF000
03FFFC00
07C03C00
0F001E00
1E000F00
3C000F00
3C000700
78000780
78000780
70000780
70000780
F0000780
F0000780
F0000780
F0000700
F0000F00
70000F00
70001E00
78001E00
78003C00
3C007800
1E01F000
0FEFE000
07FFC000
01FF0000
ENDCHAR
STARTCHAR 0151
ENCODING 337
SWIDTH 553 0
DWIDTH 20 0
BBX 19 26 2 0
BITMAP
0079E0
00F3C0
01E780
01C700
038E00
000000
000000
03F800
07FE00
1F1F00
3C0780
380380
780380
700380
F003C0
E00380
E00380
E00380
E00380
E00780
E00700
F00F00
701E00
783C00
3FF800
1FE000
ENDCHAR
STARTCHAR 0152
ENCODING 338
SWIDTH 996 0
DWIDTH 36 0
BBX 35 26 3 0
BITMAP
007F0FFFE0
01FFCFFFC0
07FFEFFFC0
0F80FE0000
1F007E0000
1E007C0000
3C003C0000
38003C0000
78003C0000
70003C0000
7000380000
F0003FFF00
F0003FFF00
E0007FFF00
E000780000
E000700000
E000700000
E000F00000
F000F00000
F000E00000
7001E00000
7803E00000
3C07E00000
3FBFFFFE00
1FFFFFFE00
07F9FFFE00
ENDCHAR
STARTCHAR 0153
ENCODING 339
SWIDTH 941 0
DWIDTH 34 0
BBX 31 19 2 0
BITMAP
01FC07E0
07FE1FF8
0F9F3E7C
1E07F81C
3C03F00E
3803E00E
7803C00E
7003C00E
7003FFFE
F003FFFE
E0038000
E0038000
E0078000
F007C03C
700FC038
781FE078
3C3DF1F0
3FF8FFE0
0FF03F80
ENDCHAR
STARTCHAR 0154
ENCODING 340
SWIDTH 720 0
DWIDTH 26 0
BBX 24 32 2 0
BITMAP
000780
000F00
000E00
001C00
003800
000000
07FFF0
07FFFC
07FFFE
0F000F
0F0007
0E0007
0E0007
0E0007
1E0007
1E000F
1C001E
1C00FC
1FFFF8
3FFFE0
3FFF00
380780
3803C0
7801E0
7801E0
7800F0
7000F0
700078
F00078
F00038
E0003C
E0003C
ENDCHAR
STARTCHAR 0155
ENCODING 341
SWIDTH 332 0
DWIDTH 12 0
BBX 14 26 1 0
BITMAP
0078
0070
00E0
01C0
01C0
0000
0000
0E3C
0EFC
0DF8
1D80
1F00
1E00
1C00
1C00
3C00
3800
3800
3800
3800
7000
7000
7000
7000
7000
E000
ENDCHAR
STARTCHAR 0156
ENCODING 342
SWIDTH 720 0
DWIDTH 26 0
BBX 24 33 2 -7
BITMAP
07FFF0
07FFFC
07FFFE
0F000F
0F0007
0E0007
0E0007
0E0007
1E0007
1E000F
1C001E
1C00FC
1FFFF8
3FFFE0
3FFF00
380780
3803C0
7801E0
7801E0
7800F0
7000F0
700078
F00078
F00038
E0003C
E0003C
000000
00F000
01F800
003800
003C00
07F800
07F000
ENDCHAR
STARTCHAR 0157
ENCODING 343
SWIDTH 332 0
DWIDTH 12 0
BBX 16 26 -1 -7
BITMAP
038F
03BF
037E
0760
07C0
0780
0700
0700
0F00
0E00
0E00
0E00
0E00
1C00
1C00
1C00
1C00
1C00
3800
0000
1E00
1F80
0380
0380
FF80
FF00
ENDCHAR
STARTCHAR 0158
ENCODING 344
SWIDTH 720 0
DWIDTH 26 0
BBX 24 32 2 0
BITMAP
0038E0
0039C0
001B80
001F00
000E00
000000
07FFF0
07FFFC
07FFFE
0F000F
0F0007
0E0007
0E0007
0E0007
1E0007
1E000F
1C001E
1C00FC
1FFFF8
3FFFE0
3FFF00
380780
3803C0
7801E0
7801E0
7800F0
7000F0
700078
F00078
F00038
E0003C
E0003C
ENDCHAR
STARTCHAR 0159
ENCODING 345
SWIDTH 332 0
DWIDTH 12 0
BBX 15 26 1 0
BITMAP
070E
031C
03B8
03F0
01E0
0000
0000
0E3C
0EFC
0DF8
1D80
1F00
1E00
1C00
1C00
3C00
3800
3800
3800
3800
7000
7000
7000
7000
7000
E000
ENDCHAR
STARTCHAR 015A
ENCODING 346
SWIDTH 664 0
DWIDTH 24 0
BBX 21 32 3 0
BITMAP
000F80
000E00
001C00
003800
003000
000000
01FF80
07FFC0
0FFFF0
0F00F0
1E0078
1C0078
1C0038
1C0038
1E0000
1F0000
0FC000
07F000
01FE00
007F00
001FC0
0007E0
0001E0
6000E0
E000E0
E000E0
E000E0
F001E0
7803C0
7FBFC0
3FFF00
0FFE00
ENDCHAR
STARTCHAR 015B
ENCODING 347
SWIDTH 498 0
DWIDTH 18 0
BBX 17 26 1 0
BITMAP
001E00
003C00
003800
007000
00E000
000000
000000
03FC00
07FE00
0F1F00
1E0780
1C0380
1C0380
1E0000
0F8000
07E000
03F800
00FE00
003E00
300F00
F00F00
700700
780E00
7C1E00
3FFC00
0FF800
ENDCHAR
STARTCHAR 015C
ENCODING 348
SWIDTH 664 0
DWIDTH 24 0
BBX 21 32 3 0
BITMAP
000F80
001F80
003980
0071C0
00E0C0
000000
01FF80
07FFC0
0FFFF0
0F00F0
1E0078
1C0078
1C0038
1C0038
1E0000
1F0000
0FC000
07F000
01FE00
007F00
001FC0
0007E0
0001E0
6000E0
E000E0
E000E0
E000E0
F001E0
7803C0
7FBFC0
3FFF00
0FFE00
ENDCHAR
STARTCHAR 015D
ENCODING 349
SWIDTH 498 0
DWIDTH 18 0
BBX 17 26 1 0
BITMAP
003C00
007E00
00FE00
01E700
03C700
000000
000000
03FC00
07FE00
0F1F00
1E0780
1C0380
1C0380
1E0000
0F8000
07E000
03F800
00FE00
003E00
300F00
F00F00
700700
780E00
7C1E00
3FFC00
0FF800
ENDCHAR
STARTCHAR 015E
ENCODING 350
SWIDTH 664 0
DWIDTH 24 0
BBX 21 34 3 -8
BITMAP
01FF80
07FFC0
0FFFF0
0F00F0
1E0078
1C0078
1C0038
1C0038
1E0000
1F0000
0FC000
07F000
01FE00
007F00
001FC0
0007E0
0001E0
6000E0
E000E0
E000E0
E000E0
F001E0
7803C0
7FBFC0
3FFF00
0FFE00
038000
038000
03E000
00F000
007000
1FF000
1FE000
0E0000
ENDCHAR
STARTCHAR 015F
ENCODING 351
SWIDTH 498 0
DWIDTH 18 0
BBX 17 26 1 -7
BITMAP
03FC00
07FE00
0F1F00
1E0780
1C0380
1C0380
1E0000
0F8000
07E000
03F800
00FE00
003E00
300F00
F00F00
700700
780E00
7C1E00
3FFC00
0FF800
030000
03C000
01E000
00E000
00E000
1FE000
3F8000
ENDCHAR
STARTCHAR 0160
ENCODING 352
SWIDTH 664 0
DWIDTH 24 0
BBX 21 32 3 0
BITMAP
0061C0
007380
007700
003E00
003C00
000000
01FF80
07FFC0
0FFFF0
0F00F0
1E0078
1C0078
1C0038
1C0038
1E0000
1F0000
0FC000
07F000
01FE00
007F00
001FC0
0007E0
0001E0
6000E0
E000E0
E000E0
E000E0
F001E0
7803C0
7FBFC0
3FFF00
0FFE00
ENDCHAR
STARTCHAR 0161
ENCODING 353
SWIDTH 498 0
DWIDTH 18 0
BBX 17 26 1 0
BITMAP
01C380
01C700
00EE00
00FC00
007800
000000
000000
03FC00
07FE00
0F1F00
1E0780
1C0380
1C0380
1E0000
0F8000
07E000
03F800
00FE00
003E00
300F00
F00F00
700700
780E00
7C1E00
3FFC00
0FF800
ENDCHAR
STARTCHAR 0162
ENCODING 354
SWIDTH 609 0
DWIDTH 22 0
BBX 20 36 5 -10
BITMAP
FFFFF0
FFFFF0
FFFFF0
00E000
00E000
01E000
01E000
01E000
01C000
01C000
03C000
03C000
038000
038000
038000
078000
078000
070000
070000
070000
0F0000
0F0000
0E0000
0E0000
0E0000
1E0000
000000
000000
1C0000
3C0000
3C0000
3C0000
080000
180000
300000
600000
ENDCHAR
STARTCHAR 0163
ENCODING 355
SWIDTH 276 0
DWIDTH 10 0
BBX 10 34 2 -8
BITMAP
0300
0600
0E00
0E00
0E00
1E00
7FC0
FF80
FF80
1C00
3C00
3800
3800
3800
3800
7800
7000
7000
7000
7000
F000
E000
F200
FC00
7C00
0000
0000
7000
7000
7000
3000
2000
6000
C000
ENDCHAR
STARTCHAR 0164
ENCODING 356
SWIDTH 609 0
DWIDTH 22 0
BBX 20 32 5 0
BITMAP
038F00
01DE00
01FC00
00F800
00F000
000000
FFFFF0
FFFFF0
FFFFF0
00E000
00E000
01E000
01E000
01E000
01C000
01C000
03C000
03C000
038000
038000
038000
078000
078000
070000
070000
070000
0F0000
0F0000
0E0000
0E0000
0E0000
1E0000
ENDCHAR
STARTCHAR 0165
ENCODING 357
SWIDTH 360 0
DWIDTH 13 0
BBX 15 26 2 0
BITMAP
000E
030E
0E1E
0E04
0E04
0E0C
1E18
7FB0
FF80
FF80
3C00
3800
3800
3800
3800
7800
7000
7000
7000
7000
F000
E000
E000
F200
FC00
7C00
ENDCHAR
STARTCHAR 0166
ENCODING 358
SWIDTH 609 0
DWIDTH 22 0
BBX 21 26 4 0
BITMAP
7FFFF8
7FFFF8
7FFFF8
007000
007000
00F000
00F000
00F000
00E000
00E000
01E000
01E000
01C000
FFFF80
FFFF00
03C000
03C000
038000
038000
038000
078000
078000
070000
070000
070000
0F0000
ENDCHAR
STARTCHAR 0167
ENCODING 359
SWIDTH 276 0
DWIDTH 10 0
BBX 12 25 0 1
BITMAP
00C0
0180
0380
0380
0380
0780
1FF0
3FE0
3FE0
0700
0F00
0E00
0E00
0E00
7FC0
7FC0
FFC0
1C00
1C00
1C00
3C00
3800
3C80
3F00
1F00
ENDCHAR
STARTCHAR 0168
ENCODING 360
SWIDTH 720 0
DWIDTH 26 0
BBX 23 31 4 0
BITMAP
007E30
007FE0
00E7E0
00C080
000000
1E000E
1C001E
1C001E
3C001E
3C001C
38001C
38003C
38003C
78003C
780038
700038
700078
700078
F00070
F00070
E00070
E000F0
E000F0
E000E0
E001E0
E001C0
F003C0
F80780
7F7F00
3FFE00
0FF800
ENDCHAR
STARTCHAR 0169
ENCODING 361
SWIDTH 553 0
DWIDTH 20 0
BBX 18 25 2 1
BITMAP
01F180
03FF80
031F00
000000
000000
000000
1C01C0
1C01C0
1C03C0
3C0380
380380
380380
380380
380780
780700
700700
700700
700F00
700F00
F00E00
E01E00
F03E00
F8EE00
7FCE00
3F9C00
ENDCHAR
STARTCHAR 016A
ENCODING 362
SWIDTH 720 0
DWIDTH 26 0
BBX 23 31 4 0
BITMAP
007FF0
00FFE0
00FFE0
000000
000000
1E000E
1C001E
1C001E
3C001E
3C001C
38001C
38003C
38003C
78003C
780038
700038
700078
700078
F00070
F00070
E00070
E000F0
E000F0
E000E0
E001E0
E001C0
F003C0
F80780
7F7F00
3FFE00
0FF800
ENDCHAR
STARTCHAR 016B
ENCODING 363
SWIDTH 553 0
DWIDTH 20 0
BBX 18 24 2 0
BITMAP
03FF80
03FF80
000000
000000
000000
1C01C0
1C01C0
1C03C0
3C0380
380380
380380
380380
380780
780700
700700
700700
700F00
700F00
F00E00
E01E00
F03E00
F8EE00
7FCE00
3F9C00
ENDCHAR
STARTCHAR 016C
ENCODING 364
SWIDTH 720 0
DWIDTH 26 0
BBX 23 32 4 0
BITMAP
006060
0060E0
007FC0
003F80
000400
000000
1E000E
1C001E
1C001E
3C001E
3C001C
38001C
38003C
38003C
78003C
780038
700038
700078
700078
F00070
F00070
E00070
E000F0
E000F0
E000E0
E001E0
E001C0
F003C0
F80780
7F7F00
3FFE00
0FF800
ENDCHAR
STARTCHAR 016D
ENCODING 365
SWIDTH 553 0
DWIDTH 20 0
BBX 18 25 2 0
BITMAP
030300
038700
01FE00
00FC00
000000
000000
1C01C0
1C01C0
1C03C0
3C0380
380380
380380
380380
380780
780700
700700
700700
700F00
700F00
F00E00
E01E00
F03E00
F8EE00
7FCE00
3F9C00
ENDCHAR
STARTCHAR 016E
ENCODING 366
SWIDTH 720 0
DWIDTH 26 0
BBX 23 32 4 0
BITMAP
001E00
003300
002100
002100
003300
001E00
1E000E
1C001E
1C001E
3C001E
3C001C
38001C
38003C
38003C
78003C
780038
700038
700078
700078
F00070
F00070
E00070
E000F0
E000F0
E000E0
E001E0
E001C0
F003C0
F80780
7F7F00
3FFE00
0FF800
ENDCHAR
STARTCHAR 016F
ENCODING 367
SWIDTH 553 0
DWIDTH 20 0
BBX 18 26 2 0
BITMAP
00F800
008C00
008400
008400
00C800
007000
000000
1C01C0
1C01C0
1C03C0
3C0380
380380
380380
380380
380780
780700
700700
700700
700F00
700F00
F00E00
E01E00
F03E00
F8EE00
7FCE00
3F9C00
ENDCHAR
STARTCHAR 0170
ENCODING 368
SWIDTH 720 0
DWIDTH 26 0
BBX 23 32 4 0
BITMAP
001E78
003CF0
0038E0
0071C0
00E380
000000
1E000E
1C001E
1C001E
3C001E
3C001C
38001C
38003C
38003C
78003C
780038
700038
700078
700078
F00070
F00070
E00070
E000F0
E000F0
E000E0
E001E0
E001C0
F003C0
F80780
7F7F00
3FFE00
0FF800
ENDCHAR
STARTCHAR 0171
ENCODING 369
SWIDTH 553 0
DWIDTH 20 0
BBX 18 26 2 0
BITMAP
00F3C0
00E780
01C700
038E00
031C00
000000
000000
1C01C0
1C01C0
1C03C0
3C0380
380380
380380
380380
380780
780700
700700
700700
700F00
700F00
F00E00
E01E00
F03E00
F8EE00
7FCE00
3F9C00
ENDCHAR
STARTCHAR 0172
ENCODING 370
SWIDTH 720 0
DWIDTH 26 0
BBX 23 33 4 -7
BITMAP
1E000E
1C001E
1C001E
3C001E
3C001C
38001C
38003C
38003C
780038
780038
700038
700078
700078
F00070
F00070
E00070
E000F0
E000F0
E000E0
E001E0
E001C0
F003C0
F80780
7F7F00
3FFE00
0FF800
018000
018000
030000
030000
038000
03F800
01F800
ENDCHAR
STARTCHAR 0173
ENCODING 371
SWIDTH 553 0
DWIDTH 20 0
BBX 18 26 2 -7
BITMAP
1C01C0
1C01C0
1C03C0
3C0380
380380
380380
380380
380780
780700
700700
700700
700F00
700F00
F00E00
E01E00
F03E00
F8EE00
7FCE00
3F9C00
001800
001800
003800
003000
003840
003F80
001F80
ENDCHAR
STARTCHAR 0174
ENCODING 372
SWIDTH 941 0
DWIDTH 34 0
BBX 33 32 5 0
BITMAP
0001F00000
0003B00000
0007B80000
000F380000
001E1C0000
0000000000
E001C00380
E003C00780
E003C00700
E007E00F00
E00FE00E00
E00FE01E00
E01FE01C00
E01CE03C00
E03CE03800
E038E07800
F078E07000
F070E0F000
F0F0E0E000
F0E0E1E000
F1E0E1C000
F1C0E3C000
F3C0E38000
7380E78000
7780E70000
7700EE0000
7F00EE0000
7E00FC0000
7E00FC0000
7C00F80000
7800F80000
7800F00000
ENDCHAR
STARTCHAR 0175
ENCODING 373
SWIDTH 720 0
DWIDTH 26 0
BBX 25 26 3 0
BITMAP
000F0000
001F0000
003B8000
00718000
00E1C000
00000000
00000000
E01C0380
E03C0700
E03C0700
E07C0E00
E07C0E00
E0EE1E00
F0EE1C00
71CE3C00
71CE3800
738E3800
738E7000
738E7000
770EE000
770EE000
760FC000
7E0FC000
7C0F8000
3C0F8000
38070000
ENDCHAR
STARTCHAR 0176
ENCODING 374
SWIDTH 664 0
DWIDTH 24 0
BBX 24 32 4 0
BITMAP
001F00
003F00
007380
00E380
01C180
000000
F0001F
78001E
78003C
3C0078
3C00F8
1E00F0
1E01E0
0F03C0
0F07C0
078F80
078F00
03DE00
03FC00
01FC00
01F800
00F000
00F000
00E000
00E000
01E000
01E000
01C000
01C000
01C000
03C000
03C000
ENDCHAR
STARTCHAR 0177
ENCODING 375
SWIDTH 498 0
DWIDTH 18 0
BBX 20 34 0 -8
BITMAP
001E00
003E00
007700
00E300
01C380
000000
000000
1C0070
1E00F0
0E00E0
0E01C0
0E01C0
0E0380
0E0780
0F0700
070F00
070E00
071E00
071C00
073800
073800
037000
03F000
03E000
03E000
03C000
038000
038000
070000
0F0000
FE0000
FC0000
F80000
200000
ENDCHAR
STARTCHAR 0178
ENCODING 376
SWIDTH 664 0
DWIDTH 24 0
BBX 24 31 4 0
BITMAP
00E3C0
00E3C0
01E380
01E380
000000
F0001F
78001E
78003C
3C0078
3C00F8
1E00F0
1E01E0
0F03C0
0F07C0
078F80
078F00
03DE00
03FC00
01FC00
01F800
00F000
00F000
00E000
00E000
01E000
01E000
01C000
01C000
01C000
03C000
03C000
ENDCHAR
STARTCHAR 0179
ENCODING 377
SWIDTH 609 0
DWIDTH 22 0
BBX 22 32 1 0
BITMAP
000780
000F00
001E00
001C00
003800
000000
0FFFFC
0FFFFC
0FFFFC
000078
0000F0
0001E0
0003E0
0003C0
000780
000F00
001E00
003C00
007C00
007800
00F000
01E000
03C000
078000
0F8000
1F0000
1E0000
3C0000
780000
FFFFF0
FFFFE0
FFFFE0
ENDCHAR
STARTCHAR 017A
ENCODING 378
SWIDTH 498 0
DWIDTH 18 0
BBX 17 26 1 0
BITMAP
001E00
003C00
007800
007000
00E000
000000
000000
1FFF80
1FFF80
1FFF80
000F00
001E00
003C00
007800
00F000
01F000
03E000
03C000
078000
0F0000
1E0000
3C0000
780000
FFFE00
FFFE00
FFFE00
ENDCHAR
STARTCHAR 017B
ENCODING 379
SWIDTH 609 0
DWIDTH 22 0
BBX 22 31 1 0
BITMAP
001E00
001E00
001E00
001E00
000000
0FFFFC
0FFFFC
0FFFFC
000078
0000F0
0001E0
0003E0
0003C0
000780
000F00
001E00
003C00
007C00
007800
00F000
01E000
03C000
078000
0F8000
1F0000
1E0000
3C0000
780000
FFFFF0
FFFFE0
FFFFE0
ENDCHAR
STARTCHAR 017C
ENCODING 380
SWIDTH 498 0
DWIDTH 18 0
BBX 17 25 1 0
BITMAP
007800
007800
00F000
00F000
000000
000000
1FFF80
1FFF80
1FFF80
000F00
001E00
003C00
007800
00F000
01F000
03E000
03C000
078000
0F0000
1E0000
3C0000
780000
FFFE00
FFFE00
FFFE00
ENDCHAR
STARTCHAR 017D
ENCODING 381
SWIDTH 609 0
DWIDTH 22 0
BBX 22 32 1 0
BITMAP
0071C0
007380
003700
003E00
001C00
000000
0FFFFC
0FFFFC
0FFFFC
000078
0000F0
0001E0
0003E0
0003C0
000780
000F00
001E00
003C00
007C00
007800
00F000
01E000
03C000
078000
0F8000
1F0000
1E0000
3C0000
780000
FFFFF0
FFFFE0
FFFFE0
ENDCHAR
STARTCHAR 017E
ENCODING 382
SWIDTH 498 0
DWIDTH 18 0
BBX 17 26 1 0
BITMAP
038700
01CE00
01DC00
00F800
00F000
000000
000000
1FFF80
1FFF80
1FFF80
000F00
001E00
003C00
007800
00F000
01F000
03E000
03C000
078000
0F0000
1E0000
3C0000
780000
FFFE00
FFFE00
FFFE00
ENDCHAR
STARTCHAR 017F
ENCODING 383
SWIDTH 221 0
DWIDTH 8 0
BBX 13 26 1 0
BITMAP
03F8
07F8
07F8
0700
0F00
0E00
0E00
0E00
0E00
1E00
1C00
1C00
1C00
1C00
3C00
3800
3800
3800
3800
7800
7000
7000
7000
F000
E000
E000
ENDCHAR
STARTCHAR 018F
ENCODING 399
SWIDTH 775 0
DWIDTH 28 0
BBX 24 26 3 0
BITMAP
003FC0
00FFF0
03FFF8
07C07C
0F003E
0E001E
1E000E
0C000F
00000F
00000F
00000F
7FFFFF
7FFFFF
FFFFFF
F0000F
F0000E
F0001E
70001E
70003C
70003C
780078
3800F0
3E01F0
1F8FC0
0FFF80
07FE00
ENDCHAR
STARTCHAR 0192
ENCODING 402
SWIDTH 553 0
DWIDTH 20 0
BBX 18 34 1 -8
BITMAP
001FC0
003FC0
003FC0
003800
007800
007000
007000
07FF00
07FF00
07FE00
00F000
00E000
00E000
00E000
00E000
00E000
01E000
01C000
01C000
01C000
01C000
03C000
038000
038000
038000
038000
038000
078000
070000
070000
8F0000
FF0000
FE0000
100000
ENDCHAR
STARTCHAR 01A0
ENCODING 416
SWIDTH 803 0
DWIDTH 29 0
BBX 29 26 3 0
BITMAP
007FC038
01FFF038
03FFFC78
07C03C78
0F001E18
1E000F10
3C000F30
3C000760
380007C0
78000780
70000780
70000780
F0000780
F0000780
F0000780
F0000700
F0000F00
70000F00
70001E00
78001E00
78003C00
3C007800
1E00F000
0FEFE000
07FFC000
01FF0000
ENDCHAR
STARTCHAR 01A1
ENCODING 417
SWIDTH 609 0
DWIDTH 22 0
BBX 22 19 2 0
BITMAP
03F81C
07FE1C
1F1F3C
3C07BC
38038C
780388
700398
F003F0
E003E0
E00380
E00380
E00380
E00780
E00700
F00F00
701E00
783C00
3FF800
1FE000
ENDCHAR
STARTCHAR 01AF
ENCODING 431
SWIDTH 803 0
DWIDTH 29 0
BBX 29 26 4 0
BITMAP
1E000E38
1C001E78
1C001E78
3C001E78
3C001C10
38001C30
38003C30
38003CE0
78003FC0
78003800
70003800
70007800
70007800
F0007000
F0007000
E0007000
E000F000
E000F000
E000E000
E001E000
E001C000
F003C000
F8078000
7F3F0000
3FFE0000
0FF80000
ENDCHAR
STARTCHAR 01B0
ENCODING 432
SWIDTH 636 0
DWIDTH 23 0
BBX 24 19 2 0
BITMAP
1C01CF
1C01CF
1C03CF
3C038E
380382
380386
380384
38079C
7807F8
700700
700700
700F00
700F00
F00E00
E01E00
F03E00
F8EE00
7FCE00
3F9C00
ENDCHAR
STARTCHAR 01CD
ENCODING 461
SWIDTH 664 0
DWIDTH 24 0
BBX 22 32 0 0
BITMAP
00061C
000738
000370
0003E0
0003C0
000000
0003C0
0007C0
0007C0
000EE0
001EE0
001CE0
003CE0
0038E0
0078E0
0070F0
00F0F0
01E070
01E070
03C070
038070
078078
07FFF8
0FFFF8
0FFFF8
1E0038
3C0038
3C003C
78003C
70003C
F0001C
E0001C
ENDCHAR
STARTCHAR 01CE
ENCODING 462
SWIDTH 553 0
DWIDTH 20 0
BBX 17 26 2 0
BITMAP
01C780
01CF00
00CE00
00FC00
007800
000000
000000
03FC00
0FFE00
1FFF00
3C0780
380380
780380
000380
000780
0FFF00
3FFF00
7E0700
F00700
E00F00
E00E00
E01E00
E03E00
F07E00
7FEE00
3F8E00
ENDCHAR
STARTCHAR 01CF
ENCODING 463
SWIDTH 276 0
DWIDTH 10 0
BBX 13 32 2 0
BITMAP
0E38
0E70
07E0
07C0
0380
0000
0780
0780
0700
0700
0700
0F00
0F00
0E00
0E00
0E00
1E00
1E00
1C00
1C00
3C00
3C00
3C00
3800
3800
7800
7800
7000
7000
7000
F000
F000
ENDCHAR
STARTCHAR 01D0
ENCODING 464
SWIDTH 221 0
DWIDTH 8 0
BBX 12 26 1 0
BITMAP
3870
1CE0
1DC0
0F80
0F00
0000
0000
0E00
0E00
0E00
1E00
1C00
1C00
1C00
3C00
3800
3800
3800
3800
7800
7000
7000
7000
7000
F000
E000
ENDCHAR
STARTCHAR 01D1
ENCODING 465
SWIDTH 775 0
DWIDTH 28 0
BBX 25 32 3 0
BITMAP
001C7000
001CE000
000DC000
000F8000
00070000
00000000
003FC000
01FFF000
03FFFC00
07C03C00
0F001E00
1E000F00
3C000F00
3C000700
78000780
78000780
70000780
70000780
F0000780
F0000780
F0000780
F0000700
F0000F00
70000F00
70001E00
78001E00
78003C00
3C007800
1E01F000
0FEFE000
07FFC000
01FF0000
ENDCHAR
STARTCHAR 01D2
ENCODING 466
SWIDTH 553 0
DWIDTH 20 0
BBX 18 26 2 0
BITMAP
01C780
01CF00
00CE00
00FC00
007800
000000
000000
03F800
07FE00
1F1F00
3C0780
380380
780380
700380
F003C0
E00380
E00380
E00380
E00380
E00780
E00700
F00F00
701E00
783C00
3FF800
1FE000
ENDCHAR
STARTCHAR 01D3
ENCODING 467
SWIDTH 720 0
DWIDTH 26 0
BBX 23 32 4 0
BITMAP
0070E0
0039C0
003B80
001F00
001E00
000000
1E000E
1C001E
1C001E
3C001E
3C001C
38001C
38003C
38003C
78003C
780038
700038
700078
700078
F00070
F00070
E00070
E000F0
E000F0
E000E0
E001E0
E001C0
F003C0
F80780
7F7F00
3FFE00
0FF800
ENDCHAR
STARTCHAR 01D4
ENCODING 468
SWIDTH 553 0
DWIDTH 20 0
BBX 18 26 2 0
BITMAP
01C380
00E700
00EE00
007C00
007C00
000000
000000
1C01C0
1C01C0
1C03C0
3C0380
380380
380380
380380
380780
780700
700700
700700
700F00
700F00
F00E00
E01E00
F03E00
F8EE00
7FCE00
3F9C00
ENDCHAR
STARTCHAR 01D5
ENCODING 469
SWIDTH 720 0
DWIDTH 26 0
BBX 23 33 4 0
BITMAP
003FE0
003FE0
003FE0
000000
0070C0
0060C0
0060C0
1E000E
1C001E
1C001E
3C001E
3C001C
38001C
38003C
38003C
78003C
780038
700038
700078
700078
F00070
F00070
E00070
E000F0
E000F0
E000E0
E001E0
E001C0
F003C0
F80780
7F7F00
3FFE00
0FF800
ENDCHAR
STARTCHAR 01D6
ENCODING 470
SWIDTH 553 0
DWIDTH 20 0
BBX 18 31 2 0
BITMAP
01FFC0
01FFC0
01FFC0
000000
000000
000000
01C700
03C700
038700
000000
000000
000000
1C01C0
1C01C0
1C03C0
3C0380
380380
380380
380380
380780
780700
700700
700700
700F00
700F00
F00E00
E01E00
F03E00
F8EE00
7FCE00
3F9C00
ENDCHAR
STARTCHAR 01D7
ENCODING 471
SWIDTH 720 0
DWIDTH 26 0
BBX 23 33 4 0
BITMAP
0001E0
0003C0
000700
000E00
0070C0
0060C0
0060C0
1E000E
1C001E
1C001E
3C001E
3C001C
38001C
38003C
38003C
78003C
780038
700038
700078
700078
F00070
F00070
E00070
E000F0
E000F0
E000E0
E001E0
E001C0
F003C0
F80780
7F7F00
3FFE00
0FF800
ENDCHAR
STARTCHAR 01D8
ENCODING 472
SWIDTH 553 0
DWIDTH 20 0
BBX 18 32 2 0
BITMAP
000780
000F00
001E00
001C00
000000
000000
000000
01C700
03C700
038700
000000
000000
000000
1C01C0
1C01C0
1C03C0
3C0380
380380
380380
380380
380780
780700
700700
700700
700F00
700F00
F00E00
E01E00
F03E00
F8EE00
7FCE00
3F9C00
ENDCHAR
STARTCHAR 01D9
ENCODING 473
SWIDTH 720 0
DWIDTH 26 0
BBX 23 33 4 0
BITMAP
0018E0
001DC0
000F00
000600
0070C0
0060C0
0060C0
1E000E
1C001E
1C001E
3C001E
3C001C
38001C
38003C
38003C
78003C
780038
700038
700078
700078
F00070
F00070
E00070
E000F0
E000F0
E000E0
E001E0
E001C0
F003C0
F80780
7F7F00
3FFE00
0FF800
ENDCHAR
STARTCHAR 01DA
ENCODING 474
SWIDTH 553 0
DWIDTH 20 0
BBX 18 32 2 0
BITMAP
0061C0
007380
003700
003E00
000000
000000
000000
01C700
03C700
038700
000000
000000
000000
1C01C0
1C01C0
1C03C0
3C0380
380380
380380
380380
380780
780700
700700
700700
700F00
700F00
F00E00
E01E00
F03E00
F8EE00
7FCE00
3F9C00
ENDCHAR
STARTCHAR 01DB
ENCODING 475
SWIDTH 720 0
DWIDTH 26 0
BBX 23 33 4 0
BITMAP
003C00
001E00
000E00
000700
0070C0
0060C0
0060C0
1E000E
1C001E
1C001E
3C001E
3C001C
38001C
38003C
38003C
78003C
780038
700038
700078
700078
F00070
F00070
E00070
E000F0
E000F0
E000E0
E001E0
E001C0
F003C0
F80780
7F7F00
3FFE00
0FF800
ENDCHAR
STARTCHAR 01DC
ENCODING 476
SWIDTH 553 0
DWIDTH 20 0
BBX 18 32 2 0
BITMAP
007000
007800
003800
001C00
000000
000000
000000
01C700
03C700
038700
000000
000000
000000
1C01C0
1C01C0
1C03C0
3C0380
380380
380380
380380
380780
780700
700700
700700
700F00
700F00
F00E00
E01E00
F03E00
F8EE00
7FCE00
3F9C00
ENDCHAR
STARTCHAR 01FA
ENCODING 506
SWIDTH 664 0
DWIDTH 24 0
BBX 22 36 0 0
BITMAP
00003C
000078
000070
0000E0
0001C0
0001C0
000260
000630
000630
000220
0003C0
0007C0
0007C0
000EE0
001EE0
001CE0
003CE0
0038E0
0078E0
0070F0
00F0F0
01E070
01E070
03C070
038070
078078
07FFF8
0FFFF8
0FFFF8
1E0038
3C0038
3C003C
78003C
70003C
F0001C
E0001C
ENDCHAR
STARTCHAR 01FB
ENCODING 507
SWIDTH 553 0
DWIDTH 20 0
BBX 17 33 2 0
BITMAP
000F00
000E00
001C00
003800
003000
000000
000000
007800
008C00
008400
008400
00CC00
007000
000000
03FC00
0FFE00
1FFF00
3C0780
380380
780380
000380
000780
0FFF00
3FFF00
7E0700
F00700
E00F00
E00E00
E01E00
E03E00
F07E00
7FEE00
3F8E00
ENDCHAR
STARTCHAR 01FC
ENCODING 508
SWIDTH 996 0
DWIDTH 36 0
BBX 39 32 -1 0
BITMAP
000000F000
000001C000
0000038000
0000030000
0000060000
0000000000
0001FFFFFE
0001FFFFFC
0003FFFFFC
0007878000
0007870000
000F070000
000E0F0000
001E0F0000
003C0F0000
00380E0000
00780E0000
00F01FFFF0
00F01FFFF0
01E01FFFF0
01C01C0000
03C01C0000
07FFFC0000
07FFFC0000
0FFFFC0000
0E00380000
1E00780000
3C00780000
3C00780000
78007FFFE0
F0007FFFE0
F000FFFFE0
ENDCHAR
STARTCHAR 01FD
ENCODING 509
SWIDTH 886 0
DWIDTH 32 0
BBX 29 26 2 0
BITMAP
00007800
00007000
0000E000
0001C000
00038000
00000000
00000000
03F83F80
0FFE7FE0
1F1FF9F0
3C07E070
3807C038
78078038
00078038
000F0038
0FFFFFF8
3FFFFFF8
7E0E0000
F00E0000
E00E0000
E01F0070
E01F00E0
E03701E0
F0F7C7C0
7FE3FF80
3F80FE00
ENDCHAR
STARTCHAR 01FE
ENCODING 510
SWIDTH 775 0
DWIDTH 28 0
BBX 25 34 3 -2
BITMAP
0000F000
0001C000
00038000
00030000
00060100
00000180
007FC300
01FFF700
03FFFE00
07C07C00
0F003E00
1E003F00
3C006F00
3C00E700
3801C780
78038780
70070780
70060780
F00C0780
F01C0780
F0380780
F0700700
F0E00F00
70C00F00
71801E00
7B801E00
7F003C00
3E007800
1F01F000
1FEFE000
37FFC000
73FF0000
E0000000
40000000
ENDCHAR
STARTCHAR 01FF
ENCODING 511
SWIDTH 609 0
DWIDTH 22 0
BBX 18 28 3 -2
BITMAP
000F00
001E00
003C00
003800
007000
000000
0000C0
01FDC0
07FF80
0F9F00
1E0780
3C0F80
781F80
703BC0
7071C0
F061C0
E0C3C0
E1C380
E38380
E70780
E60700
FC0F00
7C1E00
7C3C00
7FF800
6FF000
C00000
400000
ENDCHAR
STARTCHAR 0218
ENCODING 536
SWIDTH 664 0
DWIDTH 24 0
BBX 21 35 3 -9
BITMAP
01FF80
07FFC0
0FFFF0
0F00F0
1E0078
1C0078
1C0038
1C0038
1E0000
1F0000
0FC000
07F000
01FE00
007F00
001FC0
0007E0
0001E0
6000E0
E000E0
E000E0
E000E0
F001E0
7803C0
7FBFC0
3FFF00
0FFE00
000000
000000
01E000
01C000
01C000
00C000
008000
038000
060000
ENDCHAR
STARTCHAR 0219
ENCODING 537
SWIDTH 498 0
DWIDTH 18 0
BBX 17 28 1 -9
BITMAP
03FC00
07FE00
0F1F00
1E0780
1C0380
1C0380
1E0000
0F8000
07E000
03F800
00FE00
003E00
300F00
F00F00
700700
780E00
7C1E00
3FFC00
0FF800
000000
000000
038000
038000
078000
018000
030000
060000
0C0000
ENDCHAR
STARTCHAR 021A
ENCODING 538
SWIDTH 609 0
DWIDTH 22 0
BBX 20 36 5 -10
BITMAP
FFFFF0
FFFFF0
FFFFF0
00E000
00E000
01E000
01E000
01E000
01C000
01C000
03C000
03C000
038000
038000
038000
078000
078000
070000
070000
070000
0F0000
0F0000
0E0000
0E0000
0E0000
1E0000
000000
000000
1C0000
3C0000
3C0000
3C0000
080000
180000
300000
600000
ENDCHAR
STARTCHAR 021B
ENCODING 539
SWIDTH 276 0
DWIDTH 10 0
BBX 10 34 2 -8
BITMAP
0300
0600
0E00
0E00
0E00
1E00
7FC0
FF80
FF80
1C00
3C00
3800
3800
3800
3800
7800
7000
7000
7000
7000
F000
E000
F200
FC00
7C00
0000
0000
7000
7000
7000
3000
2000
6000
C000
ENDCHAR
STARTCHAR 0259
ENCODING 601
SWIDTH 553 0
DWIDTH 20 0
BBX 17 19 2 0
BITMAP
01F800
07FE00
0FFF00
1E0700
3C0780
780380
100380
000380
000380
FFFF80
FFFF80
E00380
E00780
E00700
F00F00
701E00
783C00
3FF800
0FE000
ENDCHAR
STARTCHAR 02C6
ENCODING 710
SWIDTH 332 0
DWIDTH 12 0
BBX 10 5 4 21
BITMAP
0F00
1F00
3B80
7180
E1C0
ENDCHAR
STARTCHAR 02C7
ENCODING 711
SWIDTH 332 0
DWIDTH 12 0
BBX 10 5 5 21
BITMAP
E3C0
E780
6700
7E00
3C00
ENDCHAR
STARTCHAR 02C9
ENCODING 713
SWIDTH 332 0
DWIDTH 12 0
BBX 11 2 4 22
BITMAP
FFE0
FFE0
ENDCHAR
STARTCHAR 02D8
ENCODING 728
SWIDTH 332 0
DWIDTH 12 0
BBX 10 5 4 20
BITMAP
C0C0
E1C0
7F80
3F00
0800
ENDCHAR
STARTCHAR 02D9
ENCODING 729
SWIDTH 332 0
DWIDTH 12 0
BBX 5 4 7 21
BITMAP
78
F0
F0
F0
ENDCHAR
STARTCHAR 02DA
ENCODING 730
SWIDTH 332 0
DWIDTH 12 0
BBX 6 6 6 20
BITMAP
78
CC
84
84
CC
78
ENDCHAR
STARTCHAR 02DB
ENCODING 731
SWIDTH 332 0
DWIDTH 12 0
BBX 8 7 2 -7
BITMAP
60
60
C0
C0
E1
FE
7E
ENDCHAR
STARTCHAR 02DC
ENCODING 732
SWIDTH 332 0
DWIDTH 12 0
BBX 11 3 4 23
BITMAP
7C60
FFE0
C7C0
ENDCHAR
STARTCHAR 02DD
ENCODING 733
SWIDTH 332 0
DWIDTH 12 0
BBX 13 5 3 21
BITMAP
1E78
3CF0
38E0
71C0
E380
ENDCHAR
STARTCHAR 0300
ENCODING 768
SWIDTH 0 0
DWIDTH 0 0
BBX 5 5 -4 27
BITMAP
E0
F0
70
38
18
ENDCHAR
STARTCHAR 0301
ENCODING 769
SWIDTH 0 0
DWIDTH 0 0
BBX 7 5 -3 27
BITMAP
1E
3C
78
70
E0
ENDCHAR
STARTCHAR 0303
ENCODING 771
SWIDTH 0 0
DWIDTH 0 0
BBX 12 4 -12 27
BITMAP
3E30
7FF0
67E0
E0C0
ENDCHAR
STARTCHAR 0309
ENCODING 777
SWIDTH 0 0
DWIDTH 0 0
BBX 8 5 -4 27
BITMAP
FE
0F
0E
3C
30
ENDCHAR
STARTCHAR 0323
ENCODING 803
SWIDTH 0 0
DWIDTH 0 0
BBX 4 4 -16 -6
BITMAP
F0
F0
F0
E0
ENDCHAR
STARTCHAR 037E
ENCODING 894
SWIDTH 276 0
DWIDTH 10 0
BBX 8 24 1 -5
BITMAP
07
07
0F
0F
00
00
00
00
00
00
00
00
00
00
00
38
78
78
78
10
10
30
60
C0
ENDCHAR
STARTCHAR 0384
ENCODING 900
SWIDTH 332 0
DWIDTH 12 0
BBX 7 5 7 21
BITMAP
1E
3C
78
70
E0
ENDCHAR
STARTCHAR 0385
ENCODING 901
SWIDTH 332 0
DWIDTH 12 0
BBX 14 5 2 21
BITMAP
01C0
0380
E31C
E71C
E63C
ENDCHAR
STARTCHAR 0386
ENCODING 902
SWIDTH 664 0
DWIDTH 24 0
BBX 23 26 -1 0
BITMAP
00F9E0
01F3E0
03C3E0
038770
000F70
000E70
001E70
001C70
003C70
003878
007878
00F078
00F038
01E038
01C038
03C03C
03FFFC
07FFFC
0FFFFC
0F001C
1E001C
1E001C
3C001E
38001E
78000E
F0000E
ENDCHAR
STARTCHAR 0387
ENCODING 903
SWIDTH 276 0
DWIDTH 10 0
BBX 5 4 5 15
BITMAP
78
70
70
F0
ENDCHAR
STARTCHAR 0388
ENCODING 904
SWIDTH 775 0
DWIDTH 28 0
BBX 28 26 2 0
BITMAP
1F7FFFF0
3C7FFFF0
787FFFF0
E0700000
00F00000
00F00000
00E00000
00E00000
00E00000
01E00000
01E00000
01FFFF80
01FFFF80
01FFFF80
03C00000
03C00000
03800000
03800000
07800000
07800000
07800000
07000000
07000000
0FFFFF00
0FFFFF00
0FFFFF00
ENDCHAR
STARTCHAR 0389
ENCODING 905
SWIDTH 858 0
DWIDTH 31 0
BBX 30 26 2 0
BITMAP
1F78003C
3C780038
78700038
F0700038
00700078
00F00078
00F00070
00E00070
00E00070
01E000F0
01E000F0
01FFFFE0
01FFFFE0
01FFFFE0
03C001E0
03C001E0
038001C0
038001C0
038003C0
078003C0
07800380
07000380
07000380
07000780
0F000780
0F000700
ENDCHAR
STARTCHAR 038A
ENCODING 906
SWIDTH 387 0
DWIDTH 14 0
BBX 13 26 2 0
BITMAP
1F78
3C78
7870
E070
00F0
00F0
00E0
00E0
00E0
01E0
01E0
01C0
01C0
01C0
03C0
03C0
0380
0380
0780
0780
0780
0700
0700
0F00
0F00
0F00
ENDCHAR
STARTCHAR 038C
ENCODING 908
SWIDTH 803 0
DWIDTH 29 0
BBX 26 26 2 0
BITMAP
3E1FF000
3C7FFC00
79FFFE00
E3E01F00
07C00F80
07800780
0F0003C0
1E0003C0
1E0001C0
1C0001C0
3C0001C0
3C0001C0
380001C0
380001C0
380001C0
380003C0
380003C0
38000780
3C000780
3C000F00
1E001F00
1F003E00
0F807C00
07F7F800
03FFE000
00FF8000
ENDCHAR
STARTCHAR 038E
ENCODING 910
SWIDTH 858 0
DWIDTH 31 0
BBX 33 26 2 0
BITMAP
1F78000780
3C3C000F00
783C001E00
E01E003C00
001E007C00
000F007800
000F00F000
000781E000
000383E000
0003C3C000
0001C78000
0001EF0000
0000EF0000
0000FE0000
00007C0000
0000780000
0000780000
0000700000
0000700000
0000700000
0000F00000
0000F00000
0000E00000
0000E00000
0001E00000
0001E00000
ENDCHAR
STARTCHAR 038F
ENCODING 911
SWIDTH 775 0
DWIDTH 28 0
BBX 27 26 1 0
BITMAP
1F0FF000
1E3FFC00
3CFFFE00
71F01F00
03E00780
03C003C0
078003C0
0F0001C0
0F0001C0
0E0001E0
1E0001E0
1E0001E0
1C0001E0
1C0001C0
1C0001C0
1C0001C0
1C0003C0
1C000380
1E000780
0E000700
0F000E00
07801E00
03C07800
FFE1FFC0
FFE1FFC0
FFC1FFC0
ENDCHAR
STARTCHAR 0390
ENCODING 912
SWIDTH 221 0
DWIDTH 8 0
BBX 14 26 0 0
BITMAP
01C0
0380
E31C
E71C
EE3C
0000
0000
0700
0700
0700
0F00
0E00
0E00
0E00
1E00
1C00
1C00
1C00
1C00
3C00
3800
3800
3800
3800
7800
7000
ENDCHAR
STARTCHAR 0391
ENCODING 913
SWIDTH 664 0
DWIDTH 24 0
BBX 22 26 0 0
BITMAP
0003C0
0007C0
0007C0
000EE0
001EE0
001CE0
003CE0
0038E0
0078E0
0070F0
00F0F0
01E070
01E070
03C070
038070
078078
07FFF8
0FFFF8
0FFFF8
1E0038
3C0038
3C003C
78003C
70003C
F0001C
E0001C
ENDCHAR
STARTCHAR 0392
ENCODING 914
SWIDTH 664 0
DWIDTH 24 0
BBX 22 26 2 0
BITMAP
07FF80
07FFE0
0FFFF0
0F0078
0F0038
0E003C
0E003C
1E003C
1E0038
1C0078
1C00F0
1FFFE0
3FFF80
3FFFE0
3801F0
380078
380078
780038
780038
700078
700078
7000F0
F003E0
FFFFE0
FFFF80
FFFE00
ENDCHAR
STARTCHAR 0393
ENCODING 915
SWIDTH 581 0
DWIDTH 21 0
BBX 22 26 2 0
BITMAP
07FFFC
07FFFC
0FFFF8
0F0000
0E0000
0E0000
0E0000
1E0000
1E0000
1C0000
1C0000
1C0000
3C0000
3C0000
380000
380000
380000
780000
780000
700000
700000
F00000
F00000
F00000
E00000
E00000
ENDCHAR
STARTCHAR 0394
ENCODING 916
SWIDTH 664 0
DWIDTH 24 0
BBX 23 26 0 0
BITMAP
0003C0
0003E0
0007E0
000FE0
000EE0
001EE0
001CE0
003CF0
0038F0
007870
00F070
00F070
01E070
01C078
03C078
038038
078038
0F0038
0F0038
1E003C
1E003C
3C001C
38001C
7FFFFC
FFFFFC
FFFFFE
ENDCHAR
STARTCHAR 0395
ENCODING 917
SWIDTH 664 0
DWIDTH 24 0
BBX 24 26 2 0
BITMAP
07FFFF
07FFFE
07FFFE
0F0000
0F0000
0E0000
0E0000
1E0000
1E0000
1E0000
1C0000
1FFFF8
3FFFF8
3FFFF8
380000
380000
380000
780000
780000
700000
700000
700000
F00000
FFFFF0
FFFFF0
FFFFE0
ENDCHAR
STARTCHAR 0396
ENCODING 918
SWIDTH 609 0
DWIDTH 22 0
BBX 22 26 1 0
BITMAP
0FFFFC
0FFFFC
0FFFFC
000078
0000F0
0001E0
0003E0
0003C0
000780
000F00
001E00
003C00
007C00
007800
00F000
01E000
03C000
078000
0F8000
1F0000
1E0000
3C0000
780000
FFFFF0
FFFFE0
FFFFE0
ENDCHAR
STARTCHAR 0397
ENCODING 919
SWIDTH 720 0
DWIDTH 26 0
BBX 25 26 2 0
BITMAP
07000380
07000780
0F000780
0F000780
0E000700
0E000700
0E000F00
1E000F00
1E000E00
1C000E00
1C000E00
1FFFFE00
3FFFFE00
3FFFFC00
38001C00
38001C00
78003C00
78003C00
78003800
70003800
70003800
F0007800
F0007800
E0007000
E0007000
E000F000
ENDCHAR
STARTCHAR 0398
ENCODING 920
SWIDTH 775 0
DWIDTH 28 0
BBX 25 26 3 0
BITMAP
007FE000
01FFF000
03FFFC00
07C07C00
0F001E00
1E000F00
3C000F00
3C000700
38000780
78000780
70000780
70000780
F0FFC780
F0FF8780
F1FF8780
F0000700
F0000F00
70000F00
70001E00
78001E00
78003C00
3C007800
1F00F000
0FCFE000
07FFC000
03FF0000
ENDCHAR
STARTCHAR 0399
ENCODING 921
SWIDTH 276 0
DWIDTH 10 0
BBX 9 26 2 0
BITMAP
0780
0780
0700
0700
0700
0F00
0F00
0E00
0E00
0E00
1E00
1E00
1C00
1C00
3C00
3C00
3C00
3800
3800
7800
7800
7000
7000
7000
F000
F000
ENDCHAR
STARTCHAR 039A
ENCODING 922
SWIDTH 664 0
DWIDTH 24 0
BBX 24 26 2 0
BITMAP
07000F
07003E
07007C
0F00F8
0F01F0
0E03E0
0E07C0
1E0F00
1E3E00
1C7C00
1CF800
1DF800
3FFC00
3FDC00
3F1E00
3E0F00
3C0F00
780780
780780
7003C0
7001C0
7001E0
F000F0
F000F0
E00078
E00078
ENDCHAR
STARTCHAR 039B
ENCODING 923
SWIDTH 664 0
DWIDTH 24 0
BBX 22 26 0 0
BITMAP
0003C0
0007C0
0007C0
000FC0
001FC0
001DE0
003DE0
0038E0
0078E0
0070E0
00F0F0
00E0F0
01E070
01C070
038070
078070
070078
0F0078
0E0038
1E0038
1C0038
3C003C
38003C
78001C
F0001C
E0001C
ENDCHAR
STARTCHAR 039C
ENCODING 924
SWIDTH 830 0
DWIDTH 30 0
BBX 29 26 2 0
BITMAP
07800078
078000F8
0FC000F8
0FC001F8
0FC001F8
0FC003B0
0FC003F0
1EC00770
1EE00F70
1CE00EF0
1CE01EE0
1CE01CE0
3CE038E0
3CE039E0
386071E0
3870F1C0
3870E1C0
7871E1C0
7871C3C0
70738380
70738380
70370380
F03F0780
E03E0780
E03E0700
E03C0700
ENDCHAR
STARTCHAR 039D
ENCODING 925
SWIDTH 720 0
DWIDTH 26 0
BBX 25 26 2 0
BITMAP
07800380
07800380
07C00780
0FC00780
0EC00700
0EE00700
0EE00700
0E700F00
1E700F00
1E780E00
1C380E00
1C3C0E00
1C1C1E00
3C1E1E00
3C0E1C00
380E1C00
380F1C00
38073C00
7807BC00
7003B800
7003B800
7001B800
F001F800
F001F000
E000F000
E000F000
ENDCHAR
STARTCHAR 039E
ENCODING 926
SWIDTH 636 0
DWIDTH 23 0
BBX 25 26 0 0
BITMAP
01FFFF80
03FFFF80
03FFFF00
00000000
00000000
00000000
00000000
00000000
00000000
00000000
00000000
07FFFC00
07FFFC00
0FFFFC00
00000000
00000000
00000000
00000000
00000000
00000000
00000000
00000000
00000000
7FFFF800
FFFFF800
FFFFF800
ENDCHAR
STARTCHAR 039F
ENCODING 927
SWIDTH 775 0
DWIDTH 28 0
BBX 25 26 3 0
BITMAP
003FC000
01FFF000
03FFFC00
07C03C00
0F001E00
1E000F00
3C000F00
3C000700
78000780
78000780
70000780
70000780
F0000780
F0000780
F0000780
F0000700
F0000F00
70000F00
70001E00
78001E00
78003C00
3C007800
1E01F000
0FEFE000
07FFC000
01FF0000
ENDCHAR
STARTCHAR 03A0
ENCODING 928
SWIDTH 720 0
DWIDTH 26 0
BBX 25 26 2 0
BITMAP
07FFFF80
07FFFF80
0FFFFF80
0F000780
0F000700
0E000700
0E000700
1E000F00
1E000F00
1E000E00
1C000E00
1C001E00
3C001E00
3C001C00
38001C00
38001C00
38003C00
78003C00
78003800
70003800
70003800
F0007800
F0007800
F0007000
E0007000
E000F000
ENDCHAR
STARTCHAR 03A1
ENCODING 929
SWIDTH 664 0
DWIDTH 24 0
BBX 23 26 2 0
BITMAP
07FFE0
07FFF8
0FFFFC
0F003E
0E001E
0E000E
0E000E
1E000E
1E001E
1C001E
1C003C
1C007C
3C07F8
3FFFF0
3FFFC0
3FF000
380000
780000
780000
700000
700000
F00000
F00000
F00000
E00000
E00000
ENDCHAR
STARTCHAR 03A3
ENCODING 931
SWIDTH 609 0
DWIDTH 22 0
BBX 23 26 1 0
BITMAP
07FFFE
07FFFE
07FFFE
078000
078000
03C000
01E000
00F000
00F800
007800
003C00
001E00
000F00
001F00
003E00
007800
01F000
03E000
07C000
0F8000
1F0000
3E0000
7C0000
FFFFC0
FFFFC0
FFFFC0
ENDCHAR
STARTCHAR 03A4
ENCODING 932
SWIDTH 609 0
DWIDTH 22 0
BBX 20 26 5 0
BITMAP
FFFFF0
FFFFF0
FFFFF0
00E000
00E000
01E000
01E000
01E000
01C000
01C000
03C000
03C000
038000
038000
038000
078000
078000
070000
070000
070000
0F0000
0F0000
0E0000
0E0000
0E0000
1E0000
ENDCHAR
STARTCHAR 03A5
ENCODING 933
SWIDTH 664 0
DWIDTH 24 0
BBX 24 26 4 0
BITMAP
F0001F
78001E
78003C
3C0078
3C00F8
1E00F0
1E01E0
0F03C0
0F07C0
078F80
078F00
03DE00
03FC00
01FC00
01F800
00F000
00F000
00E000
00E000
01E000
01E000
01C000
01C000
01C000
03C000
03C000
ENDCHAR
STARTCHAR 03A6
ENCODING 934
SWIDTH 830 0
DWIDTH 30 0
BBX 27 28 3 -1
BITMAP
0001C000
0003C000
0003C000
00038000
007FF800
03FFFE00
07FFFF00
1F878F80
1E0703C0
3C0701C0
780F01E0
700F01E0
700F01E0
F00E01E0
F00E01E0
F01E01C0
F01E03C0
F01C0380
781C0780
7C1C1F00
3F3CFE00
1FFFFC00
07FFF000
007F0000
00780000
00780000
00700000
00700000
ENDCHAR
STARTCHAR 03A7
ENCODING 935
SWIDTH 664 0
DWIDTH 24 0
BBX 28 26 -1 0
BITMAP
078000F0
038001F0
03C003E0
01E007C0
01E00F80
00F01F00
00F03E00
00787C00
0038F800
003CF000
001DE000
001FC000
000F8000
000F0000
001F8000
003F8000
007BC000
00F1E000
01E1E000
03E0F000
07C07000
0F807800
1F003800
3E003C00
7C001E00
F8001E00
ENDCHAR
STARTCHAR 03A8
ENCODING 936
SWIDTH 830 0
DWIDTH 30 0
BBX 28 26 4 0
BITMAP
3C0780F0
380780F0
380700E0
780700E0
780F00E0
780F01E0
700E01E0
700E01C0
700E01C0
F01E03C0
F01E03C0
701C0780
701C0780
781C0F00
3E3C3E00
1FFFFC00
0FFFF000
01FFC000
00780000
00780000
00780000
00700000
00700000
00F00000
00F00000
00E00000
ENDCHAR
STARTCHAR 03A9
ENCODING 937
SWIDTH 747 0
DWIDTH 27 0
BBX 27 26 0 0
BITMAP
0007F800
003FFE00
007FFF00
00F80F80
01E007C0
03C003C0
03C001E0
078001E0
070000E0
0F0000E0
0E0000E0
0E0000E0
1E0000E0
1E0000E0
1E0000E0
1E0001E0
0E0001C0
0E0001C0
0E0003C0
07000780
07000700
03800E00
01C03C00
7FF0FFE0
FFE0FFE0
FFE0FFC0
ENDCHAR
STARTCHAR 03AA
ENCODING 938
SWIDTH 276 0
DWIDTH 10 0
BBX 13 31 2 0
BITMAP
0E38
1E38
1C38
1C78
0000
0780
0780
0700
0700
0700
0F00
0F00
0E00
0E00
0E00
1E00
1E00
1C00
1C00
3C00
3C00
3C00
3800
3800
7800
7800
7000
7000
7000
F000
F000
ENDCHAR
STARTCHAR 03AB
ENCODING 939
SWIDTH 664 0
DWIDTH 24 0
BBX 24 31 4 0
BITMAP
00E3C0
00E380
01E380
01E380
000000
F0001F
78001E
78003C
3C0078
3C00F8
1E00F0
1E01E0
0F03C0
0F07C0
078F80
078F00
03DE00
03FC00
01FC00
01F800
00F000
00F000
00E000
00E000
01E000
01E000
01C000
01C000
01C000
03C000
03C000
ENDCHAR
STARTCHAR 03AC
ENCODING 940
SWIDTH 581 0
DWIDTH 21 0
BBX 20 26 2 0
BITMAP
001E00
003C00
003800
007000
00E000
000000
000000
03F0F0
0FF8E0
1FFDE0
3C0FC0
3807C0
780780
700780
F00700
E00700
E00600
E00600
E00600
E00E00
E00E00
E01F00
F03F00
78FF00
3FEF00
1F8F00
ENDCHAR
STARTCHAR 03AD
ENCODING 941
SWIDTH 443 0
DWIDTH 16 0
BBX 16 26 1 0
BITMAP
003C
0078
0070
00E0
01C0
0000
0000
03F8
07FC
0FBF
1E0C
1C00
1C00
1C00
1E00
0FC0
0FC0
3FC0
7800
7000
F000
F000
F010
7878
7FF8
1FE0
ENDCHAR
STARTCHAR 03AE
ENCODING 942
SWIDTH 553 0
DWIDTH 20 0
BBX 18 33 1 -7
BITMAP
000F00
001E00
001C00
003800
007000
000000
000000
0E1F00
0E7F80
0FFFC0
1F81C0
1F01C0
1E01C0
1C01C0
1C03C0
3C0380
380380
380380
380380
380780
780700
700700
700700
700700
700F00
F00E00
000E00
000E00
000E00
001E00
001C00
001C00
001C00
ENDCHAR
STARTCHAR 03AF
ENCODING 943
SWIDTH 221 0
DWIDTH 8 0
BBX 10 26 1 0
BITMAP
03C0
0780
0700
0E00
1C00
0000
0000
0E00
0E00
0E00
1E00
1C00
1C00
1C00
3C00
3800
3800
3800
3800
7800
7000
7000
7000
7000
F000
E000
ENDCHAR
STARTCHAR 03B0
ENCODING 944
SWIDTH 553 0
DWIDTH 20 0
BBX 17 26 3 0
BITMAP
003800
007000
1C6380
1CE380
1DC780
000000
000000
380380
380380
380780
780700
700700
700700
700700
700F00
F00E00
E00E00
E00E00
E00E00
E01C00
E01C00
E03C00
E03800
F8F800
7FF000
3FC000
ENDCHAR
STARTCHAR 03B1
ENCODING 945
SWIDTH 581 0
DWIDTH 21 0
BBX 20 19 2 0
BITMAP
03F0F0
0FF8E0
1FFDE0
3C0FC0
3807C0
780780
700780
F00700
E00700
E00600
E00600
E00600
E00E00
E00E00
E01F00
F03F00
78FF00
3FEF00
1F8F00
ENDCHAR
STARTCHAR 03B2
ENCODING 946
SWIDTH 581 0
DWIDTH 21 0
BBX 20 33 0 -7
BITMAP
003F80
007FC0
01F9E0
01E0F0
03C070
038070
078070
070070
0700E0
0701E0
0F07C0
0E3F00
0E3F00
0E0780
0E01C0
1E00E0
1C00E0
1C00E0
1C00E0
3C00E0
3C00E0
3E01E0
3E01C0
3F0380
7BFF80
71FE00
700000
700000
700000
F00000
E00000
E00000
E00000
ENDCHAR
STARTCHAR 03B3
ENCODING 947
SWIDTH 498 0
DWIDTH 18 0
BBX 17 26 3 -7
BITMAP
E00380
E00700
E00700
E00E00
F01E00
701C00
703C00
703800
707000
707000
30E000
38E000
39C000
3B8000
3B8000
3F0000
1F0000
1E0000
1E0000
1C0000
1C0000
1C0000
380000
380000
380000
380000
ENDCHAR
STARTCHAR 03B4
ENCODING 948
SWIDTH 553 0
DWIDTH 20 0
BBX 19 26 2 0
BITMAP
07FFE0
07FFE0
07FFE0
038000
03C000
01E000
00F000
007800
07FC00
0FFE00
1E0F00
3C0780
780380
700380
F00380
E00380
E00380
E00380
E00380
E00780
E00700
F00F00
701E00
783C00
3FF800
1FF000
ENDCHAR
STARTCHAR 03B5
ENCODING 949
SWIDTH 443 0
DWIDTH 16 0
BBX 16 19 1 0
BITMAP
03F8
07FC
0FBF
1E0C
1C00
1C00
1C00
1E00
0FC0
0FC0
3FC0
7800
7000
F000
F000
F010
7878
7FF8
1FE0
ENDCHAR
STARTCHAR 03B6
ENCODING 950
SWIDTH 470 0
DWIDTH 17 0
BBX 18 33 2 -7
BITMAP
03FFC0
03FFC0
03FFC0
000F00
003C00
007800
00E000
01C000
038000
070000
0E0000
1C0000
3C0000
380000
700000
700000
F00000
E00000
E00000
E00000
E00000
E00000
F00000
7F8000
3FE000
1FE000
00F000
007000
007000
007000
00E000
07E000
0F8000
ENDCHAR
STARTCHAR 03B7
ENCODING 951
SWIDTH 553 0
DWIDTH 20 0
BBX 18 26 1 -7
BITMAP
0E1F00
0E7F80
0FFFC0
1F81C0
1F01C0
1E01C0
1C01C0
1C03C0
3C0380
380380
380380
380380
380780
780700
700700
700700
700700
700F00
F00E00
000E00
000E00
000E00
001E00
001C00
001C00
001C00
ENDCHAR
STARTCHAR 03B8
ENCODING 952
SWIDTH 553 0
DWIDTH 20 0
BBX 18 26 2 0
BITMAP
00FE00
03FF00
07CF80
070380
0E03C0
1E01C0
1C01C0
3C01C0
3801C0
3801C0
7801C0
7001C0
7FFFC0
7FFFC0
FFFF80
F00380
F00380
E00780
E00700
F00F00
700E00
701E00
783C00
3C7800
1FF000
0FE000
ENDCHAR
STARTCHAR 03B9
ENCODING 953
SWIDTH 221 0
DWIDTH 8 0
BBX 7 19 1 0
BITMAP
0E
0E
0E
1E
1C
1C
1C
3C
38
38
38
38
78
70
70
70
70
F0
E0
ENDCHAR
STARTCHAR 03BA
ENCODING 954
SWIDTH 498 0
DWIDTH 18 0
BBX 19 19 1 0
BITMAP
0E03E0
0E0780
0E0F00
1E1E00
1C3C00
1C7800
1CE000
1DC000
3FC000
3FC000
3EE000
38F000
787000
707800
703800
703C00
701E00
F01E00
E00F00
ENDCHAR
STARTCHAR 03BB
ENCODING 955
SWIDTH 498 0
DWIDTH 18 0
BBX 17 26 -1 0
BITMAP
003800
003800
003C00
003C00
001C00
001C00
001C00
001C00
003C00
003E00
007E00
007E00
00EE00
01CE00
01CE00
038F00
038700
070700
070700
0E0700
1C0700
1C0700
380780
380380
700380
F00380
ENDCHAR
STARTCHAR 03BC
ENCODING 956
SWIDTH 553 0
DWIDTH 20 0
BBX 20 26 0 -7
BITMAP
070070
070070
0700F0
0F00E0
0E00E0
0E00E0
0E00E0
0E01C0
1C01C0
1C01C0
1C01C0
1C03C0
3C0380
3C0380
3C0780
3C0780
3F1F80
7FFF00
73F700
700000
700000
700000
E00000
E00000
E00000
E00000
ENDCHAR
STARTCHAR 03BD
ENCODING 957
SWIDTH 498 0
DWIDTH 18 0
BBX 17 19 3 0
BITMAP
E00380
E00700
E00700
E00E00
701E00
701C00
703C00
703800
707000
707000
38E000
38E000
39C000
39C000
3B8000
3B0000
3F0000
1E0000
1E0000
ENDCHAR
STARTCHAR 03BE
ENCODING 958
SWIDTH 443 0
DWIDTH 16 0
BBX 16 33 2 -7
BITMAP
00FF
03FF
07F0
0700
0F00
0E00
0E00
0F00
07C0
03FC
01FC
07E0
1F00
3E00
3800
7800
7000
F000
E000
E000
F000
F000
7800
7F00
3FE0
0FF0
00F0
0070
0070
0070
00F0
07E0
0F80
ENDCHAR
STARTCHAR 03BF
ENCODING 959
SWIDTH 553 0
DWIDTH 20 0
BBX 18 19 2 0
BITMAP
03F800
07FE00
1F1F00
3C0780
380380
780380
700380
F003C0
E00380
E00380
E00380
E00380
E00780
E00700
F00F00
701E00
783C00
3FF800
1FE000
ENDCHAR
STARTCHAR 03C0
ENCODING 960
SWIDTH 664 0
DWIDTH 24 0
BBX 23 19 3 0
BITMAP
7FFFFE
FFFFFE
FFFFFC
0E01C0
0E01C0
0E03C0
1E0380
1C0380
1C0380
1C0380
1C0780
3C0700
380700
380700
380F00
780E00
700E00
700E00
700E00
ENDCHAR
STARTCHAR 03C1
ENCODING 961
SWIDTH 581 0
DWIDTH 21 0
BBX 20 26 0 -7
BITMAP
003F00
00FFC0
01FFE0
03C1E0
0780F0
070070
0E0070
0E0070
1E0070
1C0070
1C0070
1C00F0
3C00E0
3C01E0
3E01C0
3E03C0
3F8F80
7FFF00
71FC00
700000
700000
700000
F00000
E00000
E00000
E00000
ENDCHAR
STARTCHAR 03C2
ENCODING 962
SWIDTH 498 0
DWIDTH 18 0
BBX 17 26 2 -7
BITMAP
00FF00
03FF80
0FF780
1F0000
3E0000
380000
780000
700000
F00000
E00000
E00000
E00000
E00000
F00000
780000
3C0000
1F0000
0F8000
03E000
01E000
007000
007000
007000
01E000
1FE000
3FC000
ENDCHAR
STARTCHAR 03C3
ENCODING 963
SWIDTH 609 0
DWIDTH 22 0
BBX 21 19 2 0
BITMAP
03FFF8
07FFF8
1F1FF8
3C0700
380380
780380
700380
F00380
E00380
E00380
E00380
E00380
E00780
E00700
F00F00
F01E00
783C00
3FF800
1FF000
ENDCHAR
STARTCHAR 03C4
ENCODING 964
SWIDTH 387 0
DWIDTH 14 0
BBX 12 19 3 0
BITMAP
7FF0
FFF0
FFF0
0E00
0E00
0E00
1E00
1C00
1C00
1C00
1C00
3C00
3800
3800
3800
3800
7800
7000
7000
ENDCHAR
STARTCHAR 03C5
ENCODING 965
SWIDTH 553 0
DWIDTH 20 0
BBX 17 19 3 0
BITMAP
380380
380380
380780
780700
700700
700700
700700
700F00
F00E00
E00E00
E00E00
E00E00
E01C00
E01C00
E03C00
E03800
F8F800
7FF000
3FC000
ENDCHAR
STARTCHAR 03C6
ENCODING 966
SWIDTH 664 0
DWIDTH 24 0
BBX 21 26 2 -7
BITMAP
0187C0
078FE0
1F9FF0
1E1C70
3C3C38
783838
703838
F03838
E07038
E07038
E07038
E07070
E0F070
F0E0F0
70E1E0
78E3C0
3EFF80
1FFF00
0FFC00
01C000
01C000
01C000
03C000
038000
038000
038000
ENDCHAR
STARTCHAR 03C7
ENCODING 967
SWIDTH 553 0
DWIDTH 20 0
BBX 23 26 -2 -7
BITMAP
03801E
03801C
03C03C
01C078
01C0F0
01C0E0
00E1E0
00E3C0
00E780
00F700
007F00
007E00
007C00
007C00
00FC00
01FC00
01CE00
03CE00
078E00
0F0700
0E0700
1E0700
3C0780
780380
780380
F003C0
ENDCHAR
STARTCHAR 03C8
ENCODING 968
SWIDTH 720 0
DWIDTH 26 0
BBX 23 26 3 -7
BITMAP
381C0E
381C0E
381C0E
783C0E
70381E
70381C
70381C
70381C
F0781C
E0703C
E07038
E07038
E07038
E0F070
E0E070
F0E0E0
78E3E0
3FFFC0
1FFF00
01C000
01C000
01C000
03C000
038000
038000
038000
ENDCHAR
STARTCHAR 03C9
ENCODING 969
SWIDTH 775 0
DWIDTH 28 0
BBX 26 19 2 0
BITMAP
07000380
0E000380
1E000380
1C000380
380003C0
380E03C0
700E03C0
700E03C0
F01E0380
E01C0380
E01C0380
E01C0380
E03C0780
E03C0700
E07C0F00
E07C0E00
71EE3C00
7FC7F800
3F83F000
ENDCHAR
STARTCHAR 03CA
ENCODING 970
SWIDTH 221 0
DWIDTH 8 0
BBX 12 25 1 0
BITMAP
38F0
38E0
78E0
0000
0000
0000
0E00
0E00
0E00
1E00
1C00
1C00
1C00
3C00
3800
3800
3800
3800
7800
7000
7000
7000
7000
F000
E000
ENDCHAR
STARTCHAR 03CB
ENCODING 971
SWIDTH 553 0
DWIDTH 20 0
BBX 17 25 3 0
BITMAP
038F00
038E00
078E00
000000
000000
000000
380380
380380
380780
780700
700700
700700
700700
700F00
F00E00
E00E00
E00E00
E00E00
E01C00
E01C00
E03C00
E03800
F8F800
7FF000
3FC000
ENDCHAR
STARTCHAR 03CC
ENCODING 972
SWIDTH 553 0
DWIDTH 20 0
BBX 18 26 2 0
BITMAP
001E00
001C00
003800
007000
00E000
000000
000000
03F800
07FE00
1F1F00
3C0780
380380
780380
700380
F003C0
E00380
E00380
E00380
E00380
E00780
E00700
F00F00
701E00
783C00
3FF800
1FE000
ENDCHAR
STARTCHAR 03CD
ENCODING 973
SWIDTH 553 0
DWIDTH 20 0
BBX 17 26 3 0
BITMAP
003C00
007800
007000
00E000
01C000
000000
000000
380380
380380
380780
780700
700700
700700
700700
700F00
F00E00
E00E00
E00E00
E00E00
E01C00
E01C00
E03C00
E03800
F8F800
7FF000
3FC000
ENDCHAR
STARTCHAR 03CE
ENCODING 974
SWIDTH 775 0
DWIDTH 28 0
BBX 26 26 2 0
BITMAP
0001E000
0003C000
00038000
00070000
000E0000
00000000
00000000
07000380
0E000380
1E000380
1C000380
380003C0
380E03C0
700E03C0
700E03C0
F01E0380
E01C0380
E01C0380
E01C0380
E03C0780
E03C0700
E07C0F00
E07C0E00
71EE3C00
7FC7F800
3F83F000
ENDCHAR
STARTCHAR 0401
ENCODING 1025
SWIDTH 664 0
DWIDTH 24 0
BBX 24 31 2 0
BITMAP
003C70
003870
0038F0
0038E0
000000
07FFFF
07FFFE
07FFFE
0F0000
0F0000
0E0000
0E0000
1E0000
1E0000
1E0000
1C0000
1FFFF8
3FFFF8
3FFFF8
380000
380000
380000
780000
780000
700000
700000
700000
F00000
FFFFF0
FFFFF0
FFFFE0
ENDCHAR
STARTCHAR 0402
ENCODING 1026
SWIDTH 830 0
DWIDTH 30 0
BBX 26 26 4 0
BITMAP
7FFFF800
FFFFF800
FFFFF800
00F00000
00F00000
00E00000
00E00000
00E00000
01E00000
01E04000
01CFFC00
01FFFF00
03FC1F00
03E00780
03C00380
038003C0
038003C0
078003C0
078003C0
07000380
07000780
07000780
0F000F00
0F0E7E00
0E0FFC00
0E0FF000
ENDCHAR
STARTCHAR 0403
ENCODING 1027
SWIDTH 553 0
DWIDTH 20 0
BBX 22 32 2 0
BITMAP
000F80
000E00
001C00
003800
003000
000000
07FFFC
07FFF8
0FFFF8
0F0000
0E0000
0E0000
0E0000
1E0000
1E0000
1C0000
1C0000
1C0000
3C0000
3C0000
380000
380000
380000
780000
780000
700000
700000
F00000
F00000
E00000
E00000
E00000
ENDCHAR
STARTCHAR 0404
ENCODING 1028
SWIDTH 720 0
DWIDTH 26 0
BBX 23 26 3 0
BITMAP
007FC0
01FFF0
03FFF8
07C07C
0F001C
1E001E
1E000E
3C000E
380000
780000
780000
7FFC00
7FF800
FFF800
F00000
F00000
F00000
F0001C
70003C
700038
780078
3C00F0
3E01E0
1F8FC0
0FFF80
03FE00
ENDCHAR
STARTCHAR 0405
ENCODING 1029
SWIDTH 664 0
DWIDTH 24 0
BBX 21 26 3 0
BITMAP
01FF80
07FFC0
0FFFF0
0F00F0
1E0078
1C0078
1C0038
1C0038
1E0000
1F0000
0FC000
07F000
01FE00
007F00
001FC0
0007E0
0001E0
6000E0
E000E0
E000E0
E000E0
F001E0
7803C0
7FBFC0
3FFF00
0FFE00
ENDCHAR
STARTCHAR 0406
ENCODING 1030
SWIDTH 276 0
DWIDTH 10 0
BBX 9 26 2 0
BITMAP
0780
0780
0700
0700
0700
0F00
0F00
0E00
0E00
0E00
1E00
1E00
1C00
1C00
3C00
3C00
3C00
3800
3800
7800
7800
7000
7000
7000
F000
F000
ENDCHAR
STARTCHAR 0407
ENCODING 1031
SWIDTH 276 0
DWIDTH 10 0
BBX 13 31 2 0
BITMAP
1E38
1C38
1C78
1C78
0000
0780
0780
0700
0700
0700
0F00
0F00
0E00
0E00
0E00
1E00
1E00
1C00
1C00
3C00
3C00
3C00
3800
3800
7800
7800
7000
7000
7000
F000
F000
ENDCHAR
STARTCHAR 0408
ENCODING 1032
SWIDTH 498 0
DWIDTH 18 0
BBX 18 26 1 0
BITMAP
0001C0
0001C0
0003C0
0003C0
000380
000380
000380
000780
000780
000700
000700
000700
000F00
000F00
000E00
000E00
001E00
001E00
F01E00
E01C00
E01C00
F03C00
F07800
7CF800
7FF000
1FE000
ENDCHAR
STARTCHAR 0409
ENCODING 1033
SWIDTH 1052 0
DWIDTH 38 0
BBX 38 26 0 0
BITMAP
007FFF8000
007FFF8000
007FFF8000
00F0078000
00F0078000
00E0070000
00E0070000
00E00F0000
01E00F0000
01E00E0000
01C00E0000
01C00FFF80
03C01FFFE0
03C01FFFF0
03801C00F8
03801C0038
03803C003C
07803C003C
07803C003C
0700380038
0700380078
0F007800F0
0E007803F0
FE007FFFE0
FC007FFFC0
F8007FFE00
ENDCHAR
STARTCHAR 040A
ENCODING 1034
SWIDTH 969 0
DWIDTH 35 0
BBX 33 26 2 0
BITMAP
0700700000
0700700000
0F00F00000
0F00F00000
0F00E00000
0E00E00000
0E00E00000
1E01E00000
1E01E00000
1C01C00000
1C01C00000
1FFFFFF000
3FFFFFFC00
3FFFFFFE00
3803801F00
3803800F00
3803800780
7807800780
7807800780
7007000700
7007000F00
F00F001E00
F00F007E00
F00FFFFC00
E00FFFF800
E00FFFC000
ENDCHAR
STARTCHAR 040B
ENCODING 1035
SWIDTH 830 0
DWIDTH 30 0
BBX 25 26 4 0
BITMAP
7FFFF800
FFFFF800
FFFFF000
00F00000
00F00000
00E00000
00E00000
00E00000
01E00000
01E0E000
01DFFE00
01FFFF00
03FC1F80
03C00780
03800380
03800380
03800380
07800380
07800780
07000780
07000700
07000700
0F000700
0E000F00
0E000F00
0E000E00
ENDCHAR
STARTCHAR 040C
ENCODING 1036
SWIDTH 581 0
DWIDTH 21 0
BBX 22 32 2 0
BITMAP
000780
000E00
001C00
003800
003000
000000
07003C
0700FC
0701FC
0F01E0
0F03C0
0E0780
0E0700
1E0F00
1E0E00
1E1E00
1C3C00
1FF800
3FE000
3FE000
38F000
387800
383C00
783C00
781E00
701E00
700F00
F00F00
F00700
F00780
E00780
E003C0
ENDCHAR
STARTCHAR 040D
ENCODING 1037
SWIDTH 720 0
DWIDTH 26 0
BBX 25 32 2 0
BITMAP
001E0000
000E0000
000E0000
00070000
00030000
00000000
07000380
07000780
07000F80
0F001F00
0E003F00
0E007F00
0E00FF00
1E01EF00
1E03EE00
1C03CE00
1C078E00
1C0F1E00
3C1E1C00
3C3C1C00
38781C00
38F01C00
39E03C00
7BC03800
73C03800
77803800
7F007800
FE007800
FC007000
F8007000
F0007000
E000F000
ENDCHAR
STARTCHAR 040E
ENCODING 1038
SWIDTH 636 0
DWIDTH 23 0
BBX 23 32 4 0
BITMAP
038180
018300
01EF00
00FE00
003000
000000
F0001E
70001C
70003C
780078
380070
3C00F0
3C00E0
1C01E0
1E03C0
1E0380
0E0780
0F0700
070E00
071E00
079C00
03BC00
03F800
03F000
01F000
01E000
01C000
03C000
078000
7F0000
FF0000
FE0000
ENDCHAR
STARTCHAR 040F
ENCODING 1039
SWIDTH 720 0
DWIDTH 26 0
BBX 25 33 2 -7
BITMAP
07000380
07000380
07000780
0F000780
0F000780
0E000700
0E000700
0E000F00
1E000F00
1E000E00
1C000E00
1C000E00
3C001E00
3C001E00
38001C00
38001C00
38001C00
78003C00
78003C00
70003800
70003800
F0007800
F0007800
FFFFF000
FFFFF000
FFFFF000
00E00000
00E00000
00E00000
00C00000
01C00000
01C00000
01C00000
ENDCHAR
STARTCHAR 0410
ENCODING 1040
SWIDTH 664 0
DWIDTH 24 0
BBX 22 26 0 0
BITMAP
0003C0
0007C0
0007C0
000EE0
001EE0
001CE0
003CE0
0038E0
0078E0
0070F0
00F0F0
01E070
01E070
03C070
038070
078078
07FFF8
0FFFF8
0FFFF8
1E0038
3C0038
3C003C
78003C
70003C
F0001C
E0001C
ENDCHAR
STARTCHAR 0411
ENCODING 1041
SWIDTH 664 0
DWIDTH 24 0
BBX 22 26 2 0
BITMAP
07FFFC
07FFF8
07FFF8
0F0000
0F0000
0E0000
0E0000
1E0000
1E0000
1C0000
1C0000
1FFF00
3FFFC0
3FFFE0
3801F0
3800F0
380078
780078
780078
700070
7000F0
F001F0
F007E0
FFFFC0
FFFF80
FFFC00
ENDCHAR
STARTCHAR 0412
ENCODING 1042
SWIDTH 664 0
DWIDTH 24 0
BBX 22 26 2 0
BITMAP
07FF80
07FFE0
0FFFF0
0F0078
0F0038
0E003C
0E003C
1E003C
1E0038
1C0078
1C00F0
1FFFE0
3FFF80
3FFFE0
3801F0
380078
380078
780038
780038
700078
700078
7000F0
F003E0
FFFFE0
FFFF80
FFFE00
ENDCHAR
STARTCHAR 0413
ENCODING 1043
SWIDTH 553 0
DWIDTH 20 0
BBX 22 26 2 0
BITMAP
07FFFC
07FFF8
0FFFF8
0F0000
0E0000
0E0000
0E0000
1E0000
1E0000
1C0000
1C0000
1C0000
3C0000
3C0000
380000
380000
380000
780000
780000
700000
700000
F00000
F00000
E00000
E00000
E00000
ENDCHAR
STARTCHAR 0414
ENCODING 1044
SWIDTH 692 0
DWIDTH 25 0
BBX 28 31 -2 -5
BITMAP
001FFFF0
001FFFF0
001FFFF0
001C00F0
001C00F0
003C00E0
003C00E0
003801E0
003801E0
007801C0
007001C0
007001C0
007003C0
00F003C0
00E00380
00E00380
01E00380
01C00780
03C00780
03800700
07800700
07000F00
0F000F00
7FFFFFC0
7FFFFFC0
7FFFFF80
70000380
70000380
E0000380
E0000780
E0000700
ENDCHAR
STARTCHAR 0415
ENCODING 1045
SWIDTH 664 0
DWIDTH 24 0
BBX 24 26 2 0
BITMAP
07FFFF
07FFFE
07FFFE
0F0000
0F0000
0E0000
0E0000
1E0000
1E0000
1E0000
1C0000
1FFFF8
3FFFF8
3FFFF8
380000
380000
380000
780000
780000
700000
700000
700000
F00000
FFFFF0
FFFFF0
FFFFE0
ENDCHAR
STARTCHAR 0416
ENCODING 1046
SWIDTH 913 0
DWIDTH 33 0
BBX 37 26 -1 0
BITMAP
03E00E00F8
03F00E01F8
03F01E03F8
00701E0380
00701C0700
00781C0F00
00381C0E00
00383C1E00
00383C3C00
003C383800
001C387800
001FBFF000
000FFFC000
001FFFC000
003C71E000
007870F000
00F0F07800
01E0F07800
03C0E03C00
0780E03C00
0F00E01C00
1E01E01E00
1E01E01E00
3C01C00F00
7801C00F00
F001C00700
ENDCHAR
STARTCHAR 0417
ENCODING 1047
SWIDTH 609 0
DWIDTH 22 0
BBX 20 26 2 0
BITMAP
007F00
01FFC0
07FFE0
0781F0
0F00F0
1E0070
1E0070
0C0070
0000F0
0001E0
0007E0
00FF80
00FE00
01FF00
000780
0003C0
0001C0
0001E0
E001E0
E001E0
E001C0
7003C0
780780
3FFF80
1FFE00
0FFC00
ENDCHAR
STARTCHAR 0418
ENCODING 1048
SWIDTH 720 0
DWIDTH 26 0
BBX 25 26 2 0
BITMAP
07000380
07000780
07000F80
0F001F00
0E003F00
0E007F00
0E00FF00
1E01EF00
1E03EE00
1C03CE00
1C078E00
1C0F1E00
3C1E1C00
3C3C1C00
38781C00
38F01C00
39E03C00
7BC03800
73C03800
77803800
7F007800
FE007800
FC007000
F8007000
F0007000
E000F000
ENDCHAR
STARTCHAR 0419
ENCODING 1049
SWIDTH 720 0
DWIDTH 26 0
BBX 25 32 2 0
BITMAP
00181800
00183000
001EF000
000FE000
00030000
00000000
07000380
07000780
07000F80
0F001F00
0E003F00
0E007F00
0E00FF00
1E01EF00
1E03EE00
1C03CE00
1C078E00
1C0F1E00
3C1E1C00
3C3C1C00
38781C00
38F01C00
39E03C00
7BC03800
73C03800
77803800
7F007800
FE007800
FC007000
F8007000
F0007000
E000F000
ENDCHAR
STARTCHAR 041A
ENCODING 1050
SWIDTH 581 0
DWIDTH 21 0
BBX 22 26 2 0
BITMAP
07003C
0700FC
0701FC
0F01E0
0F03C0
0E0780
0E0700
1E0F00
1E0E00
1E1E00
1C3C00
1FF800
3FE000
3FE000
38F000
387800
383C00
783C00
781E00
701E00
700F00
F00F00
F00700
F00780
E00780
E003C0
ENDCHAR
STARTCHAR 041B
ENCODING 1051
SWIDTH 692 0
DWIDTH 25 0
BBX 26 26 0 0
BITMAP
007FFFC0
007FFFC0
007FFFC0
00F00380
00F00380
00E00380
00E00780
00E00780
01E00700
01E00700
01C00F00
01C00F00
03C00E00
03C00E00
03800E00
03801E00
03801E00
07801C00
07801C00
07003C00
07003C00
0F003C00
0E003800
FE003800
FC007800
F8007800
ENDCHAR
STARTCHAR 041C
ENCODING 1052
SWIDTH 830 0
DWIDTH 30 0
BBX 29 26 2 0
BITMAP
07800078
078000F8
0FC000F8
0FC001F8
0FC001F8
0FC003B0
0FC003F0
1EC00770
1EE00F70
1CE00EF0
1CE01EE0
1CE01CE0
3CE038E0
3CE039E0
386071E0
3870F1C0
3870E1C0
7871E1C0
7871C3C0
70738380
70738380
70370380
F03F0780
E03E0780
E03E0700
E03C0700
ENDCHAR
STARTCHAR 041D
ENCODING 1053
SWIDTH 720 0
DWIDTH 26 0
BBX 25 26 2 0
BITMAP
07000380
07000780
0F000780
0F000780
0E000700
0E000700
0E000F00
1E000F00
1E000E00
1C000E00
1C000E00
1FFFFE00
3FFFFE00
3FFFFC00
38001C00
38001C00
78003C00
78003C00
78003800
70003800
70003800
F0007800
F0007800
E0007000
E0007000
E000F000
ENDCHAR
STARTCHAR 041E
ENCODING 1054
SWIDTH 775 0
DWIDTH 28 0
BBX 25 26 3 0
BITMAP
003FC000
01FFF000
03FFFC00
07C03C00
0F001E00
1E000F00
3C000F00
3C000700
78000780
78000780
70000780
70000780
F0000780
F0000780
F0000780
F0000700
F0000F00
70000F00
70001E00
78001E00
78003C00
3C007800
1E01F000
0FEFE000
07FFC000
01FF0000
ENDCHAR
STARTCHAR 041F
ENCODING 1055
SWIDTH 720 0
DWIDTH 26 0
BBX 25 26 2 0
BITMAP
07FFFF80
07FFFF80
0FFFFF80
0F000780
0F000700
0E000700
0E000700
1E000F00
1E000F00
1E000E00
1C000E00
1C001E00
3C001E00
3C001C00
38001C00
38001C00
38003C00
78003C00
78003800
70003800
70003800
F0007800
F0007800
F0007000
E0007000
E000F000
ENDCHAR
STARTCHAR 0420
ENCODING 1056
SWIDTH 664 0
DWIDTH 24 0
BBX 23 26 2 0
BITMAP
07FFE0
07FFF8
0FFFFC
0F003E
0E001E
0E000E
0E000E
1E000E
1E001E
1C001E
1C003C
1C007C
3C07F8
3FFFF0
3FFFC0
3FF000
380000
780000
780000
700000
700000
F00000
F00000
F00000
E00000
E00000
ENDCHAR
STARTCHAR 0421
ENCODING 1057
SWIDTH 720 0
DWIDTH 26 0
BBX 23 26 3 0
BITMAP
007FC0
01FFF0
03FFF8
07C07C
0F001C
1E001E
1C000E
3C000E
380000
780000
700000
700000
F00000
F00000
F00000
F00000
F00000
F0001C
70003C
700038
780078
3C00F0
3E01E0
1FDFC0
0FFF80
03FE00
ENDCHAR
STARTCHAR 0422
ENCODING 1058
SWIDTH 609 0
DWIDTH 22 0
BBX 20 26 5 0
BITMAP
FFFFF0
FFFFF0
FFFFF0
00E000
00E000
01E000
01E000
01E000
01C000
01C000
03C000
03C000
038000
038000
038000
078000
078000
070000
070000
070000
0F0000
0F0000
0E0000
0E0000
0E0000
1E0000
ENDCHAR
STARTCHAR 0423
ENCODING 1059
SWIDTH 636 0
DWIDTH 23 0
BBX 23 26 4 0
BITMAP
F0001E
70001C
70003C
780078
380070
3C00F0
3C00E0
1C01E0
1E03C0
1E0380
0E0780
0F0700
070E00
071E00
079C00
03BC00
03F800
03F000
01F000
01E000
01C000
03C000
078000
7F0000
FF0000
FE0000
ENDCHAR
STARTCHAR 0424
ENCODING 1060
SWIDTH 803 0
DWIDTH 29 0
BBX 26 26 3 0
BITMAP
00038000
00078000
000F8000
01FFF800
07FFFE00
0FE7FF00
1F0F0F80
3E0E0780
3C0E0380
780E03C0
701E03C0
F01E03C0
F01C03C0
E01C0380
E01C0780
E03C0780
F0380F00
F0380F00
78383E00
7C787C00
3FFFF800
1FFFE000
03FF8000
00700000
00F00000
00F00000
ENDCHAR
STARTCHAR 0425
ENCODING 1061
SWIDTH 664 0
DWIDTH 24 0
BBX 28 26 -1 0
BITMAP
078000F0
038001F0
03C003E0
01E007C0
01E00F80
00F01F00
00F03E00
00787C00
0038F800
003CF000
001DE000
001FC000
000F8000
000F0000
001F8000
003F8000
007BC000
00F1E000
01E1E000
03E0F000
07C07000
0F807800
1F003800
3E003C00
7C001E00
F8001E00
ENDCHAR
STARTCHAR 0426
ENCODING 1062
SWIDTH 720 0
DWIDTH 26 0
BBX 25 31 2 -5
BITMAP
07000380
07000380
07000780
0F000780
0F000780
0E000700
0E000700
1E000F00
1E000F00
1E000E00
1C000E00
1C000E00
3C001E00
3C001E00
38001C00
38001C00
38003C00
78003C00
78003C00
70003800
70003800
F0007800
F0007800
FFFFFE00
FFFFFE00
FFFFFC00
00001C00
00001C00
00001C00
00001C00
00003800
ENDCHAR
STARTCHAR 0427
ENCODING 1063
SWIDTH 664 0
DWIDTH 24 0
BBX 22 26 4 0
BITMAP
38003C
380038
780038
780078
700078
700070
700070
F00070
F000F0
E000F0
E000E0
E000E0
F000E0
F003E0
7FFFE0
3FFFC0
1FF9C0
0003C0
0003C0
000380
000380
000380
000780
000780
000700
000700
ENDCHAR
STARTCHAR 0428
ENCODING 1064
SWIDTH 913 0
DWIDTH 33 0
BBX 32 26 2 0
BITMAP
07807007
07007007
07007007
0F00F00F
0F00F00F
0E00E00E
0E00E00E
0E00E00E
1E01E01E
1E01E01E
1C01C01C
1C01C01C
3C03C03C
3C03C03C
38038038
38038038
38038038
78078078
78078078
70070070
70070070
70070070
F00F00F0
FFFFFFF0
FFFFFFE0
FFFFFFE0
ENDCHAR
STARTCHAR 0429
ENCODING 1065
SWIDTH 913 0
DWIDTH 33 0
BBX 32 31 2 -5
BITMAP
07807007
07007007
07007007
0F00F00F
0F00F00F
0E00E00E
0E00E00E
0E00E00E
1E01E01E
1E01E01E
1C01C01C
1C01C01C
3C03C03C
3C03C03C
38038038
38038038
38038038
78078078
78078078
70070070
70070070
70070070
F00F00F0
FFFFFFFC
FFFFFFFC
FFFFFFFC
00000038
00000038
00000038
00000038
00000070
ENDCHAR
STARTCHAR 042A
ENCODING 1066
SWIDTH 803 0
DWIDTH 29 0
BBX 24 26 4 0
BITMAP
7FF000
FFF000
FFF000
00E000
00E000
01E000
01E000
01C000
01C000
01C000
03C000
03FFF0
03FFFC
03FFFE
03801F
07800F
078007
070007
070007
07000F
0F000F
0F001E
0E007C
0FFFFC
1FFFF0
1FFFC0
ENDCHAR
STARTCHAR 042B
ENCODING 1067
SWIDTH 886 0
DWIDTH 32 0
BBX 31 26 2 0
BITMAP
0700000E
0700000E
0700001E
0F00001E
0F00001C
0E00001C
0E00003C
1E00003C
1E00003C
1C000038
1C000038
1FFF0078
3FFFC078
3FFFE070
3801F070
3800F070
380078F0
780078F0
780078E0
700070E0
7000F1E0
F001F1E0
F007E1E0
FFFFC1C0
FFFF81C0
FFFC03C0
ENDCHAR
STARTCHAR 042C
ENCODING 1068
SWIDTH 664 0
DWIDTH 24 0
BBX 21 26 2 0
BITMAP
070000
070000
070000
0F0000
0F0000
0E0000
0E0000
1E0000
1E0000
1C0000
1C0000
1FFF00
3FFFC0
3FFFE0
3801F0
3800F0
380078
780078
780078
700070
7000F0
F001F0
F007E0
FFFFC0
FFFF80
FFFC00
ENDCHAR
STARTCHAR 042D
ENCODING 1069
SWIDTH 692 0
DWIDTH 25 0
BBX 23 26 2 0
BITMAP
00FF80
01FFE0
07FFF0
0F80F8
1E0078
1C003C
3C001C
18001E
00001E
00001E
00001E
003FFE
003FFE
003FFE
00001C
00001C
00003C
60003C
E00078
E00078
F000F0
7001E0
7803C0
3F1F80
1FFF00
07FC00
ENDCHAR
STARTCHAR 042E
ENCODING 1070
SWIDTH 1024 0
DWIDTH 37 0
BBX 35 26 2 0
BITMAP
07000FF800
07003FFC00
0700FFFF00
0F01F00F00
0F03E00780
0E03C003C0
0E078003C0
1E0F0001C0
1E0F0001C0
1C0E0001E0
1C1E0001E0
1C1E0001E0
3FFC0001E0
3FFC0001C0
3FFC0001C0
381C0001C0
381C0003C0
781C0003C0
781E000780
701E000780
700F000F00
F00F001E00
F007C03C00
E003F1F800
E001FFF000
E000FFC000
ENDCHAR
STARTCHAR 042F
ENCODING 1071
SWIDTH 692 0
DWIDTH 25 0
BBX 27 26 -1 0
BITMAP
000FFFE0
007FFFE0
00FFFFE0
01F001C0
03C001C0
038003C0
078003C0
07800380
07800380
07800380
03C00780
03F80780
01FFFF00
007FFF00
001FC700
007C0F00
00F80E00
01F00E00
03E00E00
03C01E00
07801E00
0F001C00
1F001C00
3E001C00
7C003C00
F8003C00
ENDCHAR
STARTCHAR 0430
ENCODING 1072
SWIDTH 553 0
DWIDTH 20 0
BBX 17 19 2 0
BITMAP
03FC00
0FFE00
1FFF00
3C0780
380380
780380
000380
000780
0FFF00
3FFF00
7E0700
F00700
E00F00
E00E00
E01E00
E03E00
F07E00
7FEE00
3F8E00
ENDCHAR
STARTCHAR 0431
ENCODING 1073
SWIDTH 553 0
DWIDTH 20 0
BBX 19 26 2 0
BITMAP
000DE0
01FFE0
03FFC0
07FF00
0F0000
0E0000
1C0000
1C7000
3BFE00
3FFF00
3E0780
7C0380
780380
7803C0
7001C0
F001C0
E003C0
E00380
E00380
E00780
F00780
F00F00
781E00
7C3C00
3FF800
0FF000
ENDCHAR
STARTCHAR 0432
ENCODING 1074
SWIDTH 526 0
DWIDTH 19 0
BBX 16 19 2 0
BITMAP
01FC
07FE
1FDF
1E07
3C07
7807
700F
F03E
FFFC
FFF8
E0FC
E01E
E00E
E00E
F00E
701E
7C3C
3FF8
1FF0
ENDCHAR
STARTCHAR 0433
ENCODING 1075
SWIDTH 498 0
DWIDTH 18 0
BBX 16 19 1 0
BITMAP
03F8
07FE
0F3F
1C07
3C07
0007
000F
001F
01FE
0FF8
3F80
7C00
7000
F007
F006
700E
7C1C
3FF8
1FF0
ENDCHAR
STARTCHAR 0434
ENCODING 1076
SWIDTH 553 0
DWIDTH 20 0
BBX 18 26 2 0
BITMAP
03F800
03FE00
00FF00
000780
000380
000380
0001C0
01F9C0
07FDC0
1FBFC0
1C07C0
3803C0
7803C0
7003C0
F00380
E00380
E00380
E00380
E00380
E00700
E00700
F00E00
701E00
7C7C00
3FF800
1FE000
ENDCHAR
STARTCHAR 0435
ENCODING 1077
SWIDTH 553 0
DWIDTH 20 0
BBX 17 19 2 0
BITMAP
01F800
07FE00
1F9F00
1E0700
380380
780380
700380
700380
FFFF80
FFFF80
E00000
E00000
E00000
E00700
F00E00
701E00
7C7C00
3FF800
1FE000
ENDCHAR
STARTCHAR 0436
ENCODING 1078
SWIDTH 692 0
DWIDTH 25 0
BBX 27 19 -1 0
BITMAP
0F01C0E0
0F8381E0
03838380
01C38700
01C38E00
01C78E00
01C71C00
00E73800
007FF000
007FE000
01EEF000
03CE3800
078E3C00
0F0E1C00
0E1E1C00
1E1C0E00
3C1C0E00
781C0F00
F01C0700
ENDCHAR
STARTCHAR 0437
ENCODING 1079
SWIDTH 470 0
DWIDTH 17 0
BBX 15 19 1 0
BITMAP
03F8
0FFC
0F1E
1C0E
380E
000E
000E
001E
03FC
03F0
03F8
003C
001C
001C
E01C
E03C
7878
7FF0
1FE0
ENDCHAR
STARTCHAR 0438
ENCODING 1080
SWIDTH 553 0
DWIDTH 20 0
BBX 18 19 2 0
BITMAP
1C01C0
1C01C0
1C03C0
3C0380
380380
380380
380380
380780
780700
700700
700700
700F00
700F00
F00E00
E01E00
F03E00
F8EE00
7FCE00
3F9C00
ENDCHAR
STARTCHAR 0439
ENCODING 1081
SWIDTH 553 0
DWIDTH 20 0
BBX 18 26 2 0
BITMAP
030380
038300
01FE00
00FC00
000000
000000
000000
1C01C0
1C01C0
1C03C0
3C0380
380380
380380
380380
380780
780700
700700
700700
700F00
700F00
F00E00
E01E00
F03E00
F8EE00
7FCE00
3F9C00
ENDCHAR
STARTCHAR 043A
ENCODING 1082
SWIDTH 470 0
DWIDTH 17 0
BBX 18 19 1 0
BITMAP
0E01C0
0E07C0
0E0F80
0E1C00
1C1C00
1C3800
1C7800
1CF000
3FE000
3F8000
39E000
38F000
387000
707000
703800
703800
703C00
F01C00
E01C00
ENDCHAR
STARTCHAR 043B
ENCODING 1083
SWIDTH 553 0
DWIDTH 20 0
BBX 22 19 -1 0
BITMAP
01FFFC
01FFF8
01FFF8
01C038
01C038
038070
038070
038070
038070
0780F0
0700E0
0700E0
0700E0
0700E0
0F01E0
0E01C0
7E01C0
7C01C0
FC01C0
ENDCHAR
STARTCHAR 043C
ENCODING 1084
SWIDTH 692 0
DWIDTH 25 0
BBX 24 19 1 0
BITMAP
0F801F
0F801F
0F803F
1F807E
1D807E
1DC0EE
1DC0EE
1DC1DC
3DC19C
39C39C
39C71C
38C73C
38CE38
70CE38
70FC38
70F838
70F878
F0F070
E0F070
ENDCHAR
STARTCHAR 043D
ENCODING 1085
SWIDTH 553 0
DWIDTH 20 0
BBX 19 19 1 0
BITMAP
0E00E0
0E00E0
0E01E0
1E01C0
1C01C0
1C01C0
1C01C0
1C03C0
3FFF80
3FFF80
3FFF80
380380
780700
700700
700700
700700
700F00
F00E00
E00E00
ENDCHAR
STARTCHAR 043E
ENCODING 1086
SWIDTH 553 0
DWIDTH 20 0
BBX 18 19 2 0
BITMAP
03F800
07FE00
1F1F00
3C0780
380380
780380
700380
F003C0
E00380
E00380
E00380
E00380
E00780
E00700
F00F00
701E00
783C00
3FF800
1FE000
ENDCHAR
STARTCHAR 043F
ENCODING 1087
SWIDTH 553 0
DWIDTH 20 0
BBX 19 19 1 0
BITMAP
0FFFE0
0FFFE0
0FFFE0
1E01C0
1C01C0
1C01C0
1C01C0
1C03C0
3C0380
380380
380380
380380
780700
700700
700700
700700
700F00
F00E00
E00E00
ENDCHAR
STARTCHAR 0440
ENCODING 1088
SWIDTH 553 0
DWIDTH 20 0
BBX 19 26 0 -7
BITMAP
073F00
077F80
07F7C0
0F81E0
0F00E0
0F00E0
0E00E0
0E00E0
1C00E0
1C00E0
1C00E0
1C01E0
3C01C0
3C01C0
3C0380
3E0780
3F0F00
7BFE00
71FC00
700000
700000
700000
F00000
E00000
E00000
E00000
ENDCHAR
STARTCHAR 0441
ENCODING 1089
SWIDTH 498 0
DWIDTH 18 0
BBX 16 19 2 0
BITMAP
01F8
07FE
1FFF
1E0F
3C07
7807
7000
7000
F000
F000
E000
E000
E00E
E00E
F01C
703C
7878
3FF0
1FE0
ENDCHAR
STARTCHAR 0442
ENCODING 1090
SWIDTH 830 0
DWIDTH 30 0
BBX 28 19 1 0
BITMAP
0E3E07E0
0E7F9FF0
0FFFBFF0
1F83F070
1F03E070
1E03C070
1C038070
1C038070
3C0780F0
380700E0
380700E0
380700E0
380700E0
780F01E0
700E01C0
700E01C0
700E01C0
F01E01C0
E01C03C0
ENDCHAR
STARTCHAR 0443
ENCODING 1091
SWIDTH 498 0
DWIDTH 18 0
BBX 20 27 0 -8
BITMAP
1C0070
1E00F0
0E00E0
0E01C0
0E01C0
0E0380
0E0780
0F0700
070F00
070E00
071E00
071C00
073800
073800
037000
03F000
03E000
03E000
03C000
038000
038000
070000
0F0000
FE0000
FC0000
F80000
200000
ENDCHAR
STARTCHAR 0444
ENCODING 1092
SWIDTH 830 0
DWIDTH 30 0
BBX 28 33 2 -7
BITMAP
0001E000
0001C000
0001C000
0001C000
0001C000
0003C000
00038000
03E39F00
0FFBBFC0
1FFBFFE0
3C1FC1E0
380F80E0
780F80F0
70070070
F0070070
E00F00F0
E00E00F0
E00E00E0
E00E00E0
E01E01E0
E01E01C0
E03E03C0
F03F0380
78FF8F00
7FFDFF00
1FB8FC00
00380000
00380000
00380000
00780000
00700000
00700000
00700000
ENDCHAR
STARTCHAR 0445
ENCODING 1093
SWIDTH 498 0
DWIDTH 18 0
BBX 19 19 0 0
BITMAP
0E01E0
0F01C0
0703C0
070780
038F00
039E00
01DC00
01F800
00F800
00F000
01F000
03F000
03B800
073800
0F1C00
1E1E00
3C1E00
780F00
F00F00
ENDCHAR
STARTCHAR 0446
ENCODING 1094
SWIDTH 581 0
DWIDTH 21 0
BBX 18 24 2 -5
BITMAP
1C01C0
1C01C0
1C03C0
3C0380
380380
380380
380380
380780
700700
700700
700700
700F00
700E00
E00E00
E01E00
F03E00
F8EE00
7FCFC0
3F0FC0
000180
000180
000380
000380
000380
ENDCHAR
STARTCHAR 0447
ENCODING 1095
SWIDTH 526 0
DWIDTH 19 0
BBX 16 19 3 0
BITMAP
7007
700F
700E
E00E
E00E
E00E
E01E
E01C
E01C
F03C
FFFC
7FF8
0638
0038
0038
0078
0070
0070
0070
ENDCHAR
STARTCHAR 0448
ENCODING 1096
SWIDTH 830 0
DWIDTH 30 0
BBX 28 19 2 0
BITMAP
1C038070
1C038070
1C038070
3C0780E0
380700E0
380700E0
380700E0
380701E0
780E01C0
700E01C0
700E01C0
700E01C0
701E03C0
E01C0380
E03C0780
F07C0F80
F1DE7F80
7F8FF700
3F07E700
ENDCHAR
STARTCHAR 0449
ENCODING 1097
SWIDTH 858 0
DWIDTH 31 0
BBX 28 24 2 -5
BITMAP
1C038070
1C038070
1C038070
3C0780E0
380700E0
380700E0
380700E0
380701E0
780E01C0
700E01C0
700E01C0
700E01C0
701E0380
E01C0380
E03C0780
F07C0F80
F1DF7B80
7F8FFBF0
3F07E3F0
00000070
00000060
00000060
000000E0
000000E0
ENDCHAR
STARTCHAR 044A
ENCODING 1098
SWIDTH 609 0
DWIDTH 22 0
BBX 19 19 2 0
BITMAP
7FC000
FFC000
FF8000
038000
038000
078000
070000
070000
07FF80
07FFC0
0F01E0
0E00E0
0E00E0
0E00E0
0E00E0
1C01E0
1FFFC0
1FFF80
1FFE00
ENDCHAR
STARTCHAR 044B
ENCODING 1099
SWIDTH 747 0
DWIDTH 27 0
BBX 26 19 1 0
BITMAP
0E0001C0
0E0003C0
0E000380
1E000380
1C000380
1C000780
1C000700
1C000700
3FFE0700
3FFF0700
380F0F00
38078E00
38038E00
70038E00
70070E00
700F1E00
7FFE1C00
FFFE1C00
FFF81C00
ENDCHAR
STARTCHAR 044C
ENCODING 1100
SWIDTH 526 0
DWIDTH 19 0
BBX 17 19 1 0
BITMAP
0E0000
0E0000
0E0000
1E0000
1C0000
1C0000
1C0000
1C0000
3FFE00
3FFF00
380F00
380780
380380
700380
700700
700F00
7FFE00
FFFE00
FFF800
ENDCHAR
STARTCHAR 044D
ENCODING 1101
SWIDTH 498 0
DWIDTH 18 0
BBX 16 19 1 0
BITMAP
03F8
07FC
0FBE
1C0F
3807
3807
0007
0007
01FF
01FF
01FF
000F
000E
200E
E01E
F03C
7878
7FF0
1FE0
ENDCHAR
STARTCHAR 044E
ENCODING 1102
SWIDTH 747 0
DWIDTH 27 0
BBX 26 19 1 0
BITMAP
0E01FC00
0E03FE00
0E0FDF00
1E0E0780
1C1C0380
1C3C03C0
1C3803C0
1C7803C0
3FF003C0
3FF00380
3FF00380
38700380
38700780
70700700
70700F00
70380E00
703C3C00
F01FF800
E00FF000
ENDCHAR
STARTCHAR 044F
ENCODING 1103
SWIDTH 526 0
DWIDTH 19 0
BBX 20 19 0 0
BITMAP
00FFF0
03FFE0
0FFFE0
0E00E0
1E00E0
1C01C0
1C01C0
1E01C0
0F01C0
0FFFC0
03FF80
03C380
070380
0E0380
1E0700
3C0700
780700
780700
F00F00
ENDCHAR
STARTCHAR 0451
ENCODING 1105
SWIDTH 553 0
DWIDTH 20 0
BBX 17 25 2 0
BITMAP
03C700
03C700
038700
000000
000000
000000
01F800
07FE00
1F9F00
1E0700
380380
780380
700380
700380
FFFF80
FFFF80
E00000
E00000
E00000
E00700
F00E00
701E00
7C7C00
3FF800
1FE000
ENDCHAR
STARTCHAR 0452
ENCODING 1106
SWIDTH 553 0
DWIDTH 20 0
BBX 18 33 1 -7
BITMAP
038000
078000
1FFE00
3FFE00
3FFE00
0F0000
0E0000
0E3F00
0E7F80
0FF7C0
1F81C0
1F01C0
1E01C0
1C01C0
1C03C0
3C0380
380380
380380
380380
380780
780700
700700
700700
700700
700F00
F00E00
000E00
000E00
001E00
001C00
013C00
01FC00
01F800
ENDCHAR
STARTCHAR 0453
ENCODING 1107
SWIDTH 387 0
DWIDTH 14 0
BBX 15 26 1 0
BITMAP
003C
0078
00F0
00E0
01C0
0000
0000
0FFE
0FFE
0FFE
1E00
1C00
1C00
1C00
1C00
3C00
3800
3800
3800
7800
7000
7000
7000
7000
F000
E000
ENDCHAR
STARTCHAR 0454
ENCODING 1108
SWIDTH 498 0
DWIDTH 18 0
BBX 16 19 2 0
BITMAP
03F8
0FFC
1FBE
3C0F
3807
7007
7000
F000
FF80
FF80
FF80
E000
E00C
E01E
E01C
F03C
78F8
3FF0
1FC0
ENDCHAR
STARTCHAR 0455
ENCODING 1109
SWIDTH 498 0
DWIDTH 18 0
BBX 17 19 1 0
BITMAP
03FC00
07FE00
0F1F00
1E0780
1C0380
1C0380
1E0000
0F8000
07E000
03F800
00FE00
003E00
300F00
F00F00
700700
780E00
7C1E00
3FFC00
0FF800
ENDCHAR
STARTCHAR 0456
ENCODING 1110
SWIDTH 221 0
DWIDTH 8 0
BBX 9 26 1 0
BITMAP
0780
0700
0700
0700
0000
0000
0000
0E00
0E00
0E00
1E00
1C00
1C00
1C00
3C00
3800
3800
3800
3800
7800
7000
7000
7000
7000
F000
E000
ENDCHAR
STARTCHAR 0457
ENCODING 1111
SWIDTH 221 0
DWIDTH 8 0
BBX 11 25 1 0
BITMAP
38E0
78E0
70E0
0000
0000
0000
0E00
0E00
0E00
1E00
1C00
1C00
1C00
3C00
3800
3800
3800
3800
7800
7000
7000
7000
7000
F000
E000
ENDCHAR
STARTCHAR 0458
ENCODING 1112
SWIDTH 221 0
DWIDTH 8 0
BBX 14 33 -4 -7
BITMAP
003C
0038
0038
0038
0000
0000
0000
0070
0070
00F0
00E0
00E0
00E0
00E0
01E0
01C0
01C0
01C0
01C0
03C0
0380
0380
0380
0380
0780
0700
0700
0700
0F00
0E00
9E00
FE00
FC00
ENDCHAR
STARTCHAR 0459
ENCODING 1113
SWIDTH 913 0
DWIDTH 33 0
BBX 33 19 -1 0
BITMAP
00FFFE0000
00FFFE0000
00FFFE0000
01E01C0000
01C01C0000
01C01C0000
01C01C0000
01C03C0000
03C03FFE00
03803FFF00
0380380F00
0380380780
0380780780
0700700780
0700700700
0700700F00
7F007FFE00
7E00FFFC00
FC00FFF800
ENDCHAR
STARTCHAR 045A
ENCODING 1114
SWIDTH 830 0
DWIDTH 30 0
BBX 28 19 1 0
BITMAP
0E01C000
0E01C000
0E01C000
1E038000
1C038000
1C038000
1C038000
1C038000
3FFFFFC0
3FFFFFE0
380701E0
380700F0
780F00F0
700E00F0
700E00E0
700E01E0
700FFFC0
F01FFF80
E01FFF00
ENDCHAR
STARTCHAR 045B
ENCODING 1115
SWIDTH 553 0
DWIDTH 20 0
BBX 18 26 1 0
BITMAP
038000
078000
1FFE00
3FFE00
3FFE00
0F0000
0E0000
0E3F00
0E7F80
0FF7C0
1F81C0
1F01C0
1E01C0
1C01C0
1C03C0
3C0380
380380
380380
380380
380780
780700
700700
700700
700700
700F00
F00E00
ENDCHAR
STARTCHAR 045C
ENCODING 1116
SWIDTH 470 0
DWIDTH 17 0
BBX 18 26 1 0
BITMAP
000780
000F00
001E00
001C00
003800
000000
000000
0E01C0
0E07C0
0E0F80
0E1C00
1C1C00
1C3800
1C7800
1CF000
3FE000
3F8000
39E000
38F000
387000
707000
703800
703800
703C00
F01C00
E01C00
ENDCHAR
STARTCHAR 045D
ENCODING 1117
SWIDTH 553 0
DWIDTH 20 0
BBX 18 26 2 0
BITMAP
01E000
00E000
00E000
007000
003000
000000
000000
1C01C0
1C01C0
1C03C0
3C0380
380380
380380
380380
380780
780700
700700
700700
700F00
700F00
F00E00
E01E00
F03E00
F8EE00
7FCE00
3F9C00
ENDCHAR
STARTCHAR 045E
ENCODING 1118
SWIDTH 498 0
DWIDTH 18 0
BBX 20 34 0 -8
BITMAP
018180
01C380
00FF00
007E00
001000
000000
000000
1C0070
1E00F0
0E00E0
0E01C0
0E01C0
0E0380
0E0780
0F0700
070F00
070E00
071E00
071C00
073800
073800
037000
03F000
03E000
03E000
03C000
038000
038000
070000
0F0000
FE0000
FC0000
F80000
200000
ENDCHAR
STARTCHAR 045F
ENCODING 1119
SWIDTH 553 0
DWIDTH 20 0
BBX 18 26 2 -7
BITMAP
1C01C0
1C01C0
1C03C0
3C0380
380380
380380
380380
380780
780700
700700
700700
700F00
700F00
F00E00
E01E00
F03E00
F8EE00
7FCC00
3F1C00
0C0000
1C0000
1C0000
1C0000
180000
180000
380000
ENDCHAR
STARTCHAR 0490
ENCODING 1168
SWIDTH 498 0
DWIDTH 18 0
BBX 21 31 2 0
BITMAP
000038
000038
000070
000070
000070
07FFF0
07FFF0
0FFFE0
0F0000
0E0000
0E0000
0E0000
1E0000
1E0000
1C0000
1C0000
1C0000
3C0000
3C0000
380000
380000
380000
780000
780000
700000
700000
F00000
F00000
F00000
E00000
E00000
ENDCHAR
STARTCHAR 0491
ENCODING 1169
SWIDTH 332 0
DWIDTH 12 0
BBX 15 23 1 0
BITMAP
000E
000C
001C
001C
0FFC
0FF8
0FF8
1E00
1C00
1C00
1C00
1C00
3C00
3800
3800
3800
7800
7000
7000
7000
7000
F000
E000
ENDCHAR
STARTCHAR 0492
ENCODING 1170
SWIDTH 553 0
DWIDTH 20 0
BBX 23 26 1 0
BITMAP
03FFFE
03FFFC
07FFFC
078000
070000
070000
070000
0F0000
0F0000
0E0000
0E0000
0E0000
FFFC00
FFFC00
1C0000
1C0000
1C0000
3C0000
380000
380000
380000
780000
780000
700000
700000
700000
ENDCHAR
STARTCHAR 0493
ENCODING 1171
SWIDTH 387 0
DWIDTH 14 0
BBX 15 19 1 0
BITMAP
0FFE
0FFE
0FFE
0E00
1E00
1C00
1C00
1C00
FF80
FF80
3800
3800
3800
7800
7000
7000
7000
7000
F000
ENDCHAR
STARTCHAR 0496
ENCODING 1174
SWIDTH 913 0
DWIDTH 33 0
BBX 37 33 -1 -7
BITMAP
03E00E00F8
03F00E01F8
03F01E03F8
00701E0780
00701C0700
00781C0F00
00381C0E00
00383C1E00
00383C3C00
003C383800
001C387800
001FBFF000
000FFFC000
001FFFC000
003C71E000
007870F000
00F0F07800
01E0F07800
03C0E03C00
0780E03C00
0F00E01C00
1E01E01E00
1E01E01E00
3C01C00F80
7801C00F80
F001C00780
0000000700
0000000700
0000000700
0000000700
0000000700
0000000E00
0000000E00
ENDCHAR
STARTCHAR 0497
ENCODING 1175
SWIDTH 692 0
DWIDTH 25 0
BBX 27 24 -1 -5
BITMAP
0E01C060
0F8381E0
03838380
01C38700
01C38E00
01C78E00
01C71C00
00E73800
007FF000
007FE000
01EEF000
03CE3800
078E3C00
0F0E1C00
0E1E1C00
1E1C0E00
3C1C0F80
781C0F00
F01C0700
00000700
00000700
00000700
00000600
00000600
ENDCHAR
STARTCHAR 049A
ENCODING 1178
SWIDTH 581 0
DWIDTH 21 0
BBX 22 33 2 -7
BITMAP
07003C
0700FC
0701FC
0F01E0
0F03C0
0E0780
0E0700
1E0F00
1E0E00
1E1E00
1C3C00
1FF800
3FE000
3FE000
38F800
387800
383C00
783C00
781E00
701E00
700F00
F00F00
F00700
F007C0
E007C0
E003C0
0001C0
000380
000380
000380
000380
000780
000700
ENDCHAR
STARTCHAR 049B
ENCODING 1179
SWIDTH 470 0
DWIDTH 17 0
BBX 18 24 1 -5
BITMAP
0E01C0
0E07C0
0E0F80
0E1C00
1C1C00
1C3800
1C7800
1CF000
3FE000
3F8000
39E000
38F000
387000
707000
703800
703800
703E00
F01E00
E01E00
000C00
000C00
001C00
001C00
001C00
ENDCHAR
STARTCHAR 049C
ENCODING 1180
SWIDTH 581 0
DWIDTH 21 0
BBX 22 26 2 0
BITMAP
07003C
0700FC
0701FC
0F01E0
0F33C0
0E7780
0E6700
1E6F00
1E6E00
1E7E00
1CFC00
1FF800
3FE000
3FE000
38F000
39F800
39BC00
79BC00
799E00
719E00
730F00
F30F00
F00700
F00780
E00780
E003C0
ENDCHAR
STARTCHAR 049D
ENCODING 1181
SWIDTH 470 0
DWIDTH 17 0
BBX 18 19 1 0
BITMAP
0E01C0
0E07C0
0E0F80
0EDC00
1CDC00
1CF800
1CF800
1CF000
3FE000
3F8000
39E000
39F000
3B7000
737000
733800
733800
703C00
F01C00
E01C00
ENDCHAR
STARTCHAR 04A2
ENCODING 1186
SWIDTH 720 0
DWIDTH 26 0
BBX 25 33 2 -7
BITMAP
07000380
07000380
07000780
0F000780
0F000700
0E000700
0E000700
1E000F00
1E000F00
1C000E00
1C000E00
1FFFFE00
3FFFFE00
3FFFFC00
38001C00
38001C00
38003C00
78003C00
78003800
70003800
70003800
F0007800
F0007800
E0007E00
E0007C00
E000FC00
00001C00
00001C00
00001C00
00003800
00003800
00003800
00003800
ENDCHAR
STARTCHAR 04A3
ENCODING 1187
SWIDTH 553 0
DWIDTH 20 0
BBX 19 24 1 -5
BITMAP
0E00E0
0E00E0
0E00E0
1E01E0
1C01C0
1C01C0
1C01C0
1C01C0
3FFF80
3FFF80
3FFF80
380380
780780
700700
700700
700700
7007C0
F00FC0
E00F80
000180
000380
000380
000380
000300
ENDCHAR
STARTCHAR 04AE
ENCODING 1198
SWIDTH 553 0
DWIDTH 20 0
BBX 20 26 4 0
BITMAP
E000F0
7001E0
7003C0
7803C0
380780
380F00
3C0E00
1C1E00
1C3C00
0E7800
0E7000
0EF000
07E000
07C000
078000
038000
078000
070000
070000
070000
0F0000
0E0000
0E0000
0E0000
0E0000
1E0000
ENDCHAR
STARTCHAR 04AF
ENCODING 1199
SWIDTH 498 0
DWIDTH 18 0
BBX 17 26 3 -7
BITMAP
E00380
E00700
F00700
F00E00
701E00
701C00
703C00
703800
707000
787000
38E000
39E000
39C000
3B8000
3B8000
3F0000
1F0000
1E0000
1C0000
1C0000
1C0000
3C0000
380000
380000
380000
380000
ENDCHAR
STARTCHAR 04B0
ENCODING 1200
SWIDTH 553 0
DWIDTH 20 0
BBX 21 26 3 0
BITMAP
700078
3800F0
3801E0
3C01E0
1C03C0
1C0780
0E0700
0E0F00
0E1E00
073C00
073800
077800
03F000
FFFF80
FFFF80
01C000
03C000
038000
038000
038000
078000
070000
070000
070000
070000
0F0000
ENDCHAR
STARTCHAR 04B1
ENCODING 1201
SWIDTH 498 0
DWIDTH 18 0
BBX 20 26 0 -7
BITMAP
1C0070
1C00E0
1E00E0
1E01C0
0E03C0
0E0380
0E0780
0E0700
0E0E00
0F0E00
071C00
073C00
073800
077000
077000
07E000
03E000
03C000
038000
FFFE00
FFFE00
078000
070000
070000
070000
070000
ENDCHAR
STARTCHAR 04B2
ENCODING 1202
SWIDTH 664 0
DWIDTH 24 0
BBX 28 33 -1 -7
BITMAP
078000F0
038001F0
03C003E0
01E007C0
01E00F80
00F01F00
00F03E00
00787C00
0038F800
003CF000
001DE000
001FC000
000F8000
000F0000
001F8000
003F8000
007BC000
00F1E000
01E1E000
03E0F000
07C07000
0F807800
1F003800
3E003F00
7C001F00
F8001E00
00000E00
00000E00
00000E00
00000E00
00001C00
00001C00
00001C00
ENDCHAR
STARTCHAR 04B3
ENCODING 1203
SWIDTH 498 0
DWIDTH 18 0
BBX 19 24 0 -5
BITMAP
0E01E0
0F01C0
0703C0
070780
038F00
039E00
01DC00
01F800
00F800
00F000
01F000
03F000
03B800
073C00
0F1C00
1E1E00
3C1F80
780F80
F00F00
000300
000700
000700
000700
000600
ENDCHAR
STARTCHAR 04B8
ENCODING 1208
SWIDTH 664 0
DWIDTH 24 0
BBX 21 26 4 0
BITMAP
380038
780038
780038
700078
700078
700070
F06070
F060F0
E060F0
E060E0
E0E0E0
E0C0E0
F0C1E0
F8C7E0
FFFFC0
7FFFC0
1FF1C0
0183C0
0183C0
018380
030380
030380
000780
000780
000700
000700
ENDCHAR
STARTCHAR 04B9
ENCODING 1209
SWIDTH 526 0
DWIDTH 19 0
BBX 17 19 2 0
BITMAP
380380
780780
700700
700700
700700
718700
F18F00
F18E00
F10E00
7F7E00
7FFE00
3FFE00
021C00
061C00
061C00
063C00
003800
003800
003800
ENDCHAR
STARTCHAR 04BA
ENCODING 1210
SWIDTH 664 0
DWIDTH 24 0
BBX 22 26 2 0
BITMAP
078000
078000
070000
070000
070000
0F0000
0F0000
0E0000
0E0000
0E1FE0
1FFFF0
1FFFF8
1F807C
1C003C
1C003C
3C003C
3C003C
38003C
380038
780038
780038
700078
700078
700070
F00070
F000F0
ENDCHAR
STARTCHAR 04BB
ENCODING 1211
SWIDTH 553 0
DWIDTH 20 0
BBX 18 26 1 0
BITMAP
038000
078000
070000
070000
070000
0F0000
0E0000
0E3F00
0E7F80
0FF7C0
1F81C0
1F01C0
1E01C0
1C01C0
1C03C0
3C0380
380380
380380
380380
380780
780700
700700
700700
700700
F00F00
F00E00
ENDCHAR
STARTCHAR 04D8
ENCODING 1240
SWIDTH 775 0
DWIDTH 28 0
BBX 24 26 3 0
BITMAP
003FC0
00FFF0
03FFF8
07C07C
0F003E
0E001E
1E000E
0C000F
00000F
00000F
00000F
7FFFFF
7FFFFF
FFFFFF
F0000F
F0000E
F0001E
70001E
70003C
70003C
780078
3800F0
3E01F0
1F8FC0
0FFF80
07FE00
ENDCHAR
STARTCHAR 04D9
ENCODING 1241
SWIDTH 553 0
DWIDTH 20 0
BBX 17 19 2 0
BITMAP
01F800
07FE00
0FFF00
1E0700
3C0780
780380
100380
000380
000380
FFFF80
FFFF80
E00380
E00780
E00700
F00F00
701E00
783C00
3FF800
0FE000
ENDCHAR
STARTCHAR 04E8
ENCODING 1256
SWIDTH 775 0
DWIDTH 28 0
BBX 25 26 3 0
BITMAP
007FE000
01FFF000
03FFFC00
07C03C00
0F001E00
1E000F00
3C000F00
3C000700
38000780
78000780
70000780
70000780
7FFFFF80
FFFFFF80
FFFFFF80
F0000700
F0000F00
70000F00
70000E00
78001E00
78003C00
3C007800
1E00F000
0FEFE000
07FFC000
03FF0000
ENDCHAR
STARTCHAR 04E9
ENCODING 1257
SWIDTH 553 0
DWIDTH 20 0
BBX 18 19 2 0
BITMAP
03F800
07FE00
1F1F00
3C0780
380380
780380
700380
F003C0
FFFF80
FFFF80
E00380
E00380
E00780
E00700
F00F00
701E00
783C00
3FF800
1FE000
ENDCHAR
STARTCHAR 05B0
ENCODING 1456
SWIDTH 332 0
DWIDTH 12 0
BBX 3 7 3 -11
BITMAP
60
E0
00
00
C0
C0
C0
ENDCHAR
STARTCHAR 05B1
ENCODING 1457
SWIDTH 332 0
DWIDTH 12 0
BBX 11 7 -1 -11
BITMAP
6660
EEE0
0000
0000
30C0
30C0
30C0
ENDCHAR
STARTCHAR 05B2
ENCODING 1458
SWIDTH 332 0
DWIDTH 12 0
BBX 10 7 0 -11
BITMAP
FDC0
FDC0
0000
0000
0180
0380
0380
ENDCHAR
STARTCHAR 05B3
ENCODING 1459
SWIDTH 332 0
DWIDTH 12 0
BBX 10 7 0 -11
BITMAP
FDC0
FDC0
7000
6000
0180
0380
0380
ENDCHAR
STARTCHAR 05B4
ENCODING 1460
SWIDTH 332 0
DWIDTH 12 0
BBX 3 2 3 -7
BITMAP
60
E0
ENDCHAR
STARTCHAR 05B5
ENCODING 1461
SWIDTH 332 0
DWIDTH 12 0
BBX 8 2 1 -7
BITMAP
E7
E7
ENDCHAR
STARTCHAR 05B6
ENCODING 1462
SWIDTH 332 0
DWIDTH 12 0
BBX 8 7 1 -11
BITMAP
E7
E7
00
00
30
30
30
ENDCHAR
STARTCHAR 05B7
ENCODING 1463
SWIDTH 332 0
DWIDTH 12 0
BBX 8 2 1 -6
BITMAP
7F
FE
ENDCHAR
STARTCHAR 05B8
ENCODING 1464
SWIDTH 332 0
DWIDTH 12 0
BBX 8 5 1 -9
BITMAP
7F
FE
18
30
30
ENDCHAR
STARTCHAR 05B9
ENCODING 1465
SWIDTH 332 0
DWIDTH 12 0
BBX 3 3 9 21
BITMAP
60
E0
E0
ENDCHAR
STARTCHAR 05BA
ENCODING 1466
SWIDTH 332 0
DWIDTH 12 0
BBX 3 3 9 21
BITMAP
60
E0
E0
ENDCHAR
STARTCHAR 05BB
ENCODING 1467
SWIDTH 332 0
DWIDTH 12 0
BBX 11 7 -1 -11
BITMAP
E000
E000
0E00
0E00
0CE0
00E0
00C0
ENDCHAR
STARTCHAR 05BC
ENCODING 1468
SWIDTH 332 0
DWIDTH 12 0
BBX 3 3 7 9
BITMAP
40
E0
C0
ENDCHAR
STARTCHAR 05BD
ENCODING 1469
SWIDTH 332 0
DWIDTH 12 0
BBX 3 7 3 -11
BITMAP
60
60
60
40
C0
C0
C0
ENDCHAR
STARTCHAR 05BE
ENCODING 1470
SWIDTH 387 0
DWIDTH 14 0
BBX 10 3 6 16
BITMAP
FFC0
FF80
FF80
ENDCHAR
STARTCHAR 05BF
ENCODING 1471
SWIDTH 332 0
DWIDTH 12 0
BBX 8 2 7 22
BITMAP
FF
FE
ENDCHAR
STARTCHAR 05C0
ENCODING 1472
SWIDTH 276 0
DWIDTH 10 0
BBX 7 23 4 0
BITMAP
0E
0E
0E
0C
0C
1C
1C
1C
18
18
38
38
30
30
30
70
70
60
60
E0
E0
E0
C0
ENDCHAR
STARTCHAR 05C1
ENCODING 1473
SWIDTH 332 0
DWIDTH 12 0
BBX 2 3 19 21
BITMAP
C0
C0
C0
ENDCHAR
STARTCHAR 05C2
ENCODING 1474
SWIDTH 332 0
DWIDTH 12 0
BBX 3 3 0 21
BITMAP
60
E0
E0
ENDCHAR
STARTCHAR 05C3
ENCODING 1475
SWIDTH 276 0
DWIDTH 10 0
BBX 8 19 3 0
BITMAP
0F
0F
0E
0E
00
00
00
00
00
00
00
00
00
00
00
78
70
70
F0
ENDCHAR
STARTCHAR 05D0
ENCODING 1488
SWIDTH 553 0
DWIDTH 20 0
BBX 20 19 2 0
BITMAP
0F0070
0F80F0
0780E0
07C0E0
03C1E0
03E1C0
01E3C0
07F380
0FF780
1EFF00
1C7C00
3C7C00
383C00
383E00
781E00
781F00
700F00
F00F80
F00780
ENDCHAR
STARTCHAR 05D1
ENCODING 1489
SWIDTH 553 0
DWIDTH 20 0
BBX 18 19 1 0
BITMAP
0FF800
0FFE00
0FFF00
001F80
000780
000380
000380
000380
000380
000780
000780
000700
000700
000700
000F00
000F00
FFFFC0
FFFFC0
FFFFC0
ENDCHAR
STARTCHAR 05D2
ENCODING 1490
SWIDTH 387 0
DWIDTH 14 0
BBX 13 19 1 0
BITMAP
03E0
07F8
07F8
0078
0038
0038
0038
0078
0078
0070
0070
0070
03F0
0FF0
1FF0
3C70
7870
7070
E070
ENDCHAR
STARTCHAR 05D3
ENCODING 1491
SWIDTH 498 0
DWIDTH 18 0
BBX 18 19 4 0
BITMAP
7FFFC0
7FFF80
FFFF80
003C00
003800
003800
003800
007800
007800
007000
007000
007000
00F000
00F000
00E000
00E000
00E000
01E000
01C000
ENDCHAR
STARTCHAR 05D4
ENCODING 1492
SWIDTH 609 0
DWIDTH 22 0
BBX 19 19 3 0
BITMAP
07FC00
1FFF80
1FFFC0
000FC0
0003E0
0001E0
0001E0
0001E0
3801C0
3801C0
3801C0
7803C0
7803C0
700380
700380
700380
F00780
F00780
E00700
ENDCHAR
STARTCHAR 05D5
ENCODING 1493
SWIDTH 249 0
DWIDTH 9 0
BBX 7 19 3 0
BITMAP
0E
1E
1E
1C
1C
1C
3C
3C
38
38
38
78
78
70
70
F0
F0
E0
E0
ENDCHAR
STARTCHAR 05D6
ENCODING 1494
SWIDTH 387 0
DWIDTH 14 0
BBX 12 19 5 0
BITMAP
7FF0
FFF0
FFF0
0F00
1E00
3C00
3800
3800
7000
7000
7000
7000
7000
7000
F000
F000
E000
E000
E000
ENDCHAR
STARTCHAR 05D7
ENCODING 1495
SWIDTH 609 0
DWIDTH 22 0
BBX 19 19 3 0
BITMAP
07FE00
1FFF80
1FFFC0
1C07C0
1C01E0
1C01E0
3C01E0
3C01C0
3801C0
3801C0
3803C0
7803C0
700380
700380
700380
F00780
F00780
E00700
E00700
ENDCHAR
STARTCHAR 05D8
ENCODING 1496
SWIDTH 581 0
DWIDTH 21 0
BBX 18 19 4 -1
BITMAP
3C0F80
3C3F80
387FC0
3863C0
3841C0
7801C0
7003C0
7003C0
700380
700380
F00380
F00780
E00700
E00700
F00E00
F01E00
7C7C00
7FF800
1FE000
ENDCHAR
STARTCHAR 05D9
ENCODING 1497
SWIDTH 249 0
DWIDTH 9 0
BBX 5 10 5 9
BITMAP
38
78
78
70
70
70
F0
F0
E0
E0
ENDCHAR
STARTCHAR 05DA
ENCODING 1498
SWIDTH 498 0
DWIDTH 18 0
BBX 14 26 4 -7
BITMAP
7FC0
7FF0
FFF8
00FC
003C
001C
001C
001C
001C
003C
003C
0038
0038
0038
0078
0078
0070
0070
0070
00F0
00F0
00E0
00E0
01E0
01E0
01C0
ENDCHAR
STARTCHAR 05DB
ENCODING 1499
SWIDTH 470 0
DWIDTH 17 0
BBX 15 19 2 0
BITMAP
1FE0
1FF8
1FFC
007C
001E
001E
000E
000E
000E
001E
001E
001E
003C
003C
0078
01F0
FFE0
FFC0
FF00
ENDCHAR
STARTCHAR 05DC
ENCODING 1500
SWIDTH 470 0
DWIDTH 17 0
BBX 14 26 5 0
BITMAP
7800
7800
7000
7000
7000
F000
F000
FFFC
FFF8
FFF8
0038
0038
0078
0070
0070
00E0
01E0
03C0
0780
0F00
0E00
1E00
1E00
1C00
1C00
3C00
ENDCHAR
STARTCHAR 05DD
ENCODING 1501
SWIDTH 609 0
DWIDTH 22 0
BBX 19 19 3 0
BITMAP
07FE00
1FFF80
1FFFC0
1C07C0
1C01E0
1C01E0
3C01E0
3C01C0
3801C0
3801C0
3803C0
7803C0
700380
700380
700380
F00780
FFFF80
FFFF00
FFFF00
ENDCHAR
STARTCHAR 05DE
ENCODING 1502
SWIDTH 609 0
DWIDTH 22 0
BBX 20 19 2 0
BITMAP
1E0F80
0E3FC0
0E7FE0
0EF1E0
0FC0F0
0FC0F0
0F80F0
0F00E0
0F00E0
0E00E0
0E00E0
1C01E0
1C01E0
3C01C0
3801C0
7803C0
70FFC0
70FF80
F0FF80
ENDCHAR
STARTCHAR 05DF
ENCODING 1503
SWIDTH 249 0
DWIDTH 9 0
BBX 9 26 1 -7
BITMAP
0380
0780
0780
0700
0700
0700
0F00
0F00
0E00
0E00
0E00
1E00
1E00
1C00
1C00
3C00
3C00
3800
3800
3800
7800
7800
7000
7000
7000
F000
ENDCHAR
STARTCHAR 05E0
ENCODING 1504
SWIDTH 360 0
DWIDTH 13 0
BBX 12 19 1 0
BITMAP
0FC0
0FE0
0FF0
00F0
00F0
0070
00F0
00F0
00E0
00E0
00E0
01E0
01C0
01C0
01C0
03C0
7FC0
FF80
FF80
ENDCHAR
STARTCHAR 05E1
ENCODING 1505
SWIDTH 581 0
DWIDTH 21 0
BBX 18 20 3 -1
BITMAP
00FE00
03FF00
07FF80
0F03C0
1E03C0
3C01C0
3801C0
7801C0
7801C0
7001C0
F003C0
F003C0
F00380
F00780
F00F00
781F00
7C7E00
3FF800
1FF000
010000
ENDCHAR
STARTCHAR 05E2
ENCODING 1506
SWIDTH 526 0
DWIDTH 19 0
BBX 20 21 1 -2
BITMAP
0780F0
0780E0
0780E0
0780E0
0781E0
0781C0
0781C0
0781C0
0783C0
078380
078380
070780
070700
070E00
071E00
077C00
07F800
3FE000
FF8000
F80000
800000
ENDCHAR
STARTCHAR 05E3
ENCODING 1507
SWIDTH 553 0
DWIDTH 20 0
BBX 16 26 4 -7
BITMAP
0FF0
3FFE
7FFF
701F
700F
7007
7007
F007
E007
F007
FE0F
7E0E
3E0E
000E
001E
001E
001C
001C
001C
003C
003C
0038
0038
0038
0078
0078
ENDCHAR
STARTCHAR 05E4
ENCODING 1508
SWIDTH 553 0
DWIDTH 20 0
BBX 18 19 2 0
BITMAP
03FC00
0FFF00
0FFF80
1E07C0
1C03C0
1C03C0
1C01C0
1C01C0
1E01C0
1F81C0
0F83C0
0003C0
000780
000780
000F00
403E00
7FFC00
FFF800
7FC000
ENDCHAR
STARTCHAR 05E5
ENCODING 1509
SWIDTH 470 0
DWIDTH 17 0
BBX 15 26 4 -7
BITMAP
F00E
701E
781E
781C
383C
383C
3C38
3C78
1CF0
1DE0
1FC0
1F80
1E00
1E00
1C00
1C00
1C00
3C00
3C00
3800
3800
3800
7800
7000
7000
7000
ENDCHAR
STARTCHAR 05E6
ENCODING 1510
SWIDTH 470 0
DWIDTH 17 0
BBX 18 19 1 0
BITMAP
1E01C0
0F03C0
0F03C0
070380
078380
078780
03C700
03CF00
01DE00
01F800
00F000
00F000
00F000
007800
007800
003800
7FFC00
FFFC00
FFFC00
ENDCHAR
STARTCHAR 05E7
ENCODING 1511
SWIDTH 553 0
DWIDTH 20 0
BBX 20 26 2 -7
BITMAP
07FFF0
0FFFF0
0FFFE0
0000E0
0000E0
0001E0
0001C0
0001C0
1C03C0
1C0780
1C0F00
1C1E00
3C1C00
383C00
383800
387800
787000
707000
707000
700000
700000
F00000
E00000
E00000
E00000
E00000
ENDCHAR
STARTCHAR 05E8
ENCODING 1512
SWIDTH 498 0
DWIDTH 18 0
BBX 14 19 4 0
BITMAP
7FC0
7FF0
FFF8
00FC
003C
001C
001C
001C
001C
001C
003C
0038
0038
0038
0078
0078
0070
0070
0070
ENDCHAR
STARTCHAR 05E9
ENCODING 1513
SWIDTH 692 0
DWIDTH 25 0
BBX 23 19 4 -1
BITMAP
381C0E
381C0E
783C1E
78381C
70381C
70783C
707038
707038
F0F078
F3E070
FFC070
FF00F0
F000E0
F001E0
7003C0
780780
7F3F00
3FFE00
1FF800
ENDCHAR
STARTCHAR 05EA
ENCODING 1514
SWIDTH 636 0
DWIDTH 23 0
BBX 22 19 1 0
BITMAP
07FFC0
0FFFF0
0FFFF8
00E07C
01E03C
01E01C
01C01C
01C01C
01C01C
03C03C
03C038
038038
038038
038078
078078
070070
7F0070
FF0070
FC00F0
ENDCHAR
STARTCHAR 05F0
ENCODING 1520
SWIDTH 498 0
DWIDTH 18 0
BBX 16 19 3 0
BITMAP
0E07
1E0F
1E0F
1C0E
1C0E
1C0E
3C1E
3C1E
381C
381C
383C
783C
7838
7038
7038
F078
F078
E070
E070
ENDCHAR
STARTCHAR 05F1
ENCODING 1521
SWIDTH 498 0
DWIDTH 18 0
BBX 14 19 5 0
BITMAP
381C
783C
783C
7038
7038
7038
F078
F078
E070
E070
00F0
00F0
00E0
00E0
00E0
01E0
01E0
01C0
01C0
ENDCHAR
STARTCHAR 05F2
ENCODING 1522
SWIDTH 498 0
DWIDTH 18 0
BBX 14 10 5 9
BITMAP
381C
783C
783C
7038
7038
7038
F078
F078
E070
E070
ENDCHAR
STARTCHAR 05F3
ENCODING 1523
SWIDTH 249 0
DWIDTH 9 0
BBX 7 7 4 12
BITMAP
1E
1C
38
38
70
60
E0
ENDCHAR
STARTCHAR 05F4
ENCODING 1524
SWIDTH 415 0
DWIDTH 15 0
BBX 13 7 4 12
BITMAP
1E38
1C78
3870
38E0
70E0
61C0
E180
ENDCHAR
STARTCHAR 1E80
ENCODING 7808
SWIDTH 941 0
DWIDTH 34 0
BBX 33 32 5 0
BITMAP
0007800000
0003C00000
0001C00000
0000C00000
0000E00000
0000000000
E001C00380
E003C00780
E003C00700
E007E00F00
E00FE00E00
E00FE01E00
E01FE01C00
E01CE03C00
E03CE03800
E038E07800
F078E07000
F070E0F000
F0F0E0E000
F0E0E1E000
F1E0E1C000
F1C0E3C000
F3C0E38000
7380E78000
7780E70000
7700EE0000
7F00EE0000
7E00FC0000
7E00FC0000
7C00F80000
7800F80000
7800F00000
ENDCHAR
STARTCHAR 1E81
ENCODING 7809
SWIDTH 720 0
DWIDTH 26 0
BBX 25 26 3 0
BITMAP
00380000
003C0000
001C0000
000E0000
000E0000
00000000
00000000
E01C0380
E03C0700
E03C0700
E07C0E00
E07C0E00
E0EE1E00
F0EE1C00
71CE3C00
71CE3800
738E3800
738E7000
738E7000
770EE000
770EE000
760FC000
7E0FC000
7C0F8000
3C0F8000
38070000
ENDCHAR
STARTCHAR 1E82
ENCODING 7810
SWIDTH 941 0
DWIDTH 34 0
BBX 33 32 5 0
BITMAP
0000780000
0000E00000
0001C00000
0003800000
0003000000
0000000000
E001C00380
E003C00780
E003C00700
E007E00F00
E00FE00E00
E00FE01E00
E01FE01C00
E01CE03C00
E03CE03800
E038E07800
F078E07000
F070E0F000
F0F0E0E000
F0E0E1E000
F1E0E1C000
F1C0E3C000
F3C0E38000
7380E78000
7780E70000
7700EE0000
7F00EE0000
7E00FC0000
7E00FC0000
7C00F80000
7800F80000
7800F00000
ENDCHAR
STARTCHAR 1E83
ENCODING 7811
SWIDTH 720 0
DWIDTH 26 0
BBX 25 26 3 0
BITMAP
00078000
00070000
000E0000
001C0000
00380000
00000000
00000000
E01C0380
E03C0700
E03C0700
E07C0E00
E07C0E00
E0EE1E00
F0EE1C00
71CE3C00
71CE3800
738E3800
738E7000
738E7000
770EE000
770EE000
760FC000
7E0FC000
7C0F8000
3C0F8000
38070000
ENDCHAR
STARTCHAR 1E84
ENCODING 7812
SWIDTH 941 0
DWIDTH 34 0
BBX 33 31 5 0
BITMAP
000F1C0000
000F1C0000
000E1C0000
000E3C0000
0000000000
E001C00380
E003C00780
E003C00700
E007E00F00
E00FE00E00
E00FE01E00
E01FE01C00
E01CE03C00
E03CE03800
E038E07800
F078E07000
F070E0F000
F0F0E0E000
F0E0E1E000
F1E0E1C000
F1C0E3C000
F3C0E38000
7380E78000
7780E70000
7700EE0000
7F00EE0000
7E00FC0000
7E00FC0000
7C00F80000
7800F80000
7800F00000
ENDCHAR
STARTCHAR 1E85
ENCODING 7813
SWIDTH 720 0
DWIDTH 26 0
BBX 25 25 3 0
BITMAP
0071E000
0071C000
00F1C000
00000000
00000000
00000000
E01C0380
E03C0700
E03C0700
E07C0E00
E07C0E00
E0EE1E00
F0EE1C00
71CE3C00
71CE3800
738E3800
738E7000
738E7000
770EE000
770EE000
760FC000
7E0FC000
7C0F8000
3C0F8000
38070000
ENDCHAR
STARTCHAR 1EA0
ENCODING 7840
SWIDTH 664 0
DWIDTH 24 0
BBX 22 32 0 -6
BITMAP
0003C0
0007C0
0007C0
000EE0
001EE0
001CE0
003CE0
0038E0
0078E0
0070F0
00F0F0
01E070
01E070
03C070
038070
078078
07FFF8
0FFFF8
0FFFF8
1E0038
3C0038
3C003C
78003C
70003C
F0001C
E0001C
000000
000000
007000
007000
00F000
00F000
ENDCHAR
STARTCHAR 1EA1
ENCODING 7841
SWIDTH 553 0
DWIDTH 20 0
BBX 17 25 2 -6
BITMAP
03FC00
0FFE00
1FFF00
3C0780
380380
780380
000380
000780
0FFF00
3FFF00
7E0700
F00700
E00F00
E00E00
E01E00
E03E00
F07E00
7FEE00
3F8E00
000000
000000
078000
070000
070000
0F0000
ENDCHAR
STARTCHAR 1EA2
ENCODING 7842
SWIDTH 664 0
DWIDTH 24 0
BBX 22 32 0 0
BITMAP
0003F0
000038
000038
0000F0
000180
000000
0003C0
0007C0
0007C0
000EE0
001EE0
001CE0
003CE0
0038E0
0078E0
0070F0
00F0F0
01E070
01E070
03C070
038070
078078
07FFF8
0FFFF8
0FFFF8
1E0038
3C0038
3C003C
78003C
70003C
F0001C
E0001C
ENDCHAR
STARTCHAR 1EA3
ENCODING 7843
SWIDTH 553 0
DWIDTH 20 0
BBX 17 27 2 0
BITMAP
00FC00
00FE00
000F00
000E00
003C00
003000
000000
000000
03FC00
0FFE00
1FFF00
3C0780
380380
780380
000380
000780
0FFF00
3FFF00
7E0700
F00700
E00F00
E00E00
E01E00
E03E00
F07E00
7FEE00
3F8E00
ENDCHAR
STARTCHAR 1EA4
ENCODING 7844
SWIDTH 664 0
DWIDTH 24 0
BBX 22 32 0 0
BITMAP
0000F0
0001C0
000000
0003E0
000E70
001000
0003C0
0007C0
0007C0
000EE0
001EE0
001CE0
003CE0
0038E0
0078E0
0070F0
00F0F0
01E070
01E070
03C070
038070
078078
07FFF8
0FFFF8
0FFFF8
1E0038
3C0038
3C003C
78003C
70003C
F0001C
E0001C
ENDCHAR
STARTCHAR 1EA5
ENCODING 7845
SWIDTH 553 0
DWIDTH 20 0
BBX 17 32 2 0
BITMAP
000780
000F00
001E00
001C00
003800
000000
003C00
007C00
00EE00
01C600
038700
000000
000000
03FC00
0FFE00
1FFF00
3C0780
380380
780380
000380
000780
0FFF00
3FFF00
7E0700
F00700
E00F00
E00E00
E01E00
E03E00
F07E00
7FEE00
3F8E00
ENDCHAR
STARTCHAR 1EA6
ENCODING 7846
SWIDTH 664 0
DWIDTH 24 0
BBX 22 32 0 0
BITMAP
000780
0001C0
000000
0003E0
000E70
001000
0003C0
0007C0
0007C0
000EE0
001EE0
001CE0
003CE0
0038E0
0078E0
0070F0
00F0F0
01E070
01E070
03C070
038070
078078
07FFF8
0FFFF8
0FFFF8
1E0038
3C0038
3C003C
78003C
70003C
F0001C
E0001C
ENDCHAR
STARTCHAR 1EA7
ENCODING 7847
SWIDTH 553 0
DWIDTH 20 0
BBX 17 32 2 0
BITMAP
003800
003C00
001C00
000E00
000E00
000000
003C00
007C00
00EE00
01C600
038700
000000
000000
03FC00
0FFE00
1FFF00
3C0780
380380
780380
000380
000780
0FFF00
3FFF00
7E0700
F00700
E00F00
E00E00
E01E00
E03E00
F07E00
7FEE00
3F8E00
ENDCHAR
STARTCHAR 1EA8
ENCODING 7848
SWIDTH 664 0
DWIDTH 24 0
BBX 22 32 0 0
BITMAP
0003F0
000070
000080
0003E0
000E70
001000
0003C0
0007C0
0007C0
000EE0
001EE0
001CE0
003CE0
0038E0
0078E0
0070F0
00F0F0
01E070
01E070
03C070
038070
078078
07FFF8
0FFFF8
0FFFF8
1E0038
3C0038
3C003C
78003C
70003C
F0001C
E0001C
ENDCHAR
STARTCHAR 1EA9
ENCODING 7849
SWIDTH 553 0
DWIDTH 20 0
BBX 17 32 2 0
BITMAP
003F00
000380
000380
000F00
001800
000000
003C00
007C00
00EE00
01C600
038700
000000
000000
03FC00
0FFE00
1FFF00
3C0780
380380
780380
000380
000780
0FFF00
3FFF00
7E0700
F00700
E00F00
E00E00
E01E00
E03E00
F07E00
7FEE00
3F8E00
ENDCHAR
STARTCHAR 1EAA
ENCODING 7850
SWIDTH 664 0
DWIDTH 24 0
BBX 22 32 0 0
BITMAP
000F8C
0019F8
000000
0003E0
000E70
001000
0003C0
0007C0
0007C0
000EE0
001EE0
001CE0
003CE0
0038E0
0078E0
0070F0
00F0F0
01E070
01E070
03C070
038070
078078
07FFF8
0FFFF8
0FFFF8
1E0038
3C0038
3C003C
78003C
70003C
F0001C
E0001C
ENDCHAR
STARTCHAR 1EAB
ENCODING 7851
SWIDTH 553 0
DWIDTH 20 0
BBX 18 31 2 0
BITMAP
00F8C0
01FFC0
019F80
030200
000000
003C00
007C00
00EE00
01C600
038700
000000
000000
03FC00
0FFE00
1FFF00
3C0780
380380
780380
000380
000780
0FFF00
3FFF00
7E0700
F00700
E00F00
E00E00
E01E00
E03E00
F07E00
7FEE00
3F8E00
ENDCHAR
STARTCHAR 1EAC
ENCODING 7852
SWIDTH 664 0
DWIDTH 24 0
BBX 22 35 0 -6
BITMAP
0003E0
000E70
000008
0003C0
0007C0
0007C0
000EE0
001EE0
001CE0
003CE0
0038E0
0078E0
0070F0
00F0F0
01E070
01E070
03C070
038070
078078
07FFF8
0FFFF8
0FFFF8
1E0038
3C0038
3C003C
78003C
70003C
F0001C
E0001C
000000
000000
007000
007000
00F000
00F000
ENDCHAR
STARTCHAR 1EAD
ENCODING 7853
SWIDTH 553 0
DWIDTH 20 0
BBX 17 32 2 -6
BITMAP
003C00
007C00
00EE00
01C600
038700
000000
000000
03FC00
0FFE00
1FFF00
3C0780
380380
780380
000380
000780
0FFF00
3FFF00
7E0700
F00700
E00F00
E00E00
E01E00
E03E00
F07E00
7FEE00
3F8E00
000000
000000
078000
070000
070000
0F0000
ENDCHAR
STARTCHAR 1EAE
ENCODING 7854
SWIDTH 664 0
DWIDTH 24 0
BBX 22 32 0 0
BITMAP
0000F0
0001C0
000000
00080C
000FF8
0001C0
0003C0
0007C0
0007C0
000EE0
001EE0
001CE0
003CE0
0038E0
0078E0
0070F0
00F0F0
01E070
01E070
03C070
038070
078078
07FFF8
0FFFF8
0FFFF8
1E0038
3C0038
3C003C
78003C
70003C
F0001C
E0001C
ENDCHAR
STARTCHAR 1EAF
ENCODING 7855
SWIDTH 553 0
DWIDTH 20 0
BBX 17 32 2 0
BITMAP
000780
000F00
001E00
001C00
003800
000000
000000
030380
038700
01FE00
00FC00
000000
000000
03FC00
0FFE00
1FFF00
3C0780
380380
780380
000380
000780
0FFF00
3FFF00
7E0700
F00700
E00F00
E00E00
E01E00
E03E00
F07E00
7FEE00
3F8E00
ENDCHAR
STARTCHAR 1EB0
ENCODING 7856
SWIDTH 664 0
DWIDTH 24 0
BBX 22 32 0 0
BITMAP
000780
0001C0
000000
00080C
000FF8
0001C0
0003C0
0007C0
0007C0
000EE0
001EE0
001CE0
003CE0
0038E0
0078E0
0070F0
00F0F0
01E070
01E070
03C070
038070
078078
07FFF8
0FFFF8
0FFFF8
1E0038
3C0038
3C003C
78003C
70003C
F0001C
E0001C
ENDCHAR
STARTCHAR 1EB1
ENCODING 7857
SWIDTH 553 0
DWIDTH 20 0
BBX 17 32 2 0
BITMAP
007800
003800
001C00
001C00
000E00
000000
000000
030380
038700
01FE00
00FC00
000000
000000
03FC00
0FFE00
1FFF00
3C0780
380380
780380
000380
000780
0FFF00
3FFF00
7E0700
F00700
E00F00
E00E00
E01E00
E03E00
F07E00
7FEE00
3F8E00
ENDCHAR
STARTCHAR 1EB2
ENCODING 7858
SWIDTH 664 0
DWIDTH 24 0
BBX 22 32 0 0
BITMAP
0003F8
000038
0000C0
00080C
000FF8
0001C0
0003C0
0007C0
0007C0
000EE0
001EE0
001CE0
003CE0
0038E0
0078E0
0070F0
00F0F0
01E070
01E070
03C070
038070
078078
07FFF8
0FFFF8
0FFFF8
1E0038
3C0038
3C003C
78003C
70003C
F0001C
E0001C
ENDCHAR
STARTCHAR 1EB3
ENCODING 7859
SWIDTH 553 0
DWIDTH 20 0
BBX 17 32 2 0
BITMAP
003F00
000780
000380
001F00
001800
000000
000000
030380
038700
01FE00
00FC00
000000
000000
03FC00
0FFE00
1FFF00
3C0780
380380
780380
000380
000780
0FFF00
3FFF00
7E0700
F00700
E00F00
E00E00
E01E00
E03E00
F07E00
7FEE00
3F8E00
ENDCHAR
STARTCHAR 1EB4
ENCODING 7860
SWIDTH 664 0
DWIDTH 24 0
BBX 23 32 0 0
BITMAP
0007C6
000CFC
000000
00080C
000FF8
0001C0
0003C0
0007C0
0007C0
000EE0
001EE0
001CE0
003CE0
0038E0
0078E0
0070F0
00F0F0
01E070
01E070
03C070
038070
078078
07FFF8
0FFFF8
0FFFF8
1E0038
3C0038
3C003C
78003C
70003C
F0001C
E0001C
ENDCHAR
STARTCHAR 1EB5
ENCODING 7861
SWIDTH 553 0
DWIDTH 20 0
BBX 18 31 2 0
BITMAP
00F8C0
01FFC0
019F80
030200
000000
000000
030380
038700
01FE00
00FC00
000000
000000
03FC00
0FFE00
1FFF00
3C0780
380380
780380
000380
000780
0FFF00
3FFF00
7E0700
F00700
E00F00
E00E00
E01E00
E03E00
F07E00
7FEE00
3F8E00
ENDCHAR
STARTCHAR 1EB6
ENCODING 7862
SWIDTH 664 0
DWIDTH 24 0
BBX 22 34 0 -6
BITMAP
000E38
0003E0
0003C0
0007C0
0007C0
000EE0
001EE0
001CE0
003CE0
0038E0
0078E0
0070F0
00F0F0
01E070
01E070
03C070
038070
078078
07FFF8
0FFFF8
0FFFF8
1E0038
3C0038
3C003C
78003C
70003C
F0001C
E0001C
000000
000000
007000
007000
00F000
00F000
ENDCHAR
STARTCHAR 1EB7
ENCODING 7863
SWIDTH 553 0
DWIDTH 20 0
BBX 17 31 2 -6
BITMAP
030380
038700
01FE00
00FC00
000000
000000
03FC00
0FFE00
1FFF00
3C0780
380380
780380
000380
000780
0FFF00
3FFF00
7E0700
F00700
E00F00
E00E00
E01E00
E03E00
F07E00
7FEE00
3F8E00
000000
000000
078000
070000
070000
0F0000
ENDCHAR
STARTCHAR 1EB8
ENCODING 7864
SWIDTH 664 0
DWIDTH 24 0
BBX 24 32 2 -6
BITMAP
07FFFF
07FFFE
07FFFE
0F0000
0F0000
0E0000
0E0000
1E0000
1E0000
1E0000
1C0000
1FFFF8
3FFFF8
3FFFF8
380000
380000
380000
780000
780000
700000
700000
700000
F00000
FFFFF0
FFFFF0
FFFFE0
000000
000000
00E000
00E000
01E000
01E000
ENDCHAR
STARTCHAR 1EB9
ENCODING 7865
SWIDTH 553 0
DWIDTH 20 0
BBX 17 25 2 -6
BITMAP
01F800
07FE00
1F9F00
1E0700
380380
780380
700380
700380
FFFF80
FFFF80
E00000
E00000
E00000
E00700
F00E00
701E00
7C7C00
3FF800
1FE000
000000
000000
078000
070000
070000
0F0000
ENDCHAR
STARTCHAR 1EBA
ENCODING 7866
SWIDTH 664 0
DWIDTH 24 0
BBX 24 32 2 0
BITMAP
000FC0
0000E0
0000E0
0003C0
000600
000000
07FFFF
07FFFE
07FFFE
0F0000
0F0000
0E0000
0E0000
1E0000
1E0000
1E0000
1C0000
1FFFF8
3FFFF8
3FFFF8
380000
380000
380000
780000
780000
700000
700000
700000
F00000
FFFFF0
FFFFF0
FFFFE0
ENDCHAR
STARTCHAR 1EBB
ENCODING 7867
SWIDTH 553 0
DWIDTH 20 0
BBX 17 27 2 0
BITMAP
00FC00
00FE00
000E00
001E00
007800
006000
000000
000000
01F800
07FE00
1F9F00
1E0700
380380
780380
700380
700380
FFFF80
FFFF80
E00000
E00000
E00000
E00700
F00E00
701E00
7C7C00
3FF800
1FE000
ENDCHAR
STARTCHAR 1EBC
ENCODING 7868
SWIDTH 664 0
DWIDTH 24 0
BBX 24 31 2 0
BITMAP
003E38
003FF0
0063F0
006040
000000
07FFFF
07FFFE
07FFFE
0F0000
0F0000
0E0000
0E0000
1E0000
1E0000
1E0000
1C0000
1FFFF8
3FFFF8
3FFFF8
380000
380000
380000
780000
780000
700000
700000
700000
F00000
FFFFF0
FFFFF0
FFFFE0
ENDCHAR
STARTCHAR 1EBD
ENCODING 7869
SWIDTH 553 0
DWIDTH 20 0
BBX 17 25 2 1
BITMAP
03F300
07FF00
063E00
000000
000000
000000
01F800
07FE00
1F9F00
1E0700
380380
780380
700380
700380
FFFF80
FFFF80
E00000
E00000
E00000
E00700
F00E00
701E00
7C7C00
3FF800
1FE000
ENDCHAR
STARTCHAR 1EBE
ENCODING 7870
SWIDTH 664 0
DWIDTH 24 0
BBX 24 32 2 0
BITMAP
0001E0
000380
000000
000F80
003DE0
000000
07FFFF
07FFFE
07FFFE
0F0000
0F0000
0E0000
0E0000
1E0000
1E0000
1E0000
1C0000
1FFFF8
3FFFF8
3FFFF8
380000
380000
380000
780000
780000
700000
700000
700000
F00000
FFFFF0
FFFFF0
FFFFE0
ENDCHAR
STARTCHAR 1EBF
ENCODING 7871
SWIDTH 553 0
DWIDTH 20 0
BBX 17 32 2 0
BITMAP
000780
000F00
000E00
001C00
003800
000000
003C00
007E00
00EE00
01E700
03C700
000000
000000
01F800
07FE00
1F9F00
1E0700
380380
780380
700380
700380
FFFF80
FFFF80
E00000
E00000
E00000
E00700
F00E00
701E00
7C7C00
3FF800
1FE000
ENDCHAR
STARTCHAR 1EC0
ENCODING 7872
SWIDTH 664 0
DWIDTH 24 0
BBX 24 32 2 0
BITMAP
000F00
000380
000000
000F80
003DE0
000000
07FFFF
07FFFE
07FFFE
0F0000
0F0000
0E0000
0E0000
1E0000
1E0000
1E0000
1C0000
1FFFF8
3FFFF8
3FFFF8
380000
380000
380000
780000
780000
700000
700000
700000
F00000
FFFFF0
FFFFF0
FFFFE0
ENDCHAR
STARTCHAR 1EC1
ENCODING 7873
SWIDTH 553 0
DWIDTH 20 0
BBX 17 32 2 0
BITMAP
003C00
001C00
001C00
000E00
000600
000000
003C00
007E00
00EE00
01E700
03C700
000000
000000
01F800
07FE00
1F9F00
1E0700
380380
780380
700380
700380
FFFF80
FFFF80
E00000
E00000
E00000
E00700
F00E00
701E00
7C7C00
3FF800
1FE000
ENDCHAR
STARTCHAR 1EC2
ENCODING 7874
SWIDTH 664 0
DWIDTH 24 0
BBX 24 32 2 0
BITMAP
000FE0
0000E0
000300
000F80
003DE0
000000
07FFFF
07FFFE
07FFFE
0F0000
0F0000
0E0000
0E0000
1E0000
1E0000
1E0000
1C0000
1FFFF8
3FFFF8
3FFFF8
380000
380000
380000
780000
780000
700000
700000
700000
F00000
FFFFF0
FFFFF0
FFFFE0
ENDCHAR
STARTCHAR 1EC3
ENCODING 7875
SWIDTH 553 0
DWIDTH 20 0
BBX 17 32 2 0
BITMAP
003F00
000380
000380
000F00
000C00
000000
003C00
007E00
00EE00
01E700
03C700
000000
000000
01F800
07FE00
1F9F00
1E0700
380380
780380
700380
700380
FFFF80
FFFF80
E00000
E00000
E00000
E00700
F00E00
701E00
7C7C00
3FF800
1FE000
ENDCHAR
STARTCHAR 1EC4
ENCODING 7876
SWIDTH 664 0
DWIDTH 24 0
BBX 24 32 2 0
BITMAP
003F10
0033F0
000000
000F80
003DE0
000000
07FFFF
07FFFE
07FFFE
0F0000
0F0000
0E0000
0E0000
1E0000
1E0000
1E0000
1C0000
1FFFF8
3FFFF8
3FFFF8
380000
380000
380000
780000
780000
700000
700000
700000
F00000
FFFFF0
FFFFF0
FFFFE0
ENDCHAR
STARTCHAR 1EC5
ENCODING 7877
SWIDTH 553 0
DWIDTH 20 0
BBX 18 31 2 0
BITMAP
00F8C0
01FFC0
019F80
030200
000000
003C00
007E00
00EE00
01E700
03C700
000000
000000
01F800
07FE00
1F9F00
1E0700
380380
780380
700380
700380
FFFF80
FFFF80
E00000
E00000
E00000
E00700
F00E00
701E00
7C7C00
3FF800
1FE000
ENDCHAR
STARTCHAR 1EC6
ENCODING 7878
SWIDTH 664 0
DWIDTH 24 0
BBX 24 35 2 -6
BITMAP
000F80
003DE0
000000
07FFFF
07FFFE
07FFFE
0F0000
0F0000
0E0000
0E0000
1E0000
1E0000
1E0000
1C0000
1FFFF8
3FFFF8
3FFFF8
380000
380000
380000
780000
780000
700000
700000
700000
F00000
FFFFF0
FFFFF0
FFFFE0
000000
000000
00E000
00E000
01E000
01E000
ENDCHAR
STARTCHAR 1EC7
ENCODING 7879
SWIDTH 553 0
DWIDTH 20 0
BBX 17 32 2 -6
BITMAP
003C00
007E00
00EE00
01E700
03C700
000000
000000
01F800
07FE00
1F9F00
1E0700
380380
780380
700380
700380
FFFF80
FFFF80
E00000
E00000
E00000
E00700
F00E00
701E00
7C7C00
3FF800
1FE000
000000
000000
078000
070000
070000
0F0000
ENDCHAR
STARTCHAR 1EC8
ENCODING 7880
SWIDTH 276 0
DWIDTH 10 0
BBX 12 32 2 0
BITMAP
07E0
0070
0070
01E0
0300
0000
0780
0780
0700
0700
0700
0F00
0F00
0E00
0E00
0E00
1E00
1E00
1C00
1C00
3C00
3C00
3C00
3800
3800
7800
7800
7000
7000
7000
F000
F000
ENDCHAR
STARTCHAR 1EC9
ENCODING 7881
SWIDTH 221 0
DWIDTH 8 0
BBX 11 27 1 0
BITMAP
0FC0
1FE0
00E0
01C0
0780
0600
0000
0000
0E00
0E00
0E00
1E00
1C00
1C00
1C00
3C00
3800
3800
3800
3800
7800
7000
7000
7000
7000
F000
E000
ENDCHAR
STARTCHAR 1ECA
ENCODING 7882
SWIDTH 276 0
DWIDTH 10 0
BBX 10 32 1 -6
BITMAP
03C0
03C0
0380
0380
0380
0780
0780
0700
0700
0700
0F00
0F00
0E00
0E00
1E00
1E00
1E00
1C00
1C00
3C00
3C00
3800
3800
3800
7800
7800
0000
0000
7000
F000
F000
F000
ENDCHAR
STARTCHAR 1ECB
ENCODING 7883
SWIDTH 221 0
DWIDTH 8 0
BBX 10 32 0 -6
BITMAP
03C0
0380
0380
0380
0000
0000
0000
0700
0700
0700
0F00
0E00
0E00
0E00
1E00
1C00
1C00
1C00
1C00
3C00
3800
3800
3800
3800
7800
7000
0000
0000
F000
F000
E000
E000
ENDCHAR
STARTCHAR 1ECC
ENCODING 7884
SWIDTH 775 0
DWIDTH 28 0
BBX 25 32 3 -6
BITMAP
003FC000
01FFF000
03FFFC00
07C03C00
0F001E00
1E000F00
3C000F00
3C000700
78000780
78000780
70000780
70000780
F0000780
F0000780
F0000780
F0000700
F0000F00
70000F00
70001E00
78001E00
78003C00
3C007800
1E01F000
0FEFE000
07FFC000
01FF0000
00000000
00000000
00780000
00700000
00F00000
00F00000
ENDCHAR
STARTCHAR 1ECD
ENCODING 7885
SWIDTH 553 0
DWIDTH 20 0
BBX 18 25 2 -6
BITMAP
03F800
07FE00
1F1F00
3C0780
380380
780380
700380
F003C0
E00380
E00380
E00380
E00380
E00780
E00700
F00F00
701E00
783C00
3FF800
1FE000
000000
000000
078000
070000
070000
0F0000
ENDCHAR
STARTCHAR 1ECE
ENCODING 7886
SWIDTH 775 0
DWIDTH 28 0
BBX 25 32 3 0
BITMAP
000FC000
0001E000
0000E000
0007C000
00060000
00000000
003FC000
01FFF000
03FFFC00
07C03C00
0F001E00
1E000F00
3C000F00
3C000700
78000780
78000780
70000780
70000780
F0000780
F0000780
F0000780
F0000700
F0000F00
70000F00
70001E00
78001E00
78003C00
3C007800
1E01F000
0FEFE000
07FFC000
01FF0000
ENDCHAR
STARTCHAR 1ECF
ENCODING 7887
SWIDTH 553 0
DWIDTH 20 0
BBX 18 27 2 0
BITMAP
00FC00
00FE00
000F00
000E00
003C00
003000
000000
000000
03F800
07FE00
1F1F00
3C0780
380380
780380
700380
F003C0
E00380
E00380
E00380
E00380
E00780
E00700
F00F00
701E00
783C00
3FF800
1FE000
ENDCHAR
STARTCHAR 1ED0
ENCODING 7888
SWIDTH 775 0
DWIDTH 28 0
BBX 25 32 3 0
BITMAP
0001E000
00038000
00000000
000F8000
003CE000
00000000
003FC000
01FFF000
03FFFC00
07C03C00
0F001E00
1E000F00
3C000F00
3C000700
78000780
78000780
70000780
70000780
F0000780
F0000780
F0000780
F0000700
F0000F00
70000F00
70001E00
78001E00
78003C00
3C007800
1E01F000
0FEFE000
07FFC000
01FF0000
ENDCHAR
STARTCHAR 1ED1
ENCODING 7889
SWIDTH 553 0
DWIDTH 20 0
BBX 18 32 2 0
BITMAP
000F00
000E00
001C00
003800
003000
000000
003C00
007C00
00EE00
01CE00
038600
000000
000000
03F800
07FE00
1F1F00
3C0780
380380
780380
700380
F003C0
E00380
E00380
E00380
E00380
E00780
E00700
F00F00
701E00
783C00
3FF800
1FE000
ENDCHAR
STARTCHAR 1ED2
ENCODING 7890
SWIDTH 775 0
DWIDTH 28 0
BBX 25 32 3 0
BITMAP
000F0000
00038000
00000000
000F8000
003CE000
00000000
003FC000
01FFF000
03FFFC00
07C03C00
0F001E00
1E000F00
3C000F00
3C000700
78000780
78000780
70000780
70000780
F0000780
F0000780
F0000780
F0000700
F0000F00
70000F00
70001E00
78001E00
78003C00
3C007800
1E01F000
0FEFE000
07FFC000
01FF0000
ENDCHAR
STARTCHAR 1ED3
ENCODING 7891
SWIDTH 553 0
DWIDTH 20 0
BBX 18 32 2 0
BITMAP
007800
003800
001C00
001C00
000E00
000000
003C00
007C00
00EE00
01CE00
038600
000000
000000
03F800
07FE00
1F1F00
3C0780
380380
780380
700380
F003C0
E00380
E00380
E00380
E00380
E00780
E00700
F00F00
701E00
783C00
3FF800
1FE000
ENDCHAR
STARTCHAR 1ED4
ENCODING 7892
SWIDTH 775 0
DWIDTH 28 0
BBX 25 32 3 0
BITMAP
000FE000
0000E000
00030000
000F8000
003CE000
00000000
003FC000
01FFF000
03FFFC00
07C03C00
0F001E00
1E000F00
3C000F00
3C000700
78000780
78000780
70000780
70000780
F0000780
F0000780
F0000780
F0000700
F0000F00
70000F00
70001E00
78001E00
78003C00
3C007800
1E01F000
0FEFE000
07FFC000
01FF0000
ENDCHAR
STARTCHAR 1ED5
ENCODING 7893
SWIDTH 553 0
DWIDTH 20 0
BBX 18 32 2 0
BITMAP
003F00
000780
000380
001F00
001800
000000
003C00
007C00
00EE00
01CE00
038600
000000
000000
03F800
07FE00
1F1F00
3C0780
380380
780380
700380
F003C0
E00380
E00380
E00380
E00380
E00780
E00700
F00F00
701E00
783C00
3FF800
1FE000
ENDCHAR
STARTCHAR 1ED6
ENCODING 7894
SWIDTH 775 0
DWIDTH 28 0
BBX 25 32 3 0
BITMAP
001F1800
0033F000
00000000
000F8000
003CE000
00000000
003FC000
01FFF000
03FFFC00
07C03C00
0F001E00
1E000F00
3C000F00
3C000700
78000780
78000780
70000780
70000780
F0000780
F0000780
F0000780
F0000700
F0000F00
70000F00
70001E00
78001E00
78003C00
3C007800
1E01F000
0FEFE000
07FFC000
01FF0000
ENDCHAR
STARTCHAR 1ED7
ENCODING 7895
SWIDTH 553 0
DWIDTH 20 0
BBX 18 31 2 0
BITMAP
00F8C0
01FFC0
019F80
030200
000000
003C00
007C00
00EE00
01CE00
038600
000000
000000
03F800
07FE00
1F1F00
3C0780
380380
780380
700380
F003C0
E00380
E00380
E00380
E00380
E00780
E00700
F00F00
701E00
783C00
3FF800
1FE000
ENDCHAR
STARTCHAR 1ED8
ENCODING 7896
SWIDTH 775 0
DWIDTH 28 0
BBX 25 36 3 -6
BITMAP
00078000
001DE000
00200000
00000000
003FC000
01FFF000
03FFFC00
07C03C00
0F001E00
1E000F00
3C000F00
3C000700
78000780
78000780
70000780
70000780
F0000780
F0000780
F0000780
F0000700
F0000F00
70000F00
70001E00
78001E00
78003C00
3C007800
1E01F000
0FEFE000
07FFC000
01FF0000
00000000
00000000
00780000
00700000
00F00000
00F00000
ENDCHAR
STARTCHAR 1ED9
ENCODING 7897
SWIDTH 553 0
DWIDTH 20 0
BBX 18 32 2 -6
BITMAP
003C00
007C00
00EE00
01CE00
038600
000000
000000
03F800
07FE00
1F1F00
3C0780
380380
780380
700380
F003C0
E00380
E00380
E00380
E00380
E00780
E00700
F00F00
701E00
783C00
3FF800
1FE000
000000
000000
078000
070000
070000
0F0000
ENDCHAR
STARTCHAR 1EDA
ENCODING 7898
SWIDTH 803 0
DWIDTH 29 0
BBX 29 32 3 0
BITMAP
0003C000
00038000
00070000
000E0000
000C0000
00000000
007FC038
01FFF038
03FFFC78
07C03C78
0F001E18
1E000F10
3C000F30
3C000760
380007C0
78000780
70000780
70000780
F0000780
F0000780
F0000780
F0000700
F0000F00
70000F00
70001E00
78001E00
78003C00
3C007800
1E00F000
0FEFE000
07FFC000
01FF0000
ENDCHAR
STARTCHAR 1EDB
ENCODING 7899
SWIDTH 609 0
DWIDTH 22 0
BBX 22 26 2 0
BITMAP
001E00
003C00
003800
007000
00E000
000000
000000
03F81C
07FE1C
1F1F3C
3C07BC
38038C
780388
700398
F003F0
E003E0
E00380
E00380
E00380
E00780
E00700
F00F00
701E00
783C00
3FF800
1FE000
ENDCHAR
STARTCHAR 1EDC
ENCODING 7900
SWIDTH 803 0
DWIDTH 29 0
BBX 29 32 3 0
BITMAP
000F0000
00078000
00038000
00018000
0001C000
00000000
007FC038
01FFF038
03FFFC78
07C03C78
0F001E18
1E000F10
3C000F30
3C000760
380007C0
78000780
70000780
70000780
F0000780
F0000780
F0000780
F0000700
F0000F00
70000F00
70001E00
78001E00
78003C00
3C007800
1E00F000
0FEFE000
07FFC000
01FF0000
ENDCHAR
STARTCHAR 1EDD
ENCODING 7901
SWIDTH 609 0
DWIDTH 22 0
BBX 22 26 2 0
BITMAP
00F000
007800
003800
001800
001C00
000000
000000
03F81C
07FE1C
1F1F3C
3C07BC
38038C
780388
700398
F003F0
E003E0
E00380
E00380
E00380
E00780
E00700
F00F00
701E00
783C00
3FF800
1FE000
ENDCHAR
STARTCHAR 1EDE
ENCODING 7902
SWIDTH 803 0
DWIDTH 29 0
BBX 29 33 3 0
BITMAP
000F8000
000FE000
0000E000
0001C000
00070000
00000000
00000000
007FC038
01FFF038
03FFFC78
07C03C78
0F001E18
1E000F10
3C000F30
3C000760
380007C0
78000780
70000780
70000780
F0000780
F0000780
F0000780
F0000700
F0000F00
70000F00
70001E00
78001E00
78003C00
3C007800
1E00F000
0FEFE000
07FFC000
01FF0000
ENDCHAR
STARTCHAR 1EDF
ENCODING 7903
SWIDTH 609 0
DWIDTH 22 0
BBX 22 27 2 0
BITMAP
00FC00
00FE00
000F00
000E00
003C00
003000
000000
000000
03F81C
07FE1C
1F1F3C
3C07BC
38038C
780388
700398
F003F0
E003E0
E00380
E00380
E00380
E00780
E00700
F00F00
701E00
783C00
3FF800
1FE000
ENDCHAR
STARTCHAR 1EE0
ENCODING 7904
SWIDTH 803 0
DWIDTH 29 0
BBX 29 31 3 0
BITMAP
003E3000
007FF000
0067E000
0060C000
00000000
007FC038
01FFF038
03FFFC78
07C03C78
0F001E18
1E000F10
3C000F30
3C000760
380007C0
78000780
70000780
70000780
F0000780
F0000780
F0000780
F0000700
F0000F00
70000F00
70001E00
78001E00
78003C00
3C007800
1E00F000
0FEFE000
07FFC000
01FF0000
ENDCHAR
STARTCHAR 1EE1
ENCODING 7905
SWIDTH 609 0
DWIDTH 22 0
BBX 22 25 2 1
BITMAP
03F300
07FF00
063E00
000000
000000
000000
03F81C
07FE1C
1F1F3C
3C07BC
38038C
780388
700398
F003F0
E003E0
E00380
E00380
E00380
E00780
E00700
F00F00
701E00
783C00
3FF800
1FE000
ENDCHAR
STARTCHAR 1EE2
ENCODING 7906
SWIDTH 803 0
DWIDTH 29 0
BBX 29 32 3 -6
BITMAP
007FC038
01FFF038
03FFFC78
07C03C78
0F001E18
1E000F10
3C000F30
3C000760
380007C0
78000780
70000780
70000780
F0000780
F0000780
F0000780
F0000700
F0000F00
70000F00
70001E00
78001E00
78003C00
3C007800
1E00F000
0FEFE000
07FFC000
01FF0000
00000000
00000000
00780000
00700000
00700000
00F00000
ENDCHAR
STARTCHAR 1EE3
ENCODING 7907
SWIDTH 609 0
DWIDTH 22 0
BBX 22 25 2 -6
BITMAP
03F81C
07FE1C
1F1F3C
3C07BC
38038C
780388
700398
F003F0
E003E0
E00380
E00380
E00380
E00780
E00700
F00F00
701E00
783C00
3FF800
1FE000
000000
000000
078000
070000
070000
0F0000
ENDCHAR
STARTCHAR 1EE4
ENCODING 7908
SWIDTH 720 0
DWIDTH 26 0
BBX 23 32 4 -6
BITMAP
1E000E
1C001E
1C001E
3C001E
3C001C
38001C
38003C
38003C
78003C
780038
700038
700078
700078
F00070
F00070
E00070
E000F0
E000F0
E000E0
E001E0
E001C0
F003C0
F80780
7F7F00
3FFE00
0FF800
000000
000000
038000
038000
078000
078000
ENDCHAR
STARTCHAR 1EE5
ENCODING 7909
SWIDTH 553 0
DWIDTH 20 0
BBX 18 25 2 -6
BITMAP
1C01C0
1C01C0
1C03C0
3C0380
380380
380380
380380
380780
780700
700700
700700
700F00
700F00
F00E00
E01E00
F03E00
F8EE00
7FCE00
3F9C00
000000
000000
0F0000
0E0000
1E0000
1E0000
ENDCHAR
STARTCHAR 1EE6
ENCODING 7910
SWIDTH 720 0
DWIDTH 26 0
BBX 23 32 4 0
BITMAP
001F80
0003C0
0001C0
000F80
000C00
000000
1E000E
1C001E
1C001E
3C001E
3C001C
38001C
38003C
38003C
78003C
780038
700038
700078
700078
F00070
F00070
E00070
E000F0
E000F0
E000E0
E001E0
E001C0
F003C0
F80780
7F7F00
3FFE00
0FF800
ENDCHAR
STARTCHAR 1EE7
ENCODING 7911
SWIDTH 553 0
DWIDTH 20 0
BBX 18 27 2 0
BITMAP
00FC00
00FE00
000F00
000E00
003C00
003000
000000
000000
1C01C0
1C01C0
1C03C0
3C0380
380380
380380
380380
380780
780700
700700
700700
700F00
700F00
F00E00
E01E00
F03E00
F8EE00
7FCE00
3F9C00
ENDCHAR
STARTCHAR 1EE8
ENCODING 7912
SWIDTH 803 0
DWIDTH 29 0
BBX 29 32 4 0
BITMAP
0003C000
00078000
000F0000
000E0000
001C0000
00000000
1E000E38
1C001E78
1C001E78
3C001E78
3C001C10
38001C30
38003C30
38003CE0
78003FC0
78003800
70003800
70007800
70007800
F0007000
F0007000
E0007000
E000F000
E000F000
E000E000
E001E000
E001C000
F003C000
F8078000
7F3F0000
3FFE0000
0FF80000
ENDCHAR
STARTCHAR 1EE9
ENCODING 7913
SWIDTH 636 0
DWIDTH 23 0
BBX 24 26 2 0
BITMAP
001E00
001C00
003800
007000
006000
000000
000000
1C01CF
1C01CF
1C03CF
3C038E
380382
380386
380384
38079C
7807F8
700700
700700
700F00
700F00
F00E00
E01E00
F03E00
F8EE00
7FCE00
3F9C00
ENDCHAR
STARTCHAR 1EEA
ENCODING 7914
SWIDTH 803 0
DWIDTH 29 0
BBX 29 32 4 0
BITMAP
001C0000
001E0000
000E0000
00070000
00070000
00000000
1E000E38
1C001E78
1C001E78
3C001E78
3C001C10
38001C30
38003C30
38003CE0
78003FC0
78003800
70003800
70007800
70007800
F0007000
F0007000
E0007000
E000F000
E000F000
E000E000
E001E000
E001C000
F003C000
F8078000
7F3F0000
3FFE0000
0FF80000
ENDCHAR
STARTCHAR 1EEB
ENCODING 7915
SWIDTH 636 0
DWIDTH 23 0
BBX 24 26 2 0
BITMAP
01E000
00F000
007000
007000
003800
000000
000000
1C01CF
1C01CF
1C03CF
3C038E
380382
380386
380384
38079C
7807F8
700700
700700
700F00
700F00
F00E00
E01E00
F03E00
F8EE00
7FCE00
3F9C00
ENDCHAR
STARTCHAR 1EEC
ENCODING 7916
SWIDTH 803 0
DWIDTH 29 0
BBX 29 32 4 0
BITMAP
001F8000
0003C000
0001C000
000F8000
000C0000
00000000
1E000E38
1C001E78
1C001E78
3C001E78
3C001C10
38001C30
38003C30
38003CE0
78003FC0
78003800
70003800
70007800
70007800
F0007000
F0007000
E0007000
E000F000
E000F000
E000E000
E001E000
E001C000
F003C000
F8078000
7F3F0000
3FFE0000
0FF80000
ENDCHAR
STARTCHAR 1EED
ENCODING 7917
SWIDTH 636 0
DWIDTH 23 0
BBX 24 27 2 0
BITMAP
00FC00
00FE00
000F00
000E00
003C00
003000
000000
000000
1C01CF
1C01CF
1C03CF
3C038E
380382
380386
380384
38079C
7807F8
700700
700700
700F00
700F00
F00E00
E01E00
F03E00
F8EE00
7FCE00
3F9C00
ENDCHAR
STARTCHAR 1EEE
ENCODING 7918
SWIDTH 803 0
DWIDTH 29 0
BBX 29 31 4 0
BITMAP
007C7000
007FE000
00E7E000
00C08000
00000000
1E000E38
1C001E78
1C001E78
3C001E78
3C001C10
38001C30
38003C30
38003CE0
78003FC0
78003800
70003800
70007800
70007800
F0007000
F0007000
E0007000
E000F000
E000F000
E000E000
E001E000
E001C000
F003C000
F8078000
7F3F0000
3FFE0000
0FF80000
ENDCHAR
STARTCHAR 1EEF
ENCODING 7919
SWIDTH 636 0
DWIDTH 23 0
BBX 24 25 2 1
BITMAP
01F980
03FF80
031F00
000000
000000
000000
1C01CF
1C01CF
1C03CF
3C038E
380382
380386
380384
38079C
7807F8
700700
700700
700F00
700F00
F00E00
E01E00
F03E00
F8EE00
7FCE00
3F9C00
ENDCHAR
STARTCHAR 1EF0
ENCODING 7920
SWIDTH 803 0
DWIDTH 29 0
BBX 29 32 4 -6
BITMAP
1E000E38
1C001E78
1C001E78
3C001E78
3C001C10
38001C30
38003C30
38003CE0
78003FC0
78003800
70003800
70007800
70007800
F0007000
F0007000
E0007000
E000F000
E000F000
E000E000
E001E000
E001C000
F003C000
F8078000
7F3F0000
3FFE0000
0FF80000
00000000
00000000
03800000
03800000
07800000
07800000
ENDCHAR
STARTCHAR 1EF1
ENCODING 7921
SWIDTH 636 0
DWIDTH 23 0
BBX 24 25 2 -6
BITMAP
1C01CF
1C01CF
1C03CF
3C038E
380382
380386
380384
38079C
7807F8
700700
700700
700F00
700F00
F00E00
E01E00
F03E00
F8EE00
7FCE00
3F9C00
000000
000000
0F0000
0E0000
1E0000
1E0000
ENDCHAR
STARTCHAR 1EF2
ENCODING 7922
SWIDTH 664 0
DWIDTH 24 0
BBX 24 32 4 0
BITMAP
007800
003C00
001C00
000C00
000E00
000000
F0001F
78001E
78003C
3C0078
3C00F8
1E00F0
1E01E0
0F03C0
0F07C0
078F80
078F00
03DE00
03FC00
01FC00
01F800
00F000
00F000
00E000
00E000
01E000
01E000
01C000
01C000
01C000
03C000
03C000
ENDCHAR
STARTCHAR 1EF3
ENCODING 7923
SWIDTH 498 0
DWIDTH 18 0
BBX 20 34 0 -8
BITMAP
007000
007800
003800
001C00
001C00
000000
000000
1C0070
1E00F0
0E00E0
0E01C0
0E01C0
0E0380
0E0780
0F0700
070F00
070E00
071E00
071C00
073800
073800
037000
03F000
03E000
03E000
03C000
038000
038000
070000
0F0000
FE0000
FC0000
F80000
200000
ENDCHAR
STARTCHAR 1EF4
ENCODING 7924
SWIDTH 664 0
DWIDTH 24 0
BBX 24 32 4 -6
BITMAP
F0001F
78001E
78003C
3C0078
3C00F8
1E00F0
1E01E0
0F03C0
0F07C0
078F80
078F00
03DE00
03FC00
01FC00
01F800
00F000
00F000
00E000
00E000
01E000
01E000
01C000
01C000
01C000
03C000
03C000
000000
000000
038000
078000
078000
078000
ENDCHAR
STARTCHAR 1EF5
ENCODING 7925
SWIDTH 498 0
DWIDTH 18 0
BBX 20 27 0 -8
BITMAP
1C0070
1E00F0
0E00E0
0E01C0
0E01C0
0E0380
0E0780
0F0700
070F00
070E00
071E00
071C00
073800
073800
037000
03F000
03E000
03E000
03C000
038000
038000
071E00
0F1E00
FE1C00
FC1C00
F80000
200000
ENDCHAR
STARTCHAR 1EF6
ENCODING 7926
SWIDTH 664 0
DWIDTH 24 0
BBX 24 32 4 0
BITMAP
007F00
000780
000300
001E00
001800
000000
F0001F
78001E
78003C
3C0078
3C00F8
1E00F0
1E01E0
0F03C0
0F07C0
078F80
078F00
03DE00
03FC00
01FC00
01F800
00F000
00F000
00E000
00E000
01E000
01E000
01C000
01C000
01C000
03C000
03C000
ENDCHAR
STARTCHAR 1EF7
ENCODING 7927
SWIDTH 498 0
DWIDTH 18 0
BBX 20 35 0 -8
BITMAP
003F00
003F80
000380
000780
000F00
001800
000000
000000
1C0070
1E00F0
0E00E0
0E01C0
0E01C0
0E0380
0E0780
0F0700
070F00
070E00
071E00
071C00
073800
073800
037000
03F000
03E000
03E000
03C000
038000
038000
070000
0F0000
FE0000
FC0000
F80000
200000
ENDCHAR
STARTCHAR 1EF8
ENCODING 7928
SWIDTH 664 0
DWIDTH 24 0
BBX 24 31 4 0
BITMAP
00FC60
00FFC0
01CFC0
018100
000000
F0001F
78001E
78003C
3C0078
3C00F8
1E00F0
1E01E0
0F03C0
0F07C0
078F80
078F00
03DE00
03FC00
01FC00
01F800
00F000
00F000
00E000
00E000
01E000
01E000
01C000
01C000
01C000
03C000
03C000
ENDCHAR
STARTCHAR 1EF9
ENCODING 7929
SWIDTH 498 0
DWIDTH 18 0
BBX 20 33 0 -7
BITMAP
00FCC0
01FFC0
018F80
000000
000000
000000
1C0070
1E00F0
0E00E0
0E01C0
0E01C0
0E0380
0E0780
0F0700
070F00
070E00
071E00
071C00
073800
073800
037000
03F000
03E000
03E000
03C000
038000
038000
070000
0F0000
FE0000
FC0000
F80000
200000
ENDCHAR
STARTCHAR 200C
ENCODING 8204
SWIDTH 0 0
DWIDTH 0 0
BBX 2 28 -1 -5
BITMAP
C0
C0
C0
C0
C0
C0
C0
C0
C0
C0
C0
C0
C0
C0
C0
C0
C0
C0
C0
C0
C0
C0
C0
C0
C0
C0
C0
C0
ENDCHAR
STARTCHAR 200D
ENCODING 8205
SWIDTH 0 0
DWIDTH 0 0
BBX 6 29 -3 -4
BITMAP
84
48
30
30
78
B4
30
30
30
30
30
30
30
30
30
30
30
30
30
30
30
30
30
30
30
30
30
30
30
ENDCHAR
STARTCHAR 200E
ENCODING 8206
SWIDTH 0 0
DWIDTH 0 0
BBX 8 30 -1 -5
BITMAP
08
0C
02
FF
C3
C6
CC
C0
C0
C0
C0
C0
C0
C0
C0
C0
C0
C0
C0
C0
C0
C0
C0
C0
C0
C0
C0
C0
C0
C0
ENDCHAR
STARTCHAR 200F
ENCODING 8207
SWIDTH 0 0
DWIDTH 0 0
BBX 8 30 -7 -5
BITMAP
10
30
40
FF
C3
63
33
03
03
03
03
03
03
03
03
03
03
03
03
03
03
03
03
03
03
03
03
03
03
03
ENDCHAR
STARTCHAR 2013
ENCODING 8211
SWIDTH 553 0
DWIDTH 20 0
BBX 20 3 0 8
BITMAP
FFFFF0
FFFFF0
FFFFF0
ENDCHAR
STARTCHAR 2014
ENCODING 8212
SWIDTH 996 0
DWIDTH 36 0
BBX 36 3 0 8
BITMAP
FFFFFFFFF0
FFFFFFFFF0
FFFFFFFFF0
ENDCHAR
STARTCHAR 2015
ENCODING 8213
SWIDTH 996 0
DWIDTH 36 0
BBX 34 3 2 8
BITMAP
FFFFFFFFC0
FFFFFFFFC0
FFFFFFFF80
ENDCHAR
STARTCHAR 2017
ENCODING 8215
SWIDTH 553 0
DWIDTH 20 0
BBX 21 7 -2 -12
BITMAP
FFFFF8
FFFFF8
000000
000000
FFFFF8
FFFFF8
FFFFF8
ENDCHAR
STARTCHAR 2018
ENCODING 8216
SWIDTH 221 0
DWIDTH 8 0
BBX 5 9 5 17
BITMAP
18
30
60
60
40
F0
F0
F0
E0
ENDCHAR
STARTCHAR 2019
ENCODING 8217
SWIDTH 221 0
DWIDTH 8 0
BBX 5 9 5 17
BITMAP
78
78
78
70
30
30
20
E0
80
ENDCHAR
STARTCHAR 201A
ENCODING 8218
SWIDTH 221 0
DWIDTH 8 0
BBX 5 9 0 -5
BITMAP
38
78
78
78
10
30
30
60
C0
ENDCHAR
STARTCHAR 201B
ENCODING 8219
SWIDTH 221 0
DWIDTH 8 0
BBX 5 9 5 17
BITMAP
78
78
78
70
40
C0
C0
60
60
ENDCHAR
STARTCHAR 201C
ENCODING 8220
SWIDTH 332 0
DWIDTH 12 0
BBX 11 9 4 17
BITMAP
1860
30C0
6180
6100
4300
F3C0
F3C0
F380
E780
ENDCHAR
STARTCHAR 201D
ENCODING 8221
SWIDTH 332 0
DWIDTH 12 0
BBX 11 9 4 17
BITMAP
39E0
79E0
79E0
79C0
1040
30C0
3080
6380
C200
ENDCHAR
STARTCHAR 201E
ENCODING 8222
SWIDTH 332 0
DWIDTH 12 0
BBX 11 9 -1 -5
BITMAP
3CE0
3CE0
39E0
79E0
1860
1840
30C0
6180
C300
ENDCHAR
STARTCHAR 2020
ENCODING 8224
SWIDTH 553 0
DWIDTH 20 0
BBX 18 32 3 -6
BITMAP
007800
007000
007000
007000
007000
00F000
00E000
00E000
7FFFC0
7FFFC0
FFFFC0
01C000
01C000
01C000
01C000
03C000
038000
038000
038000
078000
070000
070000
070000
070000
0F0000
0E0000
0E0000
0E0000
0E0000
1E0000
1C0000
1C0000
ENDCHAR
STARTCHAR 2021
ENCODING 8225
SWIDTH 553 0
DWIDTH 20 0
BBX 21 32 0 -6
BITMAP
000F00
000E00
000E00
000E00
000E00
001E00
001C00
0FFFF8
0FFFF8
0FFFF8
003C00
003800
003800
003800
003800
007800
007000
007000
007000
007000
00E000
00E000
00E000
7FFFC0
FFFFC0
FFFF80
01C000
01C000
01C000
03C000
038000
038000
ENDCHAR
STARTCHAR 2022
ENCODING 8226
SWIDTH 360 0
DWIDTH 13 0
BBX 9 9 2 8
BITMAP
3E00
7F00
FF00
FF80
FF80
FF80
FF00
7F00
1C00
ENDCHAR
STARTCHAR 2026
ENCODING 8230
SWIDTH 996 0
DWIDTH 36 0
BBX 29 4 5 0
BITMAP
78078078
70070070
F0070070
F00F00F0
ENDCHAR
STARTCHAR 202A
ENCODING 8234
SWIDTH 0 0
DWIDTH 0 0
BBX 9 27 -1 -5
BITMAP
FF80
FF80
C000
C000
C000
C000
C000
C000
C000
C000
C000
C000
C000
C000
C000
C000
C000
C000
C000
C000
C000
C000
C000
C000
C000
C000
C000
ENDCHAR
STARTCHAR 202B
ENCODING 8235
SWIDTH 0 0
DWIDTH 0 0
BBX 9 27 -8 -5
BITMAP
FF80
0180
0180
0180
0180
0180
0180
0180
0180
0180
0180
0180
0180
0180
0180
0180
0180
0180
0180
0180
0180
0180
0180
0180
0180
0180
0180
ENDCHAR
STARTCHAR 202C
ENCODING 8236
SWIDTH 0 0
DWIDTH 0 0
BBX 8 30 -4 -5
BITMAP
FF
FF
FF
FF
FF
FF
FF
FF
18
18
18
18
18
18
18
18
18
18
18
18
18
18
18
18
18
18
18
18
18
18
ENDCHAR
STARTCHAR 202D
ENCODING 8237
SWIDTH 0 0
DWIDTH 0 0
BBX 8 30 -4 -5
BITMAP
FF
80
80
80
80
80
FF
FF
18
18
18
18
18
18
18
18
18
18
18
18
18
18
18
18
18
18
18
18
18
18
ENDCHAR
STARTCHAR 202E
ENCODING 8238
SWIDTH 0 0
DWIDTH 0 0
BBX 8 30 -4 -5
BITMAP
FF
01
01
01
01
01
FF
FF
18
18
18
18
18
18
18
18
18
18
18
18
18
18
18
18
18
18
18
18
18
18
ENDCHAR
STARTCHAR 2030
ENCODING 8240
SWIDTH 996 0
DWIDTH 36 0
BBX 34 27 2 -1
BITMAP
0FC0380000
1FE0700000
38E0600000
3060E00000
7061C00000
6061800000
60E3800000
E0E3000000
E0C7000000
E1CE000000
61CC000000
7F9C000000
3F38000000
0030600600
0073F83F80
0067BC7BC0
00E71C71C0
01CE1CE0C0
018E1CE0C0
038C1CC1C0
031C1CC1C0
071C1DC1C0
0E1C39C180
0C1C38C380
1C0E70E700
380FE0FF00
3003C03C00
ENDCHAR
STARTCHAR 2032
ENCODING 8242
SWIDTH 193 0
DWIDTH 7 0
BBX 4 9 5 17
BITMAP
70
F0
F0
F0
E0
E0
E0
C0
C0
ENDCHAR
STARTCHAR 2033
ENCODING 8243
SWIDTH 360 0
DWIDTH 13 0
BBX 10 9 5 17
BITMAP
79C0
71C0
73C0
F3C0
F3C0
E380
E380
E300
C300
ENDCHAR
STARTCHAR 2039
ENCODING 8249
SWIDTH 332 0
DWIDTH 12 0
BBX 9 16 2 1
BITMAP
0380
0700
0E00
1C00
3C00
7800
F000
E000
E000
7000
7000
3000
3800
3800
1800
1C00
ENDCHAR
STARTCHAR 203A
ENCODING 8250
SWIDTH 332 0
DWIDTH 12 0
BBX 9 16 1 1
BITMAP
0C00
0E00
0E00
0600
0700
0700
0380
0380
0780
0700
0E00
1C00
3800
7000
6000
E000
ENDCHAR
STARTCHAR 203C
ENCODING 8252
SWIDTH 498 0
DWIDTH 18 0
BBX 17 26 2 0
BITMAP
078780
078780
070700
0F0F00
0F0F00
0F0F00
0F0E00
0E0E00
0E1E00
1E1E00
1C1C00
1C1C00
1C1C00
1C1C00
181800
183800
383800
383000
303000
000000
000000
000000
707000
70F000
F0F000
F0F000
ENDCHAR
STARTCHAR 203E
ENCODING 8254
SWIDTH 332 0
DWIDTH 12 0
BBX 13 2 3 22
BITMAP
FFF8
FFF8
ENDCHAR
STARTCHAR 2044
ENCODING 8260
SWIDTH 166 0
DWIDTH 6 0
BBX 27 27 -9 -1
BITMAP
000001E0
000001C0
00000380
00000700
00000E00
00001C00
00003800
00007000
0000E000
0001C000
00038000
00038000
00070000
000E0000
001C0000
00380000
00700000
00E00000
01C00000
03800000
07000000
06000000
0E000000
1C000000
38000000
70000000
E0000000
ENDCHAR
STARTCHAR 206A
ENCODING 8298
SWIDTH 0 0
DWIDTH 0 0
BBX 8 30 -4 -5
BITMAP
FF
18
18
18
18
18
FF
FF
18
18
18
18
18
18
18
18
18
18
18
18
18
18
18
18
18
18
18
18
18
18
ENDCHAR
STARTCHAR 206B
ENCODING 8299
SWIDTH 0 0
DWIDTH 0 0
BBX 8 30 -4 -5
BITMAP
FF
81
81
81
81
81
FF
FF
18
18
18
18
18
18
18
18
18
18
18
18
18
18
18
18
18
18
18
18
18
18
ENDCHAR
STARTCHAR 206C
ENCODING 8300
SWIDTH 0 0
DWIDTH 0 0
BBX 8 30 -4 -5
BITMAP
FF
7E
7E
3C
3C
18
18
18
18
18
18
18
18
18
18
18
18
18
18
18
18
18
18
18
18
18
18
18
18
18
ENDCHAR
STARTCHAR 206D
ENCODING 8301
SWIDTH 0 0
DWIDTH 0 0
BBX 8 29 -4 -4
BITMAP
18
18
3C
3C
7E
FF
FF
18
18
18
18
18
18
18
18
18
18
18
18
18
18
18
18
18
18
18
18
18
18
ENDCHAR
STARTCHAR 206E
ENCODING 8302
SWIDTH 0 0
DWIDTH 0 0
BBX 8 29 -4 -4
BITMAP
3C
66
C3
42
24
18
18
18
18
18
18
18
18
18
18
18
18
18
18
18
18
18
18
18
18
18
18
18
18
ENDCHAR
STARTCHAR 206F
ENCODING 8303
SWIDTH 0 0
DWIDTH 0 0
BBX 8 30 -4 -5
BITMAP
F8
18
18
18
18
18
FF
FF
18
18
18
18
18
18
18
18
18
18
18
18
18
18
18
18
18
18
18
18
18
18
ENDCHAR
STARTCHAR 207F
ENCODING 8319
SWIDTH 360 0
DWIDTH 13 0
BBX 12 12 2 9
BITMAP
1BE0
3FF0
3C30
3830
3070
3070
7070
7060
6060
60E0
E0E0
E0C0
ENDCHAR
STARTCHAR 20A3
ENCODING 8355
SWIDTH 553 0
DWIDTH 20 0
BBX 22 26 0 0
BITMAP
01FFFC
01FFF8
01FFF8
03C000
03C000
038000
038000
038000
078000
078000
070000
07FFF0
0FFFE0
0FFFE0
0F0000
0E0000
0E0000
1E0000
1E0000
FFF000
FFF000
FFF000
3C0000
3C0000
380000
380000
ENDCHAR
STARTCHAR 20A4
ENCODING 8356
SWIDTH 553 0
DWIDTH 20 0
BBX 21 26 1 0
BITMAP
003F80
00FFE0
01F1E0
03C070
038078
078038
070038
070000
070000
1FFC00
3FFC00
3FFC00
078000
078000
038000
7FF800
7FF800
070000
070000
0E0000
1E0000
1C0000
7F8000
FFFFC0
FFFFC0
C03F80
ENDCHAR
STARTCHAR 20A7
ENCODING 8359
SWIDTH 1107 0
DWIDTH 40 0
BBX 38 26 1 0
BITMAP
07FC000000
07FF000000
0FFFC38000
0F07C78000
0F01E70000
0E01E70000
0E00E70000
1E00FFFFE0
1E00FFFFF0
1C01FFF878
1C01EE303C
1C03CE701C
3C1F9E701C
3FFF9C7C00
3FFE1C3E00
3F801C1F80
78001C0FC0
78003C03E0
78003801F0
70003BC070
70003BC070
F00039C070
F00079C070
E0007DF0F0
E0007FFFE0
E0003E3FC0
ENDCHAR
STARTCHAR 20AA
ENCODING 8362
SWIDTH 803 0
DWIDTH 29 0
BBX 28 19 3 0
BITMAP
0FFFC070
1FFFE0E0
1FFFF0E0
1C00F0E0
1C0070E0
1C0070E0
3870E1C0
3870E1C0
3870E1C0
3870E1C0
3060E1C0
70E1C380
70E1C380
70E00380
70E00380
E1C00700
E1FFFF00
E1FFFE00
E1FFF800
ENDCHAR
STARTCHAR 20AB
ENCODING 8363
SWIDTH 526 0
DWIDTH 19 0
BBX 17 22 2 4
BITMAP
000300
000300
007F80
000600
000600
03E600
07FE00
0E1E00
1C1C00
180C00
180C00
380C00
381800
381800
383800
183800
1CD800
0FB000
000000
000000
FFFC00
FFF800
ENDCHAR
STARTCHAR 20AC
ENCODING 8364
SWIDTH 553 0
DWIDTH 20 0
BBX 22 26 1 0
BITMAP
001FF0
007FFC
00FFFC
01F018
03C000
078000
0F0000
0F0000
0E0000
1E0000
7FFFC0
FFFF80
3C0000
3C0000
7FFF80
7FFF80
FFFF00
3C0000
1C0000
1C0000
1E0000
0F0000
0F8080
07F780
03FF80
00FF80
ENDCHAR
STARTCHAR 2105
ENCODING 8453
SWIDTH 886 0
DWIDTH 32 0
BBX 28 27 3 -1
BITMAP
0FC00380
1FE00300
38600700
70700E00
60001C00
60003800
E0003800
E0007000
E000E000
E0E1C000
60C38000
73838000
3F070000
000E0FC0
001C1FE0
00183070
00387030
00706030
00E0E030
01C0C030
01C0C030
0380C030
0700E060
0E0060E0
0C007BC0
1C003F80
38000000
ENDCHAR
STARTCHAR 2113
ENCODING 8467
SWIDTH 332 0
DWIDTH 12 0
BBX 14 26 1 0
BITMAP
00F8
01FC
01CC
038C
039C
079C
0738
0770
07E0
0FE0
0F80
0F00
1E00
3C00
7C00
FC00
F800
B800
7800
7000
7000
7000
E100
E300
FE00
7E00
ENDCHAR
STARTCHAR 2116
ENCODING 8470
SWIDTH 1080 0
DWIDTH 39 0
BBX 37 26 2 0
BITMAP
0780070000
0780070000
07C0070000
0FC00F0000
0FC00F0000
0FE00E0300
0EE00E0FE0
0EF00E3FF0
1E701E3878
1C701C7038
1C781C7038
1C381CF038
1C3C1CE038
3C1C3CE038
381C38E070
381E38E070
380E3870E0
780F787FE0
7807703F80
7007700000
7007F00000
7003F1FFE0
F003F3FFC0
E001E3FFC0
E001E00000
E001E00000
ENDCHAR
STARTCHAR 2122
ENCODING 8482
SWIDTH 996 0
DWIDTH 36 0
BBX 27 15 5 11
BITMAP
FFF780E0
FFF780E0
0606C1E0
0606C1E0
0606C1E0
0606E360
06066360
06066360
06066660
06063660
06063660
06063C60
06061C60
06061C60
06061C60
ENDCHAR
STARTCHAR 2126
ENCODING 8486
SWIDTH 775 0
DWIDTH 28 0
BBX 24 26 3 1
BITMAP
01FF80
03FFE0
0FE7F0
1F00F8
1E007C
3C003C
3C001E
78001E
78000E
78000F
78000F
70000F
70000F
78000F
78000F
78000E
78001E
38001E
3C001C
1E003C
0E0078
0F00F0
03C1E0
FFC3FF
FFC3FF
FFC3FF
ENDCHAR
STARTCHAR 212E
ENCODING 8494
SWIDTH 609 0
DWIDTH 22 0
BBX 18 20 2 -1
BITMAP
07F800
1C0E00
300700
700380
700380
F003C0
F003C0
F003C0
FFFFC0
FFFFC0
F00000
F00000
F00000
F00000
700080
700180
300300
180E00
0FF800
00C000
ENDCHAR
STARTCHAR 2153
ENCODING 8531
SWIDTH 830 0
DWIDTH 30 0
BBX 27 27 3 -1
BITMAP
01C001C0
03800380
0F800700
3F800E00
3B801E00
03801C00
03003800
03007000
0700E000
0701C000
07038000
06070000
060E0000
001C0600
00383FC0
003879C0
007070E0
00E000E0
01C001C0
03800F80
07000F80
0E0001C0
1C0001C0
3801C1C0
7000E3C0
60007F80
E0003E00
ENDCHAR
STARTCHAR 2154
ENCODING 8532
SWIDTH 830 0
DWIDTH 30 0
BBX 28 27 2 -1
BITMAP
0FC000E0
1FF001C0
38700380
30700700
00700F00
00F00E00
01E01C00
07803800
0F007000
3C00E000
3801C000
7FE38000
FFE70000
000E0300
001C1FE0
001C3CE0
00383870
00700070
00E000E0
01C007C0
038007C0
070000E0
0E0000E0
1C00E0E0
380071E0
30003FC0
70001F00
ENDCHAR
STARTCHAR 215B
ENCODING 8539
SWIDTH 830 0
DWIDTH 30 0
BBX 27 27 3 -1
BITMAP
01C001C0
03800380
0F800700
3F800E00
3B801E00
03801C00
03003800
03007000
0700E000
0701C000
07038000
06070000
060E0000
001C0600
00383FC0
003879C0
007070E0
00E060C0
01C03BC0
03801F00
07007F80
0E00E1C0
1C00C1C0
3801C1C0
7000E3C0
6000FF80
E0003E00
ENDCHAR
STARTCHAR 215C
ENCODING 8540
SWIDTH 830 0
DWIDTH 30 0
BBX 27 27 3 -1
BITMAP
0FC000E0
3FE001C0
38E00380
00600700
00E00E00
07C01C00
07803800
03C07000
00E0E000
60E1C000
E0E1C000
7FC38000
3F870000
000E0600
001C3FC0
003879C0
007070E0
00E070C0
01C033C0
03801F00
03007F80
0700E1C0
0E00C1C0
1C01C1C0
3800E3C0
7000FF80
E0003E00
ENDCHAR
STARTCHAR 215D
ENCODING 8541
SWIDTH 830 0
DWIDTH 30 0
BBX 27 27 3 -1
BITMAP
1FF001E0
3FE001C0
30000380
30000700
77800E00
7FC01C00
71E03800
00E07000
00E0E000
E0E1C000
E1C38000
7FC38000
3F070000
000E0600
001C3FC0
003879C0
007070E0
00E060C0
01C033C0
03801F00
07007F80
0700E1C0
0E00C1C0
1C01C1C0
3800E3C0
7000FF80
E0003E00
ENDCHAR
STARTCHAR 215E
ENCODING 8542
SWIDTH 830 0
DWIDTH 30 0
BBX 28 27 2 -1
BITMAP
1FF800E0
3FF001C0
00700380
00E00700
00C00E00
01801C00
03803800
07007000
0700E000
0E00E000
0E01C000
0C038000
1C070000
000E0300
001C1FE0
00383CE0
00703870
00E03060
01C019E0
01800F80
03803FC0
070070E0
0E0060E0
1C00E0E0
380071E0
70007FC0
E0001F00
ENDCHAR
STARTCHAR 2190
ENCODING 8592
SWIDTH 996 0
DWIDTH 36 0
BBX 34 12 1 3
BITMAP
0180000000
0300000000
0600000000
0E00000000
3C00000000
FFFFFFFFC0
7FFFFFFFC0
1C00000000
0E00000000
0700000000
0300000000
0180000000
ENDCHAR
STARTCHAR 2191
ENCODING 8593
SWIDTH 498 0
DWIDTH 18 0
BBX 12 31 3 -7
BITMAP
0600
0F00
0F00
1F80
3FC0
76E0
E670
8610
0600
0600
0600
0600
0600
0600
0600
0600
0600
0600
0600
0600
0600
0600
0600
0600
0600
0600
0600
0600
0600
0600
0600
ENDCHAR
STARTCHAR 2192
ENCODING 8594
SWIDTH 996 0
DWIDTH 36 0
BBX 34 12 1 3
BITMAP
0000002000
0000003000
0000001800
0000001E00
0000000F00
FFFFFFFFC0
FFFFFFFF80
0000000F00
0000001C00
0000001800
0000003000
0000006000
ENDCHAR
STARTCHAR 2193
ENCODING 8595
SWIDTH 498 0
DWIDTH 18 0
BBX 12 31 3 -8
BITMAP
0600
0600
0600
0600
0600
0600
0600
0600
0600
0600
0600
0600
0600
0600
0600
0600
0600
0600
0600
0600
0600
0600
0600
8610
E670
76E0
3FC0
1F80
0F00
0F00
0600
ENDCHAR
STARTCHAR 2194
ENCODING 8596
SWIDTH 996 0
DWIDTH 36 0
BBX 34 12 1 3
BITMAP
0180002000
0300003000
0600001800
0E00001E00
3C00000F00
FFFFFFFFC0
7FFFFFFF80
1C00000F00
0E00001C00
0700001800
0300003000
0180006000
ENDCHAR
STARTCHAR 2195
ENCODING 8597
SWIDTH 498 0
DWIDTH 18 0
BBX 12 33 3 -8
BITMAP
0600
0600
0F00
0F80
1F80
3FC0
76E0
C630
0600
0600
0600
0600
0600
0600
0600
0600
0600
0600
0600
0600
0600
0600
0600
0600
0600
8610
E670
76E0
3FC0
1F80
0F00
0F00
0600
ENDCHAR
STARTCHAR 21A8
ENCODING 8616
SWIDTH 498 0
DWIDTH 18 0
BBX 12 37 3 -11
BITMAP
0600
0600
0F00
0F80
1F80
3FC0
76E0
C630
0600
0600
0600
0600
0600
0600
0600
0600
0600
0600
0600
0600
0600
0600
0600
0600
0600
8610
E670
76E0
3FC0
1F80
0F00
0F00
0600
0000
0000
FFF0
FFF0
ENDCHAR
STARTCHAR 2202
ENCODING 8706
SWIDTH 498 0
DWIDTH 18 0
BBX 16 26 1 0
BITMAP
00F8
03FC
038E
0706
0E03
0203
0003
0003
0003
0003
00FF
07FF
0FC3
1E03
3C03
7803
7006
F006
E006
E00C
E00C
E018
F038
78F0
7FE0
3F80
ENDCHAR
STARTCHAR 2206
ENCODING 8710
SWIDTH 609 0
DWIDTH 22 0
BBX 20 24 1 0
BITMAP
002000
002000
007000
007000
00F800
00F800
01B800
01BC00
031C00
031E00
021E00
060E00
040F00
0C0700
080780
180380
1003C0
3003C0
3001C0
6001E0
6000E0
4000F0
C000F0
FFFFF0
ENDCHAR
STARTCHAR 220F
ENCODING 8719
SWIDTH 830 0
DWIDTH 30 0
BBX 24 34 4 -8
BITMAP
FFFFFF
FFFFFF
FFFFFF
F00007
F00007
F00007
F00007
F00007
F00007
F00007
F00007
F00007
F00007
F00007
F00007
F00007
F00007
F00007
F00007
F00007
F00007
F00007
F00007
F00007
F00007
F00007
F00007
F00007
F00007
F00007
F00007
F00007
F00007
F00007
ENDCHAR
STARTCHAR 2211
ENCODING 8721
SWIDTH 720 0
DWIDTH 26 0
BBX 22 34 2 -8
BITMAP
FFFFFC
FFFFFC
FFFFFC
7C0000
3C0000
1E0000
1F0000
0F8000
078000
03C000
03E000
01F000
00F800
007800
003C00
003E00
001E00
003E00
007C00
007800
00F000
01E000
03E000
07C000
078000
0F0000
1E0000
3E0000
3C0000
780000
F00000
FFFFFC
FFFFFC
FFFFFC
ENDCHAR
STARTCHAR 2212
ENCODING 8722
SWIDTH 581 0
DWIDTH 21 0
BBX 17 3 3 11
BITMAP
FFFF80
FFFF80
FFFF80
ENDCHAR
STARTCHAR 2215
ENCODING 8725
SWIDTH 166 0
DWIDTH 6 0
BBX 27 27 -9 -1
BITMAP
000001E0
000001C0
00000380
00000700
00000E00
00001C00
00003800
00007000
0000E000
0001C000
00038000
00038000
00070000
000E0000
001C0000
00380000
00700000
00E00000
01C00000
03800000
07000000
06000000
0E000000
1C000000
38000000
70000000
E0000000
ENDCHAR
STARTCHAR 2219
ENCODING 8729
SWIDTH 276 0
DWIDTH 10 0
BBX 4 4 3 11
BITMAP
F0
F0
F0
F0
ENDCHAR
STARTCHAR 221A
ENCODING 8730
SWIDTH 553 0
DWIDTH 20 0
BBX 18 34 2 -1
BITMAP
0000C0
0000C0
000080
000080
000080
000080
000180
000180
000100
000100
000100
000100
000100
000300
080200
380200
EC0200
8C0200
060200
060600
030600
030400
018400
018400
01C400
00CC00
00EC00
006800
007800
003800
003800
001800
001800
001000
ENDCHAR
STARTCHAR 221E
ENCODING 8734
SWIDTH 720 0
DWIDTH 26 0
BBX 20 11 3 7
BITMAP
000FC0
3E1FE0
7F3870
C3F030
C1E030
C0C030
C1E030
E3F030
7F3870
3C1FE0
000780
ENDCHAR
STARTCHAR 221F
ENCODING 8735
SWIDTH 969 0
DWIDTH 35 0
BBX 23 23 6 0
BITMAP
C00000
C00000
C00000
C00000
C00000
C00000
C00000
C00000
C00000
C00000
C00000
C00000
C00000
C00000
C00000
C00000
C00000
C00000
C00000
C00000
C00000
FFFFFE
FFFFFE
ENDCHAR
STARTCHAR 2229
ENCODING 8745
SWIDTH 720 0
DWIDTH 26 0
BBX 21 26 4 0
BITMAP
03FC00
07FF00
1F0780
3C01C0
3800E0
700070
600070
600030
E00030
E00038
E00038
E00038
E00038
E00038
E00038
E00038
E00038
E00038
E00038
E00038
E00038
E00038
E00038
E00038
E00038
E00038
ENDCHAR
STARTCHAR 222B
ENCODING 8747
SWIDTH 276 0
DWIDTH 10 0
BBX 10 37 0 -4
BITMAP
0380
07C0
07C0
0D80
0C00
0C00
0C00
0C00
0C00
0C00
0C00
0C00
0C00
0C00
0C00
0C00
0C00
0C00
0C00
0C00
0C00
0C00
0C00
0C00
0C00
0C00
0C00
0C00
0C00
0C00
0C00
0C00
0C00
E800
F800
F800
6000
ENDCHAR
ENDFONT
